rosario_regular.sfdir
StartChar: exclam
Encoding: 33 33 246
Width: 329
GlyphClass: 2
Flags: W
LayerCount: 2
Back
Fore
SplineSet
194 217 m 1,0,-1
 135 217 l 1,1,-1
 106 713 l 2,2,3
 106 727 106 727 123 727 c 2,4,-1
 205 727 l 2,5,6
 223 727 223 727 223 712 c 2,7,-1
 194 217 l 1,0,-1
99 53 m 0,8,9
 99 81 99 81 118 100 c 128,-1,10
 137 119 137 119 165 119 c 0,11,12
 192 119 192 119 211.5 99.5 c 128,-1,13
 231 80 231 80 231 53 c 128,-1,14
 231 26 231 26 211.5 6.5 c 128,-1,15
 192 -13 192 -13 165 -13 c 256,16,17
 138 -13 138 -13 118.5 6.5 c 128,-1,18
 99 26 99 26 99 53 c 0,8,9
EndSplineSet
EndChar
StartChar: quotedbl
Encoding: 34 34 247
Width: 367
GlyphClass: 2
Flags: W
LayerCount: 2
Back
Fore
SplineSet
271 441 m 1,0,-1
 242 441 l 2,1,2
 241 444 241 444 234.5 473 c 128,-1,3
 228 502 228 502 221.5 528.5 c 128,-1,4
 215 555 215 555 215 556 c 2,5,-1
 215 734 l 1,6,-1
 299 734 l 1,7,-1
 299 556 l 2,8,9
 299 553 299 553 271 441 c 1,0,-1
125 441 m 2,10,-1
 96 441 l 2,11,12
 95 444 95 444 88.5 473 c 128,-1,13
 82 502 82 502 75.5 528.5 c 128,-1,14
 69 555 69 555 69 556 c 2,15,-1
 69 734 l 1,16,-1
 153 734 l 1,17,-1
 153 556 l 2,18,19
 153 555 153 555 146.5 528.5 c 128,-1,20
 140 502 140 502 133 473 c 128,-1,21
 126 444 126 444 125 441 c 2,10,-1
EndSplineSet
EndChar
StartChar: numbersign
Encoding: 35 35 245
Width: 640
GlyphClass: 2
Flags: W
LayerCount: 2
Back
Fore
SplineSet
398 -5 m 1,0,-1
 327 -5 l 1,1,-1
 360 236 l 1,2,-1
 249 236 l 1,3,-1
 215 -5 l 1,4,-1
 145 -5 l 1,5,-1
 178 236 l 1,6,-1
 52 236 l 1,7,-1
 52 301 l 1,8,-1
 187 301 l 1,9,-1
 203 422 l 1,10,-1
 78 422 l 1,11,-1
 78 488 l 1,12,-1
 212 488 l 1,13,-1
 243 721 l 1,14,-1
 316 721 l 1,15,-1
 283 488 l 1,16,-1
 395 488 l 1,17,-1
 426 721 l 1,18,-1
 497 721 l 1,19,-1
 465 488 l 1,20,-1
 588 488 l 1,21,-1
 588 422 l 1,22,-1
 457 422 l 1,23,-1
 440 301 l 1,24,-1
 564 301 l 1,25,-1
 564 236 l 1,26,-1
 431 236 l 1,27,-1
 398 -5 l 1,0,-1
369 301 m 1,28,-1
 386 422 l 1,29,-1
 274 422 l 1,30,-1
 258 301 l 1,31,-1
 369 301 l 1,28,-1
EndSplineSet
EndChar
StartChar: dollar
Encoding: 36 36 4
Width: 453
GlyphClass: 2
Flags: W
LayerCount: 2
Back
Fore
SplineSet
228 -116 m 1,0,-1
 155 -116 l 1,1,-1
 186 -13 l 1,2,3
 133 -7 133 -7 67 29 c 1,4,-1
 104 90 l 1,5,6
 160 50 160 50 209 50 c 0,7,8
 250 50 250 50 279.5 66.5 c 128,-1,9
 309 83 309 83 309 121 c 0,10,11
 309 151 309 151 285 174 c 128,-1,12
 261 197 261 197 226.5 212.5 c 128,-1,13
 192 228 192 228 158 245.5 c 128,-1,14
 124 263 124 263 100 293 c 128,-1,15
 76 323 76 323 76 364 c 0,16,17
 76 430 76 430 124 468 c 128,-1,18
 172 506 172 506 240 509 c 1,19,-1
 250 613 l 1,20,-1
 322 613 l 1,21,-1
 290 506 l 1,22,23
 347 497 347 497 385 474 c 1,24,-1
 356 410 l 1,25,26
 309 446 309 446 260 446 c 0,27,28
 221 446 221 446 191.5 429.5 c 128,-1,29
 162 413 162 413 162 378 c 0,30,31
 162 348 162 348 186 326 c 128,-1,32
 210 304 210 304 244.5 289.5 c 128,-1,33
 279 275 279 275 313.5 258 c 128,-1,34
 348 241 348 241 372 211 c 128,-1,35
 396 181 396 181 396 138 c 0,36,37
 396 70 396 70 351.5 31 c 128,-1,38
 307 -8 307 -8 237 -14 c 1,39,-1
 228 -116 l 1,0,-1
EndSplineSet
EndChar
StartChar: percent
Encoding: 37 37 5
Width: 863
GlyphClass: 2
Flags: W
LayerCount: 2
Back
Fore
SplineSet
668 -5 m 0,0,1
 591 -5 591 -5 545.5 54 c 128,-1,2
 500 113 500 113 500 192 c 0,3,4
 500 274 500 274 542 329.5 c 128,-1,5
 584 385 584 385 664 385 c 0,6,7
 739 385 739 385 783 327 c 128,-1,8
 827 269 827 269 827 192 c 0,9,10
 827 116 827 116 784 55.5 c 128,-1,11
 741 -5 741 -5 668 -5 c 0,0,1
288 -13 m 1,12,-1
 224 -13 l 1,13,-1
 552 657 l 1,14,-1
 328 657 l 1,15,16
 373 602 373 602 373 521 c 0,17,18
 373 446 373 446 330 385 c 128,-1,19
 287 324 287 324 215 324 c 0,20,21
 138 324 138 324 92 383 c 128,-1,22
 46 442 46 442 46 521 c 0,23,24
 46 602 46 602 88.5 658.5 c 128,-1,25
 131 715 131 715 210 715 c 2,26,-1
 643 715 l 1,27,-1
 288 -13 l 1,12,-1
667 54 m 0,28,29
 697 54 697 54 716.5 79 c 128,-1,30
 736 104 736 104 743 132.5 c 128,-1,31
 750 161 750 161 750 190 c 0,32,33
 750 218 750 218 742.5 247.5 c 128,-1,34
 735 277 735 277 715 302.5 c 128,-1,35
 695 328 695 328 665 328 c 0,36,37
 622 328 622 328 598 281.5 c 128,-1,38
 574 235 574 235 574 188 c 128,-1,39
 574 141 574 141 598.5 97.5 c 128,-1,40
 623 54 623 54 667 54 c 0,28,29
213 383 m 0,41,42
 243 383 243 383 263 408 c 128,-1,43
 283 433 283 433 290 462 c 128,-1,44
 297 491 297 491 297 519 c 0,45,46
 297 567 297 567 275.5 612 c 128,-1,47
 254 657 254 657 211 657 c 0,48,49
 182 657 182 657 160.5 631.5 c 128,-1,50
 139 606 139 606 130 575.5 c 128,-1,51
 121 545 121 545 121 517 c 0,52,53
 121 470 121 470 145 426.5 c 128,-1,54
 169 383 169 383 213 383 c 0,41,42
EndSplineSet
EndChar
StartChar: ampersand
Encoding: 38 38 6
Width: 679
GlyphClass: 2
Flags: W
LayerCount: 2
Back
Fore
SplineSet
666 0 m 1,0,-1
 605 0 l 2,1,2
 533 0 533 0 452 83 c 1,3,4
 361 -13 361 -13 251 -13 c 0,5,6
 170 -13 170 -13 110.5 45.5 c 128,-1,7
 51 104 51 104 51 185 c 0,8,9
 51 305 51 305 203 394 c 1,10,11
 145 472 145 472 145 551 c 0,12,13
 145 611 145 611 190 647.5 c 128,-1,14
 235 684 235 684 296 684 c 0,15,16
 354 684 354 684 396.5 650.5 c 128,-1,17
 439 617 439 617 439 560 c 0,18,19
 439 470 439 470 311 387 c 1,20,-1
 462 205 l 1,21,22
 496 274 496 274 505 354 c 1,23,-1
 567 340 l 1,24,25
 554 237 554 237 505 154 c 1,26,27
 517 141 517 141 532.5 123 c 128,-1,28
 548 105 548 105 554 99 c 128,-1,29
 560 93 560 93 570.5 84.5 c 128,-1,30
 581 76 581 76 592.5 74.5 c 128,-1,31
 604 73 604 73 621 71 c 128,-1,32
 638 69 638 69 666 69 c 1,33,-1
 666 0 l 1,0,-1
275 437 m 1,34,35
 361 492 361 492 361 557 c 0,36,37
 361 587 361 587 342.5 607 c 128,-1,38
 324 627 324 627 295 627 c 0,39,40
 264 627 264 627 245 605.5 c 128,-1,41
 226 584 226 584 226 553 c 0,42,43
 226 504 226 504 275 437 c 1,34,35
409 131 m 1,44,45
 337 216 337 216 237 345 c 1,46,47
 136 279 136 279 136 192 c 0,48,49
 136 136 136 136 174 101 c 128,-1,50
 212 66 212 66 269 66 c 0,51,52
 338 66 338 66 409 131 c 1,44,45
EndSplineSet
EndChar
StartChar: quotesingle
Encoding: 39 39 7
Width: 226
GlyphClass: 2
Flags: W
LayerCount: 2
Back
Fore
SplineSet
127 445 m 2,0,-1
 98 445 l 2,1,2
 97 448 97 448 90.5 477 c 128,-1,3
 84 506 84 506 77.5 532.5 c 128,-1,4
 71 559 71 559 71 560 c 2,5,-1
 71 738 l 1,6,-1
 155 738 l 1,7,-1
 155 560 l 2,8,9
 155 559 155 559 148.5 532.5 c 128,-1,10
 142 506 142 506 135 477 c 128,-1,11
 128 448 128 448 127 445 c 2,0,-1
EndSplineSet
EndChar
StartChar: parenleft
Encoding: 40 40 8
Width: 306
GlyphClass: 2
Flags: W
LayerCount: 2
Back
Fore
SplineSet
285 -129 m 1,0,-1
 218 -138 l 1,1,2
 44 64 44 64 44 302 c 0,3,4
 44 543 44 543 218 743 c 1,5,-1
 285 733 l 1,6,7
 132 545 132 545 132 302 c 128,-1,8
 132 59 132 59 285 -129 c 1,0,-1
EndSplineSet
EndChar
StartChar: parenright
Encoding: 41 41 9
Width: 306
GlyphClass: 2
Flags: W
LayerCount: 2
Back
Fore
SplineSet
88 -138 m 1,0,-1
 21 -129 l 1,1,2
 175 62 175 62 175 302 c 128,-1,3
 175 542 175 542 21 733 c 1,4,-1
 88 743 l 1,5,6
 262 543 262 543 262 302 c 0,7,8
 262 64 262 64 88 -138 c 1,0,-1
EndSplineSet
EndChar
StartChar: asterisk
Encoding: 42 42 10
Width: 510
GlyphClass: 2
Flags: W
LayerCount: 2
Back
Fore
SplineSet
437 569 m 1,0,-1
 300 541 l 1,1,-1
 287 583 l 1,2,-1
 408 647 l 1,3,-1
 437 569 l 1,0,-1
273 591 m 1,4,-1
 232 591 l 1,5,-1
 212 731 l 1,6,-1
 290 731 l 1,7,-1
 273 591 l 1,4,-1
392 427 m 1,8,-1
 329 379 l 1,9,-1
 261 503 l 1,10,-1
 294 526 l 1,11,-1
 392 427 l 1,8,-1
208 546 m 1,12,-1
 72 567 l 1,13,-1
 93 643 l 1,14,-1
 221 582 l 1,15,-1
 208 546 l 1,12,-1
178 381 m 1,16,-1
 117 426 l 1,17,-1
 212 530 l 1,18,-1
 246 503 l 1,19,-1
 178 381 l 1,16,-1
EndSplineSet
EndChar
StartChar: comma
Encoding: 44 44 12
Width: 235
GlyphClass: 2
Flags: W
LayerCount: 2
Back
Fore
SplineSet
47 -93 m 0,0,1
 49 -90 49 -90 58 -81.5 c 128,-1,2
 67 -73 67 -73 72 -67.5 c 128,-1,3
 77 -62 77 -62 83.5 -53.5 c 128,-1,4
 90 -45 90 -45 93 -37 c 128,-1,5
 96 -29 96 -29 96 -22 c 0,6,7
 96 -11 96 -11 71 12.5 c 128,-1,8
 46 36 46 36 46 64 c 0,9,10
 46 89 46 89 64 106.5 c 128,-1,11
 82 124 82 124 108 124 c 0,12,13
 143 124 143 124 163 99 c 128,-1,14
 183 74 183 74 183 39 c 0,15,16
 183 -53 183 -53 81 -127 c 1,17,18
 63 -111 63 -111 47 -93 c 0,0,1
EndSplineSet
EndChar
StartChar: hyphen
Encoding: 45 45 13
Width: 313
GlyphClass: 2
Flags: W
LayerCount: 2
Back
Fore
SplineSet
272 224 m 1,0,-1
 41 224 l 1,1,-1
 41 299 l 1,2,-1
 272 299 l 1,3,-1
 272 224 l 1,0,-1
EndSplineSet
EndChar
StartChar: period
Encoding: 46 46 14
Width: 228
GlyphClass: 2
Flags: W
LayerCount: 2
Back
Fore
SplineSet
42 56 m 0,0,1
 42 84 42 84 61 103 c 128,-1,2
 80 122 80 122 108 122 c 0,3,4
 135 122 135 122 154.5 102.5 c 128,-1,5
 174 83 174 83 174 56 c 128,-1,6
 174 29 174 29 154.5 9.5 c 128,-1,7
 135 -10 135 -10 108 -10 c 256,8,9
 81 -10 81 -10 61.5 9.5 c 128,-1,10
 42 29 42 29 42 56 c 0,0,1
EndSplineSet
EndChar
StartChar: slash
Encoding: 47 47 15
Width: 326
GlyphClass: 2
Flags: W
LayerCount: 2
Back
Fore
SplineSet
64 -9 m 1,0,-1
 -5 -9 l 1,1,-1
 264 727 l 1,2,-1
 331 727 l 1,3,-1
 64 -9 l 1,0,-1
EndSplineSet
EndChar
StartChar: zero
Encoding: 48 48 16
Width: 578
GlyphClass: 2
Flags: W
LayerCount: 2
Back
Fore
SplineSet
49 248 m 0,0,1
 49 360 49 360 114.5 434.5 c 128,-1,2
 180 509 180 509 290 509 c 0,3,4
 399 509 399 509 465 434 c 128,-1,5
 531 359 531 359 531 248 c 128,-1,6
 531 137 531 137 465 62 c 128,-1,7
 399 -13 399 -13 290 -13 c 256,8,9
 181 -13 181 -13 115 62 c 128,-1,10
 49 137 49 137 49 248 c 0,0,1
290 50 m 0,11,12
 440 50 440 50 440 248 c 128,-1,13
 440 446 440 446 290 446 c 0,14,15
 139 446 139 446 139 248 c 128,-1,16
 139 50 139 50 290 50 c 0,11,12
EndSplineSet
EndChar
StartChar: one
Encoding: 49 49 17
Width: 387
GlyphClass: 2
Flags: W
LayerCount: 2
Back
Fore
SplineSet
360 -1 m 1,0,-1
 47 -1 l 1,1,-1
 47 67 l 1,2,-1
 164 67 l 1,3,-1
 164 404 l 1,4,-1
 44 367 l 1,5,-1
 26 414 l 1,6,-1
 197 497 l 1,7,-1
 247 497 l 1,8,-1
 247 67 l 1,9,-1
 360 67 l 1,10,-1
 360 -1 l 1,0,-1
EndSplineSet
EndChar
StartChar: two
Encoding: 50 50 18
Width: 469
GlyphClass: 2
Flags: W
LayerCount: 2
Back
Fore
SplineSet
425 -1 m 1,0,-1
 34 -1 l 1,1,-1
 34 52 l 1,2,-1
 266 284 l 2,3,4
 309 327 309 327 309 374 c 0,5,6
 309 404 309 404 289.5 425 c 128,-1,7
 270 446 270 446 240 446 c 0,8,9
 177 446 177 446 98 381 c 1,10,-1
 57 427 l 1,11,12
 93 463 93 463 146.5 486 c 128,-1,13
 200 509 200 509 251 509 c 0,14,15
 315 509 315 509 359.5 473.5 c 128,-1,16
 404 438 404 438 404 375 c 0,17,18
 404 294 404 294 297 202 c 2,19,-1
 141 68 l 1,20,-1
 445 68 l 1,21,-1
 425 -1 l 1,0,-1
EndSplineSet
EndChar
StartChar: three
Encoding: 51 51 19
Width: 410
GlyphClass: 2
Flags: W
LayerCount: 2
Back
Fore
SplineSet
-46 -196 m 1,0,-1
 -55 -142 l 1,1,2
 -10 -142 -10 -142 44.5 -128 c 128,-1,3
 99 -114 99 -114 150.5 -88 c 128,-1,4
 202 -62 202 -62 236.5 -20 c 128,-1,5
 271 22 271 22 271 72 c 0,6,7
 271 162 271 162 178 162 c 0,8,9
 142 162 142 162 109 151 c 1,10,-1
 82 207 l 1,11,12
 145 236 145 236 200 289 c 128,-1,13
 255 342 255 342 255 398 c 0,14,15
 255 422 255 422 241.5 434.5 c 128,-1,16
 228 447 228 447 204 447 c 0,17,18
 178 447 178 447 144.5 432 c 128,-1,19
 111 417 111 417 90 397 c 1,20,-1
 43 436 l 1,21,22
 95 476 95 476 134 492.5 c 128,-1,23
 173 509 173 509 230 509 c 0,24,25
 283 509 283 509 314.5 480 c 128,-1,26
 346 451 346 451 346 399 c 0,27,28
 346 353 346 353 304.5 306 c 128,-1,29
 263 259 263 259 212 226 c 1,30,-1
 225 227 l 1,31,-1
 237 227 l 2,32,33
 296 227 296 227 329 184.5 c 128,-1,34
 362 142 362 142 362 77 c 0,35,36
 362 5 362 5 322.5 -50.5 c 128,-1,37
 283 -106 283 -106 219.5 -136 c 128,-1,38
 156 -166 156 -166 88.5 -181 c 128,-1,39
 21 -196 21 -196 -46 -196 c 1,0,-1
EndSplineSet
EndChar
StartChar: four
Encoding: 52 52 20
Width: 497
GlyphClass: 2
Flags: W
LayerCount: 2
Back
Fore
SplineSet
387 -185 m 1,0,-1
 304 -185 l 1,1,-1
 304 0 l 1,2,-1
 12 0 l 1,3,-1
 12 40 l 1,4,-1
 289 498 l 1,5,-1
 387 498 l 1,6,-1
 387 69 l 1,7,-1
 488 69 l 1,8,-1
 470 0 l 1,9,-1
 387 0 l 1,10,-1
 387 -185 l 1,0,-1
304 69 m 1,11,-1
 304 399 l 1,12,-1
 104 69 l 1,13,-1
 304 69 l 1,11,-1
EndSplineSet
EndChar
StartChar: five
Encoding: 53 53 21
Width: 377
GlyphClass: 2
Flags: W
LayerCount: 2
Back
Fore
SplineSet
10 -209 m 1,0,-1
 -6 -157 l 1,1,2
 215 -88 215 -88 215 74 c 0,3,4
 215 139 215 139 161.5 195 c 128,-1,5
 108 251 108 251 40 283 c 1,6,-1
 131 497 l 1,7,-1
 367 497 l 1,8,-1
 343 412 l 1,9,-1
 166 412 l 1,10,-1
 131 328 l 1,11,12
 207 291 207 291 256 225 c 128,-1,13
 305 159 305 159 305 80 c 0,14,15
 305 -35 305 -35 217.5 -112.5 c 128,-1,16
 130 -190 130 -190 10 -209 c 1,0,-1
EndSplineSet
EndChar
StartChar: six
Encoding: 54 54 22
Width: 536
GlyphClass: 2
Flags: W
LayerCount: 2
Back
Fore
SplineSet
449 732 m 1,0,-1
 470 681 l 1,1,2
 357 634 357 634 272.5 549 c 128,-1,3
 188 464 188 464 157 354 c 1,4,5
 219 405 219 405 299 405 c 0,6,7
 383 405 383 405 435.5 346 c 128,-1,8
 488 287 488 287 488 202 c 0,9,10
 488 108 488 108 427 47.5 c 128,-1,11
 366 -13 366 -13 272 -13 c 0,12,13
 172 -13 172 -13 110.5 60 c 128,-1,14
 49 133 49 133 49 235 c 0,15,16
 49 370 49 370 123 481 c 128,-1,17
 197 592 197 592 320 670 c 0,18,19
 395 717 395 717 449 732 c 1,0,-1
142 270 m 1,20,21
 141 257 141 257 141 232 c 0,22,23
 141 161 141 161 174 105.5 c 128,-1,24
 207 50 207 50 274 50 c 0,25,26
 335 50 335 50 366 94.5 c 128,-1,27
 397 139 397 139 397 202 c 0,28,29
 397 258 397 258 364 297.5 c 128,-1,30
 331 337 331 337 276 337 c 0,31,32
 207 337 207 337 142 270 c 1,20,21
EndSplineSet
EndChar
StartChar: seven
Encoding: 55 55 23
Width: 425
GlyphClass: 2
Flags: W
LayerCount: 2
Back
Fore
SplineSet
127 -185 m 1,0,-1
 38 -185 l 1,1,-1
 308 422 l 1,2,-1
 15 422 l 1,3,-1
 35 497 l 1,4,-1
 405 497 l 1,5,-1
 405 455 l 1,6,-1
 127 -185 l 1,0,-1
EndSplineSet
EndChar
StartChar: eight
Encoding: 56 56 24
Width: 492
GlyphClass: 2
Flags: W
LayerCount: 2
Back
Fore
SplineSet
314 392 m 2,0,-1
 305 383 l 2,1,2
 307 381 307 381 334 355 c 128,-1,3
 361 329 361 329 367.5 322 c 128,-1,4
 374 315 374 315 394 291 c 128,-1,5
 414 267 414 267 420.5 253 c 128,-1,6
 427 239 427 239 434.5 216.5 c 128,-1,7
 442 194 442 194 442 172 c 0,8,9
 442 87 442 87 384 38 c 128,-1,10
 326 -11 326 -11 238 -11 c 0,11,12
 161 -11 161 -11 104 35.5 c 128,-1,13
 47 82 47 82 47 158 c 0,14,15
 47 195 47 195 55 223.5 c 128,-1,16
 63 252 63 252 83.5 277.5 c 128,-1,17
 104 303 104 303 120 318 c 128,-1,18
 136 333 136 333 169 361 c 2,19,-1
 185 374 l 1,20,21
 176 384 176 384 146 413.5 c 128,-1,22
 116 443 116 443 105.5 457 c 128,-1,23
 95 471 95 471 83 499.5 c 128,-1,24
 71 528 71 528 71 560 c 0,25,26
 71 630 71 630 123 679.5 c 128,-1,27
 175 729 175 729 246 729 c 0,28,29
 319 729 319 729 368.5 685.5 c 128,-1,30
 418 642 418 642 418 570 c 0,31,32
 418 532 418 532 401 497 c 128,-1,33
 384 462 384 462 367 443.5 c 128,-1,34
 350 425 350 425 314 392 c 2,0,-1
254 432 m 1,35,36
 338 506 338 506 338 570 c 0,37,38
 338 611 338 611 313.5 640.5 c 128,-1,39
 289 670 289 670 248 670 c 256,40,41
 207 670 207 670 185.5 638.5 c 128,-1,42
 164 607 164 607 164 565 c 0,43,44
 164 552 164 552 169 538.5 c 128,-1,45
 174 525 174 525 179.5 515 c 128,-1,46
 185 505 185 505 196.5 491 c 128,-1,47
 208 477 208 477 215 470 c 128,-1,48
 222 463 222 463 236 449.5 c 128,-1,49
 250 436 250 436 254 432 c 1,35,36
234 326 m 1,50,-1
 219 313 l 2,51,52
 194 291 194 291 183.5 280.5 c 128,-1,53
 173 270 173 270 157 250 c 128,-1,54
 141 230 141 230 135 209 c 128,-1,55
 129 188 129 188 129 161 c 0,56,57
 129 117 129 117 160.5 83 c 128,-1,58
 192 49 192 49 236 49 c 0,59,60
 286 49 286 49 317.5 82.5 c 128,-1,61
 349 116 349 116 349 166 c 0,62,63
 349 185 349 185 342 203 c 128,-1,64
 335 221 335 221 320 239.5 c 128,-1,65
 305 258 305 258 293.5 270 c 128,-1,66
 282 282 282 282 261 301 c 128,-1,67
 240 320 240 320 234 326 c 1,50,-1
EndSplineSet
EndChar
StartChar: nine
Encoding: 57 57 25
Width: 536
GlyphClass: 2
Flags: W
LayerCount: 2
Back
Fore
SplineSet
82 -217 m 1,0,-1
 61 -161 l 1,1,2
 328 -50 328 -50 382 142 c 1,3,4
 320 91 320 91 240 91 c 256,5,6
 160 91 160 91 105.5 152 c 128,-1,7
 51 213 51 213 51 294 c 0,8,9
 51 384 51 384 114 446.5 c 128,-1,10
 177 509 177 509 267 509 c 0,11,12
 372 509 372 509 431 438.5 c 128,-1,13
 490 368 490 368 490 261 c 0,14,15
 490 126 490 126 414.5 20 c 128,-1,16
 339 -86 339 -86 213 -159 c 0,17,18
 135 -203 135 -203 82 -217 c 1,0,-1
397 226 m 1,19,20
 399 239 399 239 399 264 c 0,21,22
 399 339 399 339 367 393 c 128,-1,23
 335 447 335 447 266 447 c 0,24,25
 208 447 208 447 175 400.5 c 128,-1,26
 142 354 142 354 142 294 c 0,27,28
 142 238 142 238 175 198.5 c 128,-1,29
 208 159 208 159 263 159 c 0,30,31
 332 159 332 159 397 226 c 1,19,20
EndSplineSet
EndChar
StartChar: colon
Encoding: 58 58 26
Width: 331
GlyphClass: 2
Flags: W
LayerCount: 2
Back
Fore
SplineSet
96 53 m 0,0,1
 96 81 96 81 115 100 c 128,-1,2
 134 119 134 119 162 119 c 0,3,4
 189 119 189 119 208.5 99.5 c 128,-1,5
 228 80 228 80 228 53 c 128,-1,6
 228 26 228 26 208.5 6.5 c 128,-1,7
 189 -13 189 -13 162 -13 c 256,8,9
 135 -13 135 -13 115.5 6.5 c 128,-1,10
 96 26 96 26 96 53 c 0,0,1
96 368 m 0,11,12
 96 396 96 396 115 415 c 128,-1,13
 134 434 134 434 162 434 c 0,14,15
 189 434 189 434 208.5 414.5 c 128,-1,16
 228 395 228 395 228 368 c 128,-1,17
 228 341 228 341 208.5 321.5 c 128,-1,18
 189 302 189 302 162 302 c 256,19,20
 135 302 135 302 115.5 321.5 c 128,-1,21
 96 341 96 341 96 368 c 0,11,12
EndSplineSet
EndChar
StartChar: semicolon
Encoding: 59 59 27
Width: 334
GlyphClass: 2
Flags: W
LayerCount: 2
Back
Fore
SplineSet
96 368 m 0,0,1
 96 396 96 396 115 415 c 128,-1,2
 134 434 134 434 162 434 c 0,3,4
 189 434 189 434 208.5 414.5 c 128,-1,5
 228 395 228 395 228 368 c 128,-1,6
 228 341 228 341 208.5 321.5 c 128,-1,7
 189 302 189 302 162 302 c 256,8,9
 135 302 135 302 115.5 321.5 c 128,-1,10
 96 341 96 341 96 368 c 0,0,1
92 -93 m 0,11,12
 94 -90 94 -90 103 -81.5 c 128,-1,13
 112 -73 112 -73 117 -67.5 c 128,-1,14
 122 -62 122 -62 128.5 -53.5 c 128,-1,15
 135 -45 135 -45 138 -37 c 128,-1,16
 141 -29 141 -29 141 -22 c 0,17,18
 141 -11 141 -11 116 12.5 c 128,-1,19
 91 36 91 36 91 64 c 0,20,21
 91 89 91 89 109 106.5 c 128,-1,22
 127 124 127 124 153 124 c 0,23,24
 188 124 188 124 208 99 c 128,-1,25
 228 74 228 74 228 39 c 0,26,27
 228 -53 228 -53 126 -127 c 1,28,29
 108 -111 108 -111 92 -93 c 0,11,12
EndSplineSet
EndChar
StartChar: less
Encoding: 60 60 28
Width: 630
GlyphClass: 2
Flags: W
LayerCount: 2
Back
Fore
SplineSet
564 -4 m 1,0,-1
 66 214 l 1,1,-1
 66 287 l 1,2,-1
 564 503 l 1,3,-1
 564 426 l 1,4,-1
 159 249 l 1,5,-1
 564 72 l 1,6,-1
 564 -4 l 1,0,-1
EndSplineSet
EndChar
StartChar: greater
Encoding: 62 62 30
Width: 630
GlyphClass: 2
Flags: W
LayerCount: 2
Back
Fore
SplineSet
564 214 m 1,0,-1
 66 -4 l 1,1,-1
 66 72 l 1,2,-1
 471 249 l 1,3,-1
 66 426 l 1,4,-1
 66 503 l 1,5,-1
 564 287 l 1,6,-1
 564 214 l 1,0,-1
EndSplineSet
EndChar
StartChar: question
Encoding: 63 63 31
Width: 438
GlyphClass: 2
Flags: W
LayerCount: 2
Back
Fore
SplineSet
222 217 m 1,0,-1
 157 217 l 1,1,-1
 157 412 l 1,2,3
 216 422 216 422 257.5 457 c 128,-1,4
 299 492 299 492 299 548 c 0,5,6
 299 600 299 600 262.5 631 c 128,-1,7
 226 662 226 662 174 662 c 0,8,9
 112 662 112 662 78 634 c 1,10,-1
 51 691 l 1,11,12
 96 723 96 723 183 723 c 0,13,14
 265 723 265 723 326 678.5 c 128,-1,15
 387 634 387 634 387 554 c 0,16,17
 387 493 387 493 346 441.5 c 128,-1,18
 305 390 305 390 246 371 c 0,19,20
 229 365 229 365 225.5 360.5 c 128,-1,21
 222 356 222 356 222 340 c 2,22,-1
 222 217 l 1,0,-1
120 53 m 0,23,24
 120 81 120 81 139 100 c 128,-1,25
 158 119 158 119 186 119 c 0,26,27
 213 119 213 119 232.5 99.5 c 128,-1,28
 252 80 252 80 252 53 c 128,-1,29
 252 26 252 26 232.5 6.5 c 128,-1,30
 213 -13 213 -13 186 -13 c 256,31,32
 159 -13 159 -13 139.5 6.5 c 128,-1,33
 120 26 120 26 120 53 c 0,23,24
EndSplineSet
EndChar
StartChar: at
Encoding: 64 64 32
Width: 831
GlyphClass: 2
Flags: W
LayerCount: 2
Back
Fore
SplineSet
446 -75 m 1,0,-1
 458 -116 l 1,1,2
 413 -128 413 -128 366 -128 c 0,3,4
 229 -128 229 -128 140 -36.5 c 128,-1,5
 51 55 51 55 51 192 c 0,6,7
 51 297 51 297 98.5 392.5 c 128,-1,8
 146 488 146 488 240 552 c 128,-1,9
 334 616 334 616 453 616 c 0,10,11
 591 616 591 616 685 534 c 128,-1,12
 779 452 779 452 779 311 c 0,13,14
 779 210 779 210 726.5 131 c 128,-1,15
 674 52 674 52 590 52 c 0,16,17
 515 52 515 52 487 113 c 0,18,19
 486 114 486 114 484 114 c 0,20,21
 463 84 463 84 431.5 67 c 128,-1,22
 400 50 400 50 369 50 c 0,23,24
 308 50 308 50 278 91.5 c 128,-1,25
 248 133 248 133 248 197 c 0,26,27
 248 249 248 249 270.5 303.5 c 128,-1,28
 293 358 293 358 341 399 c 128,-1,29
 389 440 389 440 449 440 c 0,30,31
 500 440 500 440 533 404 c 1,32,33
 539 413 539 413 549 433 c 1,34,-1
 586 433 l 1,35,36
 546 169 546 169 546 147 c 0,37,38
 546 95 546 95 592 95 c 0,39,40
 653 95 653 95 691 160.5 c 128,-1,41
 729 226 729 226 729 311 c 0,42,43
 729 432 729 432 650 503 c 128,-1,44
 571 574 571 574 453 574 c 0,45,46
 374 574 374 574 306 540.5 c 128,-1,47
 238 507 238 507 194 452.5 c 128,-1,48
 150 398 150 398 125.5 330 c 128,-1,49
 101 262 101 262 101 192 c 0,50,51
 101 73 101 73 176 -6.5 c 128,-1,52
 251 -86 251 -86 366 -86 c 0,53,54
 405 -86 405 -86 446 -75 c 1,0,-1
510 359 m 1,55,56
 481 391 481 391 446 391 c 0,57,58
 406 391 406 391 376 354 c 128,-1,59
 346 317 346 317 334 274 c 128,-1,60
 322 231 322 231 322 195 c 0,61,62
 322 99 322 99 383 99 c 0,63,64
 416 99 416 99 440 125 c 128,-1,65
 464 151 464 151 478 199.5 c 128,-1,66
 492 248 492 248 498 279 c 128,-1,67
 504 310 504 310 510 359 c 1,55,56
EndSplineSet
EndChar
StartChar: A
Encoding: 65 65 33
Width: 631
GlyphClass: 2
Flags: W
LayerCount: 2
Back
Fore
SplineSet
614 0 m 1,0,-1
 511 0 l 1,1,-1
 427 250 l 1,2,-1
 187 250 l 1,3,-1
 102 0 l 1,4,-1
 18 0 l 1,5,-1
 271 728 l 1,6,-1
 362 728 l 1,7,-1
 614 0 l 1,0,-1
404 318 m 1,8,-1
 308 606 l 1,9,-1
 210 318 l 1,10,-1
 404 318 l 1,8,-1
EndSplineSet
EndChar
StartChar: B
Encoding: 66 66 34
Width: 614
GlyphClass: 2
Flags: W
LayerCount: 2
Back
Fore
SplineSet
283 0 m 2,0,-1
 85 0 l 1,1,-1
 85 662 l 2,2,3
 85 663 85 663 81.5 678 c 128,-1,4
 78 693 78 693 74.5 709.5 c 128,-1,5
 71 726 71 726 71 728 c 2,6,-1
 314 728 l 2,7,8
 535 728 535 728 535 559 c 0,9,10
 535 500 535 500 501.5 453.5 c 128,-1,11
 468 407 468 407 412 397 c 1,12,13
 485 386 485 386 526.5 332.5 c 128,-1,14
 568 279 568 279 568 204 c 0,15,16
 568 142 568 142 544.5 99.5 c 128,-1,17
 521 57 521 57 477.5 36.5 c 128,-1,18
 434 16 434 16 388.5 8 c 128,-1,19
 343 0 343 0 283 0 c 2,0,-1
178 427 m 1,20,-1
 285 427 l 2,21,22
 359 427 359 427 398.5 457 c 128,-1,23
 438 487 438 487 438 557 c 0,24,25
 438 659 438 659 311 659 c 2,26,-1
 178 659 l 1,27,-1
 178 427 l 1,20,-1
178 69 m 1,28,-1
 289 69 l 2,29,30
 376 69 376 69 422.5 102 c 128,-1,31
 469 135 469 135 469 219 c 0,32,33
 469 290 469 290 416.5 324 c 128,-1,34
 364 358 364 358 289 358 c 2,35,-1
 178 358 l 1,36,-1
 178 69 l 1,28,-1
EndSplineSet
EndChar
StartChar: C
Encoding: 67 67 35
Width: 624
GlyphClass: 2
Flags: W
LayerCount: 2
Back
Fore
SplineSet
564 125 m 1,0,-1
 607 58 l 1,1,2
 567 25 567 25 504.5 6.5 c 128,-1,3
 442 -12 442 -12 385 -12 c 0,4,5
 227 -12 227 -12 136.5 97 c 128,-1,6
 46 206 46 206 46 366 c 0,7,8
 46 528 46 528 137 633 c 128,-1,9
 228 738 228 738 387 738 c 0,10,11
 446 738 446 738 508.5 717.5 c 128,-1,12
 571 697 571 697 605 659 c 1,13,-1
 553 601 l 1,14,15
 525 632 525 632 477 650 c 128,-1,16
 429 668 429 668 385 668 c 0,17,18
 323 668 323 668 276 641.5 c 128,-1,19
 229 615 229 615 202 569.5 c 128,-1,20
 175 524 175 524 161.5 471.5 c 128,-1,21
 148 419 148 419 148 360 c 0,22,23
 148 300 148 300 161.5 248 c 128,-1,24
 175 196 175 196 202.5 154 c 128,-1,25
 230 112 230 112 277.5 87.5 c 128,-1,26
 325 63 325 63 387 63 c 0,27,28
 432 63 432 63 481.5 80 c 128,-1,29
 531 97 531 97 564 125 c 1,0,-1
EndSplineSet
EndChar
StartChar: D
Encoding: 68 68 36
Width: 699
GlyphClass: 2
Flags: W
LayerCount: 2
Back
Fore
SplineSet
323 0 m 2,0,-1
 86 0 l 1,1,-1
 86 662 l 2,2,3
 86 663 86 663 82.5 678 c 128,-1,4
 79 693 79 693 75.5 709.5 c 128,-1,5
 72 726 72 726 72 728 c 2,6,-1
 259 728 l 2,7,8
 653 728 653 728 653 362 c 0,9,10
 653 198 653 198 569.5 99 c 128,-1,11
 486 0 486 0 323 0 c 2,0,-1
179 69 m 1,12,-1
 311 69 l 2,13,14
 439 69 439 69 497.5 150 c 128,-1,15
 556 231 556 231 556 364 c 0,16,17
 556 519 556 519 480.5 589 c 128,-1,18
 405 659 405 659 252 659 c 2,19,-1
 179 659 l 1,20,-1
 179 69 l 1,12,-1
EndSplineSet
EndChar
StartChar: E
Encoding: 69 69 37
Width: 549
GlyphClass: 2
Flags: W
LayerCount: 2
Back
Fore
SplineSet
509 0 m 1,0,-1
 86 0 l 1,1,-1
 86 662 l 2,2,3
 86 663 86 663 82.5 678 c 128,-1,4
 79 693 79 693 75.5 709.5 c 128,-1,5
 72 726 72 726 72 728 c 2,6,-1
 509 728 l 1,7,-1
 509 659 l 1,8,-1
 179 659 l 1,9,-1
 179 408 l 1,10,-1
 435 408 l 1,11,-1
 435 340 l 1,12,-1
 179 340 l 1,13,-1
 179 69 l 1,14,-1
 509 69 l 1,15,-1
 509 0 l 1,0,-1
EndSplineSet
EndChar
StartChar: F
Encoding: 70 70 38
Width: 510
GlyphClass: 2
Flags: W
LayerCount: 2
Back
Fore
SplineSet
179 0 m 1,0,-1
 86 0 l 1,1,-1
 86 662 l 2,2,3
 86 663 86 663 82.5 678 c 128,-1,4
 79 693 79 693 75.5 709.5 c 128,-1,5
 72 726 72 726 72 728 c 2,6,-1
 475 728 l 1,7,-1
 475 659 l 1,8,-1
 179 659 l 1,9,-1
 179 408 l 1,10,-1
 414 408 l 1,11,-1
 414 340 l 1,12,-1
 179 340 l 1,13,-1
 179 0 l 1,0,-1
EndSplineSet
EndChar
StartChar: G
Encoding: 71 71 39
Width: 707
GlyphClass: 2
Flags: W
LayerCount: 2
Back
Fore
SplineSet
651 0 m 1,0,-1
 601 0 l 1,1,-1
 569 76 l 1,2,3
 487 -12 487 -12 359 -12 c 0,4,5
 283 -12 283 -12 222 18 c 128,-1,6
 161 48 161 48 123.5 99 c 128,-1,7
 86 150 86 150 66.5 215.5 c 128,-1,8
 47 281 47 281 47 355 c 0,9,10
 47 523 47 523 134.5 630.5 c 128,-1,11
 222 738 222 738 385 738 c 0,12,13
 449 738 449 738 517 717 c 128,-1,14
 585 696 585 696 624 655 c 1,15,-1
 571 593 l 1,16,17
 520 634 520 634 482 650 c 128,-1,18
 444 666 444 666 385 666 c 0,19,20
 322 666 322 666 274 641 c 128,-1,21
 226 616 226 616 199 572.5 c 128,-1,22
 172 529 172 529 158.5 476.5 c 128,-1,23
 145 424 145 424 145 364 c 0,24,25
 145 306 145 306 157.5 254.5 c 128,-1,26
 170 203 170 203 196 158.5 c 128,-1,27
 222 114 222 114 268 88 c 128,-1,28
 314 62 314 62 375 62 c 0,29,30
 453 62 453 62 500.5 112.5 c 128,-1,31
 548 163 548 163 548 241 c 2,32,-1
 548 307 l 1,33,-1
 369 307 l 1,34,-1
 381 375 l 1,35,-1
 642 375 l 1,36,-1
 642 166 l 2,37,38
 642 165 642 165 651 0 c 1,0,-1
EndSplineSet
EndChar
StartChar: H
Encoding: 72 72 40
Width: 714
GlyphClass: 2
Flags: W
LayerCount: 2
Back
Fore
SplineSet
627 0 m 1,0,-1
 534 0 l 1,1,-1
 534 344 l 1,2,-1
 180 344 l 1,3,-1
 180 0 l 1,4,-1
 87 0 l 1,5,-1
 87 662 l 2,6,7
 87 663 87 663 83.5 678 c 128,-1,8
 80 693 80 693 76.5 709.5 c 128,-1,9
 73 726 73 726 73 728 c 2,10,-1
 180 728 l 1,11,-1
 180 412 l 1,12,-1
 534 412 l 1,13,-1
 534 728 l 1,14,-1
 627 728 l 1,15,-1
 627 0 l 1,0,-1
EndSplineSet
EndChar
StartChar: I
Encoding: 73 73 41
Width: 268
GlyphClass: 2
Flags: W
LayerCount: 2
Back
Fore
SplineSet
180 0 m 1,0,-1
 87 0 l 1,1,-1
 87 662 l 2,2,3
 87 663 87 663 83.5 678 c 128,-1,4
 80 693 80 693 76.5 709.5 c 128,-1,5
 73 726 73 726 73 728 c 2,6,-1
 180 728 l 1,7,-1
 180 0 l 1,0,-1
EndSplineSet
EndChar
StartChar: J
Encoding: 74 74 42
Width: 268
GlyphClass: 2
Flags: W
LayerCount: 2
Back
Fore
SplineSet
-11 -211 m 1,0,-1
 -23 -159 l 1,1,2
 14 -154 14 -154 38 -132.5 c 128,-1,3
 62 -111 62 -111 72 -76 c 128,-1,4
 82 -41 82 -41 85 -13 c 128,-1,5
 88 15 88 15 88 55 c 2,6,-1
 88 662 l 1,7,-1
 73 728 l 1,8,-1
 181 728 l 1,9,-1
 181 61 l 2,10,11
 181 16 181 16 176.5 -19.5 c 128,-1,12
 172 -55 172 -55 159.5 -90 c 128,-1,13
 147 -125 147 -125 126.5 -149 c 128,-1,14
 106 -173 106 -173 71 -190 c 128,-1,15
 36 -207 36 -207 -11 -211 c 1,0,-1
EndSplineSet
EndChar
StartChar: K
Encoding: 75 75 43
Width: 584
GlyphClass: 2
Flags: W
LayerCount: 2
Back
Fore
SplineSet
583 0 m 1,0,-1
 467 0 l 1,1,-1
 179 379 l 1,2,-1
 179 0 l 1,3,-1
 86 0 l 1,4,-1
 86 662 l 2,5,6
 86 663 86 663 82.5 678 c 128,-1,7
 79 693 79 693 75.5 709.5 c 128,-1,8
 72 726 72 726 72 728 c 2,9,-1
 179 728 l 1,10,-1
 179 403 l 1,11,-1
 468 728 l 1,12,-1
 565 728 l 1,13,-1
 278 404 l 1,14,-1
 583 0 l 1,0,-1
EndSplineSet
EndChar
StartChar: L
Encoding: 76 76 44
Width: 514
GlyphClass: 2
Flags: W
LayerCount: 2
Back
Fore
SplineSet
485 0 m 1,0,-1
 86 0 l 1,1,-1
 86 662 l 2,2,3
 86 663 86 663 82.5 678 c 128,-1,4
 79 693 79 693 75.5 709.5 c 128,-1,5
 72 726 72 726 72 728 c 2,6,-1
 179 728 l 1,7,-1
 179 69 l 1,8,-1
 485 69 l 1,9,-1
 485 0 l 1,0,-1
EndSplineSet
EndChar
StartChar: M
Encoding: 77 77 45
Width: 838
GlyphClass: 2
Flags: W
LayerCount: 2
Back
Fore
SplineSet
751 0 m 1,0,-1
 659 0 l 1,1,-1
 659 595 l 1,2,-1
 440 -1 l 1,3,-1
 384 -1 l 1,4,-1
 165 595 l 1,5,-1
 165 0 l 1,6,-1
 89 0 l 1,7,-1
 89 662 l 1,8,-1
 74 728 l 1,9,-1
 209 728 l 1,10,-1
 421 161 l 1,11,-1
 630 728 l 1,12,-1
 751 728 l 1,13,-1
 751 0 l 1,0,-1
EndSplineSet
EndChar
StartChar: N
Encoding: 78 78 46
Width: 714
GlyphClass: 2
Flags: W
LayerCount: 2
Back
Fore
SplineSet
627 -5 m 1,0,-1
 568 -5 l 1,1,-1
 163 615 l 1,2,-1
 163 0 l 1,3,-1
 87 0 l 1,4,-1
 87 662 l 2,5,6
 87 663 87 663 83.5 678 c 128,-1,7
 80 693 80 693 76.5 709.5 c 128,-1,8
 73 726 73 726 73 728 c 2,9,-1
 197 728 l 1,10,-1
 551 183 l 1,11,-1
 551 728 l 1,12,-1
 627 728 l 1,13,-1
 627 -5 l 1,0,-1
EndSplineSet
EndChar
StartChar: O
Encoding: 79 79 47
Width: 737
GlyphClass: 2
Flags: W
LayerCount: 2
Back
Fore
SplineSet
368 -11 m 0,0,1
 289 -11 289 -11 226.5 19 c 128,-1,2
 164 49 164 49 125 101.5 c 128,-1,3
 86 154 86 154 66 220.5 c 128,-1,4
 46 287 46 287 46 363 c 0,5,6
 46 523 46 523 129.5 630.5 c 128,-1,7
 213 738 213 738 369 738 c 0,8,9
 524 738 524 738 607.5 630.5 c 128,-1,10
 691 523 691 523 691 363 c 0,11,12
 691 260 691 260 656.5 177 c 128,-1,13
 622 94 622 94 547.5 41.5 c 128,-1,14
 473 -11 473 -11 368 -11 c 0,0,1
594 363 m 0,15,16
 594 420 594 420 582 472 c 128,-1,17
 570 524 570 524 545 569 c 128,-1,18
 520 614 520 614 475 641 c 128,-1,19
 430 668 430 668 369 668 c 256,20,21
 308 668 308 668 263 641 c 128,-1,22
 218 614 218 614 193 568 c 128,-1,23
 168 522 168 522 156.5 470.5 c 128,-1,24
 145 419 145 419 145 362 c 128,-1,25
 145 305 145 305 156.5 253.5 c 128,-1,26
 168 202 168 202 193 156.5 c 128,-1,27
 218 111 218 111 263 84 c 128,-1,28
 308 57 308 57 369 57 c 256,29,30
 430 57 430 57 475.5 84 c 128,-1,31
 521 111 521 111 546 156.5 c 128,-1,32
 571 202 571 202 582.5 253.5 c 128,-1,33
 594 305 594 305 594 363 c 0,15,16
EndSplineSet
EndChar
StartChar: P
Encoding: 80 80 48
Width: 575
GlyphClass: 2
Flags: W
LayerCount: 2
Back
Fore
SplineSet
179 0 m 1,0,-1
 86 0 l 1,1,-1
 86 662 l 1,2,-1
 71 728 l 1,3,-1
 289 728 l 2,4,5
 403 728 403 728 468.5 674.5 c 128,-1,6
 534 621 534 621 534 508 c 0,7,8
 534 403 534 403 465 345.5 c 128,-1,9
 396 288 396 288 290 288 c 2,10,-1
 179 288 l 1,11,-1
 179 0 l 1,0,-1
179 356 m 1,12,-1
 288 356 l 2,13,14
 357 356 357 356 397 397.5 c 128,-1,15
 437 439 437 439 437 508 c 0,16,17
 437 579 437 579 398.5 619 c 128,-1,18
 360 659 360 659 289 659 c 2,19,-1
 179 659 l 1,20,-1
 179 356 l 1,12,-1
EndSplineSet
EndChar
StartChar: Q
Encoding: 81 81 49
Width: 737
GlyphClass: 2
Flags: W
LayerCount: 2
Back
Fore
SplineSet
1139 -127 m 1,0,-1
 1155 -175 l 1,1,2
 1109 -192 1109 -192 1085.5 -199.5 c 128,-1,3
 1062 -207 1062 -207 1020.5 -214.5 c 128,-1,4
 979 -222 979 -222 935 -222 c 0,5,6
 882 -222 882 -222 805 -199 c 128,-1,7
 728 -176 728 -176 673.5 -152 c 128,-1,8
 619 -128 619 -128 536.5 -88.5 c 128,-1,9
 454 -49 454 -49 438 -42 c 0,10,11
 406 -27 406 -27 307 -5 c 0,12,13
 174 25 174 25 110 123.5 c 128,-1,14
 46 222 46 222 46 363 c 0,15,16
 46 466 46 466 80 549 c 128,-1,17
 114 632 114 632 188.5 685 c 128,-1,18
 263 738 263 738 369 738 c 0,19,20
 449 738 449 738 511.5 707.5 c 128,-1,21
 574 677 574 677 612.5 624.5 c 128,-1,22
 651 572 651 572 671 505.5 c 128,-1,23
 691 439 691 439 691 363 c 0,24,25
 691 246 691 246 642 151.5 c 128,-1,26
 593 57 593 57 493 14 c 1,27,28
 495 13 495 13 500.5 10.5 c 128,-1,29
 506 8 506 8 508 7 c 0,30,31
 829 -158 829 -158 969 -158 c 0,32,33
 1037 -158 1037 -158 1139 -127 c 1,0,-1
369 668 m 0,34,35
 320 668 320 668 281 650 c 128,-1,36
 242 632 242 632 217 602.5 c 128,-1,37
 192 573 192 573 175.5 532.5 c 128,-1,38
 159 492 159 492 152 450 c 128,-1,39
 145 408 145 408 145 362 c 0,40,41
 145 304 145 304 157 252.5 c 128,-1,42
 169 201 169 201 194 155.5 c 128,-1,43
 219 110 219 110 264 83.5 c 128,-1,44
 309 57 309 57 369 57 c 256,45,46
 429 57 429 57 474.5 83.5 c 128,-1,47
 520 110 520 110 545 155.5 c 128,-1,48
 570 201 570 201 582 253 c 128,-1,49
 594 305 594 305 594 363 c 128,-1,50
 594 421 594 421 582 473 c 128,-1,51
 570 525 570 525 545 570 c 128,-1,52
 520 615 520 615 474.5 641.5 c 128,-1,53
 429 668 429 668 369 668 c 0,34,35
EndSplineSet
EndChar
StartChar: R
Encoding: 82 82 50
Width: 591
GlyphClass: 2
Flags: W
LayerCount: 2
Back
Fore
SplineSet
599 0 m 1,0,-1
 491 0 l 1,1,-1
 303 329 l 1,2,3
 280 327 280 327 228 327 c 2,4,-1
 178 327 l 1,5,-1
 178 0 l 1,6,-1
 85 0 l 1,7,-1
 85 662 l 2,8,9
 85 663 85 663 81.5 678 c 128,-1,10
 78 693 78 693 74.5 709.5 c 128,-1,11
 71 726 71 726 71 728 c 2,12,-1
 288 728 l 2,13,14
 534 728 534 728 534 527 c 0,15,16
 534 467 534 467 493.5 415.5 c 128,-1,17
 453 364 453 364 395 346 c 1,18,-1
 599 0 l 1,0,-1
178 395 m 1,19,-1
 258 395 l 2,20,21
 341 395 341 395 389 425.5 c 128,-1,22
 437 456 437 456 437 533 c 0,23,24
 437 594 437 594 394 626.5 c 128,-1,25
 351 659 351 659 288 659 c 2,26,-1
 178 659 l 1,27,-1
 178 395 l 1,19,-1
EndSplineSet
EndChar
StartChar: S
Encoding: 83 83 51
Width: 516
GlyphClass: 2
Flags: W
LayerCount: 2
Back
Fore
SplineSet
32 42 m 1,0,-1
 68 124 l 1,1,2
 101 95 101 95 148 77.5 c 128,-1,3
 195 60 195 60 238 60 c 0,4,5
 295 60 295 60 340 92 c 128,-1,6
 385 124 385 124 385 185 c 0,7,8
 385 237 385 237 350.5 273 c 128,-1,9
 316 309 316 309 267 330.5 c 128,-1,10
 218 352 218 352 169.5 375.5 c 128,-1,11
 121 399 121 399 86.5 442 c 128,-1,12
 52 485 52 485 52 548 c 0,13,14
 52 637 52 637 120 687.5 c 128,-1,15
 188 738 188 738 280 738 c 0,16,17
 377 738 377 738 468 684 c 1,18,-1
 422 617 l 1,19,20
 352 667 352 667 279 667 c 0,21,22
 222 667 222 667 187 639 c 128,-1,23
 152 611 152 611 152 556 c 0,24,25
 152 525 152 525 170.5 500.5 c 128,-1,26
 189 476 189 476 218 459 c 128,-1,27
 247 442 247 442 282.5 426 c 128,-1,28
 318 410 318 410 354 390.5 c 128,-1,29
 390 371 390 371 419 347 c 128,-1,30
 448 323 448 323 466.5 285 c 128,-1,31
 485 247 485 247 485 198 c 0,32,33
 485 96 485 96 413 42 c 128,-1,34
 341 -12 341 -12 235 -12 c 0,35,36
 137 -12 137 -12 32 42 c 1,0,-1
EndSplineSet
EndChar
StartChar: T
Encoding: 84 84 52
Width: 578
GlyphClass: 2
Flags: W
LayerCount: 2
Back
Fore
SplineSet
335 0 m 1,0,-1
 240 0 l 1,1,-1
 240 659 l 1,2,-1
 24 659 l 1,3,-1
 24 728 l 1,4,-1
 554 728 l 1,5,-1
 554 659 l 1,6,-1
 335 659 l 1,7,-1
 335 0 l 1,0,-1
EndSplineSet
EndChar
StartChar: U
Encoding: 85 85 53
Width: 707
GlyphClass: 2
Flags: W
LayerCount: 2
Back
Fore
SplineSet
543 258 m 2,0,-1
 543 728 l 1,1,-1
 620 728 l 1,2,-1
 620 258 l 2,3,4
 620 131 620 131 549.5 59.5 c 128,-1,5
 479 -12 479 -12 351 -12 c 0,6,7
 224 -12 224 -12 155 53.5 c 128,-1,8
 86 119 86 119 86 244 c 2,9,-1
 86 662 l 1,10,-1
 71 728 l 1,11,-1
 181 728 l 1,12,-1
 181 244 l 2,13,14
 181 156 181 156 224.5 106.5 c 128,-1,15
 268 57 268 57 355 57 c 0,16,17
 446 57 446 57 494.5 111.5 c 128,-1,18
 543 166 543 166 543 258 c 2,0,-1
EndSplineSet
EndChar
StartChar: V
Encoding: 86 86 54
Width: 603
GlyphClass: 2
Flags: W
LayerCount: 2
Back
Fore
SplineSet
330 -3 m 1,0,-1
 272 -3 l 1,1,-1
 21 728 l 1,2,-1
 120 728 l 1,3,-1
 308 162 l 1,4,-1
 502 729 l 1,5,-1
 582 729 l 1,6,-1
 330 -3 l 1,0,-1
EndSplineSet
EndChar
StartChar: W
Encoding: 87 87 55
Width: 894
GlyphClass: 2
Flags: W
LayerCount: 2
Back
Fore
SplineSet
674 -5 m 1,0,-1
 597 -5 l 1,1,-1
 448 541 l 1,2,-1
 300 -5 l 1,3,-1
 223 -5 l 1,4,-1
 21 728 l 1,5,-1
 119 728 l 1,6,-1
 270 170 l 1,7,-1
 420 728 l 1,8,-1
 494 728 l 1,9,-1
 644 170 l 1,10,-1
 795 728 l 1,11,-1
 873 728 l 1,12,-1
 674 -5 l 1,0,-1
EndSplineSet
EndChar
StartChar: X
Encoding: 88 88 56
Width: 585
GlyphClass: 2
Flags: W
LayerCount: 2
Back
Fore
SplineSet
573 0 m 1,0,-1
 464 0 l 1,1,-1
 285 300 l 1,2,-1
 98 0 l 1,3,-1
 12 0 l 1,4,-1
 243 372 l 1,5,-1
 31 728 l 1,6,-1
 138 728 l 1,7,-1
 298 461 l 1,8,-1
 464 728 l 1,9,-1
 551 728 l 1,10,-1
 339 391 l 1,11,-1
 573 0 l 1,0,-1
EndSplineSet
EndChar
StartChar: Z
Encoding: 90 90 58
Width: 571
GlyphClass: 2
Flags: W
LayerCount: 2
Back
Fore
SplineSet
529 0 m 1,0,-1
 35 0 l 1,1,-1
 35 67 l 1,2,-1
 413 659 l 1,3,-1
 57 659 l 1,4,-1
 57 728 l 1,5,-1
 524 728 l 1,6,-1
 524 661 l 1,7,-1
 146 69 l 1,8,-1
 537 69 l 1,9,-1
 529 0 l 1,0,-1
EndSplineSet
EndChar
StartChar: bracketleft
Encoding: 91 91 59
Width: 351
GlyphClass: 2
Flags: W
LayerCount: 2
Back
Fore
SplineSet
280 -128 m 1,0,-1
 72 -128 l 1,1,-1
 72 730 l 1,2,-1
 280 730 l 1,3,-1
 280 681 l 1,4,-1
 153 681 l 1,5,-1
 153 -79 l 1,6,-1
 280 -79 l 1,7,-1
 280 -128 l 1,0,-1
EndSplineSet
EndChar
StartChar: backslash
Encoding: 92 92 60
Width: 326
GlyphClass: 2
Flags: W
LayerCount: 2
Back
Fore
SplineSet
329 0 m 1,0,-1
 262 0 l 1,1,-1
 -3 728 l 1,2,-1
 66 728 l 1,3,-1
 329 0 l 1,0,-1
EndSplineSet
EndChar
StartChar: bracketright
Encoding: 93 93 61
Width: 350
GlyphClass: 2
Flags: W
LayerCount: 2
Back
Fore
SplineSet
279 -127 m 1,0,-1
 72 -127 l 1,1,-1
 72 -78 l 1,2,-1
 198 -78 l 1,3,-1
 198 681 l 1,4,-1
 71 681 l 1,5,-1
 71 730 l 1,6,-1
 279 730 l 1,7,-1
 279 -127 l 1,0,-1
EndSplineSet
EndChar
StartChar: asciicircum
Encoding: 94 94 62
Width: 618
GlyphClass: 2
Flags: W
LayerCount: 2
Back
Fore
SplineSet
562 0 m 1,0,-1
 486 0 l 1,1,-1
 309 405 l 1,2,-1
 133 0 l 1,3,-1
 56 0 l 1,4,-1
 271 497 l 1,5,-1
 345 497 l 1,6,-1
 562 0 l 1,0,-1
EndSplineSet
EndChar
StartChar: underscore
Encoding: 95 95 63
Width: 499
GlyphClass: 2
Flags: W
LayerCount: 2
Back
Fore
SplineSet
509 -126 m 1,0,-1
 -9 -126 l 1,1,-1
 -9 -66 l 1,2,-1
 509 -66 l 1,3,-1
 509 -126 l 1,0,-1
EndSplineSet
EndChar
StartChar: grave
Encoding: 96 96 64
Width: 281
GlyphClass: 2
Flags: W
LayerCount: 2
Back
Fore
SplineSet
249 576 m 1,0,-1
 171 576 l 1,1,-1
 31 728 l 1,2,-1
 154 728 l 1,3,-1
 249 576 l 1,0,-1
EndSplineSet
EndChar
StartChar: a
Encoding: 97 97 65
Width: 494
GlyphClass: 2
Flags: W
LayerCount: 2
Back
Fore
SplineSet
481 73 m 1,0,-1
 498 21 l 1,1,2
 491 18 491 18 475.5 11.5 c 128,-1,3
 460 5 460 5 450.5 1.5 c 128,-1,4
 441 -2 441 -2 427 -5.5 c 128,-1,5
 413 -9 413 -9 402 -9 c 0,6,7
 373 -9 373 -9 354.5 10 c 128,-1,8
 336 29 336 29 331 59 c 1,9,10
 264 -11 264 -11 181 -11 c 0,11,12
 121 -11 121 -11 82.5 24.5 c 128,-1,13
 44 60 44 60 44 120 c 0,14,15
 44 289 44 289 329 291 c 1,16,-1
 329 344 l 2,17,18
 329 444 329 444 246 444 c 0,19,20
 207 444 207 444 167 428 c 128,-1,21
 127 412 127 412 103 385 c 1,22,-1
 62 444 l 1,23,24
 143 509 143 509 253 509 c 0,25,26
 331 509 331 509 371.5 466.5 c 128,-1,27
 412 424 412 424 412 345 c 2,28,-1
 412 97 l 2,29,30
 412 77 412 77 416.5 68 c 128,-1,31
 421 59 421 59 434 59 c 0,32,33
 446 59 446 59 481 73 c 1,0,-1
329 194 m 2,34,-1
 329 226 l 1,35,36
 292 226 292 226 265.5 223.5 c 128,-1,37
 239 221 239 221 203.5 212 c 128,-1,38
 168 203 168 203 148.5 180.5 c 128,-1,39
 129 158 129 158 129 123 c 0,40,41
 129 91 129 91 150.5 75 c 128,-1,42
 172 59 172 59 208 59 c 0,43,44
 259 59 259 59 294 100.5 c 128,-1,45
 329 142 329 142 329 194 c 2,34,-1
EndSplineSet
EndChar
StartChar: b
Encoding: 98 98 66
Width: 558
GlyphClass: 2
Flags: W
LayerCount: 2
Back
Fore
SplineSet
129 -1 m 1,0,-1
 79 -1 l 1,1,-1
 82 68 l 1,2,-1
 82 704 l 2,3,4
 82 705 82 705 78.5 718.5 c 128,-1,5
 75 732 75 732 71.5 746 c 128,-1,6
 68 760 68 760 68 762 c 2,7,-1
 165 762 l 1,8,-1
 165 452 l 1,9,10
 226 507 226 507 305 507 c 0,11,12
 403 507 403 507 457.5 430 c 128,-1,13
 512 353 512 353 512 251 c 0,14,15
 512 181 512 181 489 122.5 c 128,-1,16
 466 64 466 64 415 25.5 c 128,-1,17
 364 -13 364 -13 293 -13 c 0,18,19
 201 -13 201 -13 147 51 c 1,20,-1
 129 -1 l 1,0,-1
165 381 m 1,21,-1
 165 199 l 2,22,23
 165 131 165 131 195 90 c 128,-1,24
 225 49 225 49 290 49 c 0,25,26
 337 49 337 49 368.5 83.5 c 128,-1,27
 400 118 400 118 411.5 160.5 c 128,-1,28
 423 203 423 203 423 248 c 0,29,30
 423 323 423 323 388.5 379.5 c 128,-1,31
 354 436 354 436 284 436 c 0,32,33
 217 436 217 436 165 381 c 1,21,-1
EndSplineSet
EndChar
StartChar: c
Encoding: 99 99 67
Width: 450
GlyphClass: 2
Flags: W
LayerCount: 2
Back
Fore
SplineSet
395 100 m 1,0,-1
 433 37 l 1,1,2
 386 9 386 9 352.5 -2 c 128,-1,3
 319 -13 319 -13 269 -13 c 0,4,5
 169 -13 169 -13 106.5 66.5 c 128,-1,6
 44 146 44 146 44 248 c 0,7,8
 44 361 44 361 107.5 435 c 128,-1,9
 171 509 171 509 282 509 c 0,10,11
 359 509 359 509 426 458 c 1,12,-1
 381 400 l 1,13,14
 352 425 352 425 328.5 434.5 c 128,-1,15
 305 444 305 444 269 444 c 0,16,17
 204 444 204 444 168.5 385 c 128,-1,18
 133 326 133 326 133 257 c 0,19,20
 133 211 133 211 146.5 167.5 c 128,-1,21
 160 124 160 124 193.5 90 c 128,-1,22
 227 56 227 56 274 56 c 0,23,24
 310 56 310 56 335 66 c 128,-1,25
 360 76 360 76 395 100 c 1,0,-1
EndSplineSet
EndChar
StartChar: d
Encoding: 100 100 68
Width: 558
GlyphClass: 2
Flags: W
LayerCount: 2
Back
Fore
SplineSet
505 2 m 1,0,-1
 417 -9 l 1,1,2
 403 22 403 22 398 59 c 1,3,4
 342 -13 342 -13 251 -13 c 0,5,6
 153 -13 153 -13 99 64 c 128,-1,7
 45 141 45 141 45 244 c 0,8,9
 45 354 45 354 102.5 431 c 128,-1,10
 160 508 160 508 267 508 c 0,11,12
 344 508 344 508 392 464 c 1,13,-1
 392 703 l 1,14,-1
 378 762 l 1,15,-1
 474 762 l 1,16,-1
 474 143 l 2,17,18
 474 54 474 54 505 2 c 1,0,-1
392 126 m 1,19,-1
 392 294 l 2,20,21
 392 358 392 358 361.5 399 c 128,-1,22
 331 440 331 440 269 440 c 0,23,24
 231 440 231 440 203.5 423 c 128,-1,25
 176 406 176 406 161.5 377.5 c 128,-1,26
 147 349 147 349 140 317.5 c 128,-1,27
 133 286 133 286 133 250 c 0,28,29
 133 172 133 172 168 116 c 128,-1,30
 203 60 203 60 276 60 c 0,31,32
 334 60 334 60 392 126 c 1,19,-1
EndSplineSet
EndChar
StartChar: e
Encoding: 101 101 69
Width: 494
GlyphClass: 2
Flags: W
LayerCount: 2
Back
Fore
SplineSet
406 103 m 1,0,-1
 443 43 l 1,1,2
 374 -13 374 -13 275 -13 c 0,3,4
 167 -13 167 -13 105.5 59.5 c 128,-1,5
 44 132 44 132 44 243 c 0,6,7
 44 311 44 311 66.5 370 c 128,-1,8
 89 429 89 429 139.5 469 c 128,-1,9
 190 509 190 509 260 509 c 0,10,11
 347 509 347 509 400 457.5 c 128,-1,12
 453 406 453 406 453 320 c 0,13,14
 453 256 453 256 402 256 c 2,15,-1
 132 256 l 1,16,-1
 132 246 l 2,17,18
 132 174 132 174 170.5 115.5 c 128,-1,19
 209 57 209 57 277 57 c 0,20,21
 310 57 310 57 346 69.5 c 128,-1,22
 382 82 382 82 406 103 c 1,0,-1
138 318 m 1,23,-1
 347 318 l 2,24,25
 358 318 358 318 361 322.5 c 128,-1,26
 364 327 364 327 364 339 c 0,27,28
 364 384 364 384 338 415 c 128,-1,29
 312 446 312 446 268 446 c 0,30,31
 220 446 220 446 183.5 407 c 128,-1,32
 147 368 147 368 138 318 c 1,23,-1
EndSplineSet
EndChar
StartChar: f
Encoding: 102 102 70
Width: 288
GlyphClass: 2
Flags: W
LayerCount: 2
Back
Fore
SplineSet
177 0 m 1,0,-1
 95 0 l 1,1,-1
 95 435 l 1,2,-1
 20 435 l 1,3,-1
 20 487 l 2,4,5
 23 487 23 487 37.5 488.5 c 128,-1,6
 52 490 52 490 58.5 491.5 c 128,-1,7
 65 493 65 493 71.5 495.5 c 128,-1,8
 78 498 78 498 83.5 502.5 c 128,-1,9
 89 507 89 507 92 513 c 128,-1,10
 95 519 95 519 97 527 c 0,11,12
 100 539 100 539 108 590 c 0,13,14
 123 671 123 671 173 720.5 c 128,-1,15
 223 770 223 770 303 770 c 0,16,17
 356 770 356 770 400 745 c 1,18,-1
 377 683 l 1,19,20
 349 708 349 708 305 708 c 0,21,22
 264 708 264 708 236.5 688.5 c 128,-1,23
 209 669 209 669 197 634 c 128,-1,24
 185 599 185 599 181 568 c 128,-1,25
 177 537 177 537 177 497 c 1,26,-1
 320 497 l 1,27,-1
 302 435 l 1,28,-1
 177 435 l 1,29,-1
 177 0 l 1,0,-1
EndSplineSet
EndChar
StartChar: g
Encoding: 103 103 71
Width: 478
GlyphClass: 2
Flags: W
LayerCount: 2
Back
Fore
SplineSet
471 438 m 1,0,-1
 364 438 l 1,1,2
 397 395 397 395 397 337 c 0,3,4
 397 265 397 265 345 214.5 c 128,-1,5
 293 164 293 164 221 164 c 0,6,7
 214 164 214 164 201.5 166 c 128,-1,8
 189 168 189 168 183 168 c 0,9,10
 169 168 169 168 156 148.5 c 128,-1,11
 143 129 143 129 143 113 c 0,12,13
 143 96 143 96 153.5 87 c 128,-1,14
 164 78 164 78 174.5 77 c 128,-1,15
 185 76 185 76 204 76 c 0,16,17
 220 76 220 76 253 77.5 c 128,-1,18
 286 79 286 79 301 79 c 0,19,20
 457 79 457 79 457 -26 c 0,21,22
 457 -129 457 -129 381.5 -179.5 c 128,-1,23
 306 -230 306 -230 200 -230 c 0,24,25
 132 -230 132 -230 76.5 -199 c 128,-1,26
 21 -168 21 -168 21 -104 c 0,27,28
 21 -39 21 -39 98 14 c 1,29,30
 52 37 52 37 52 87 c 0,31,32
 52 90 52 90 64 108 c 0,33,34
 105 164 105 164 121 194 c 1,35,36
 85 218 85 218 64.5 256 c 128,-1,37
 44 294 44 294 44 336 c 0,38,39
 44 408 44 408 96 458.5 c 128,-1,40
 148 509 148 509 220 509 c 0,41,42
 239 509 239 509 275.5 502 c 128,-1,43
 312 495 312 495 330 495 c 0,44,45
 380 495 380 495 489 510 c 1,46,-1
 471 438 l 1,0,-1
220 224 m 0,47,48
 257 224 257 224 283.5 256.5 c 128,-1,49
 310 289 310 289 310 336 c 128,-1,50
 310 383 310 383 283.5 416 c 128,-1,51
 257 449 257 449 221 449 c 0,52,53
 184 449 184 449 157.5 416.5 c 128,-1,54
 131 384 131 384 131 337 c 128,-1,55
 131 290 131 290 157.5 257 c 128,-1,56
 184 224 184 224 220 224 c 0,47,48
158 -3 m 1,57,58
 137 -18 137 -18 122 -41.5 c 128,-1,59
 107 -65 107 -65 107 -87 c 0,60,61
 107 -121 107 -121 142 -141.5 c 128,-1,62
 177 -162 177 -162 215 -162 c 0,63,64
 279 -162 279 -162 329.5 -136 c 128,-1,65
 380 -110 380 -110 380 -55 c 0,66,67
 380 -37 380 -37 371 -25 c 128,-1,68
 362 -13 362 -13 345 -8 c 128,-1,69
 328 -3 328 -3 313.5 -1.5 c 128,-1,70
 299 0 299 0 278 0 c 0,71,72
 218 0 218 0 158 -3 c 1,57,58
EndSplineSet
EndChar
StartChar: h
Encoding: 104 104 72
Width: 547
GlyphClass: 2
Flags: W
LayerCount: 2
Back
Fore
SplineSet
466 0 m 1,0,-1
 384 0 l 1,1,-1
 384 306 l 2,2,3
 384 335 384 335 382 353 c 128,-1,4
 380 371 380 371 372.5 392.5 c 128,-1,5
 365 414 365 414 347 425 c 128,-1,6
 329 436 329 436 301 436 c 0,7,8
 243 436 243 436 164 370 c 1,9,-1
 164 0 l 1,10,-1
 82 0 l 1,11,-1
 82 703 l 2,12,13
 82 704 82 704 79 717.5 c 128,-1,14
 76 731 76 731 72.5 745.5 c 128,-1,15
 69 760 69 760 69 762 c 2,16,-1
 164 762 l 1,17,-1
 164 438 l 1,18,19
 240 510 240 510 315 510 c 0,20,21
 466 510 466 510 466 333 c 2,22,-1
 466 0 l 1,0,-1
EndSplineSet
EndChar
StartChar: i
Encoding: 105 105 73
Width: 251
GlyphClass: 2
Flags: W
LayerCount: 2
Back
Fore
SplineSet
185 664 m 0,0,1
 185 638 185 638 167.5 620.5 c 128,-1,2
 150 603 150 603 124 603 c 0,3,4
 99 603 99 603 81.5 621 c 128,-1,5
 64 639 64 639 64 664 c 128,-1,6
 64 689 64 689 81.5 707 c 128,-1,7
 99 725 99 725 124 725 c 256,8,9
 149 725 149 725 167 707 c 128,-1,10
 185 689 185 689 185 664 c 0,0,1
167 0 m 1,11,-1
 84 0 l 1,12,-1
 84 438 l 2,13,14
 84 439 84 439 81 452.5 c 128,-1,15
 78 466 78 466 75 480.5 c 128,-1,16
 72 495 72 495 72 497 c 2,17,-1
 167 497 l 1,18,-1
 167 0 l 1,11,-1
EndSplineSet
EndChar
StartChar: j
Encoding: 106 106 74
Width: 251
GlyphClass: 2
Flags: W
LayerCount: 2
Back
Fore
SplineSet
187 664 m 0,0,1
 187 638 187 638 169.5 620.5 c 128,-1,2
 152 603 152 603 126 603 c 256,3,4
 100 603 100 603 82.5 620.5 c 128,-1,5
 65 638 65 638 65 664 c 0,6,7
 65 689 65 689 83 707 c 128,-1,8
 101 725 101 725 126 725 c 256,9,10
 151 725 151 725 169 707 c 128,-1,11
 187 689 187 689 187 664 c 0,0,1
25 -228 m 1,12,-1
 11 -188 l 1,13,14
 32 -177 32 -177 46.5 -158.5 c 128,-1,15
 61 -140 61 -140 68.5 -122.5 c 128,-1,16
 76 -105 76 -105 79.5 -77 c 128,-1,17
 83 -49 83 -49 83.5 -33 c 128,-1,18
 84 -17 84 -17 84 13 c 2,19,-1
 84 438 l 2,20,21
 84 439 84 439 81 452.5 c 128,-1,22
 78 466 78 466 74.5 480.5 c 128,-1,23
 71 495 71 495 71 497 c 2,24,-1
 167 497 l 1,25,-1
 167 25 l 2,26,27
 167 -209 167 -209 25 -228 c 1,12,-1
EndSplineSet
EndChar
StartChar: k
Encoding: 107 107 75
Width: 465
GlyphClass: 2
Flags: W
LayerCount: 2
Back
Fore
SplineSet
466 0 m 1,0,-1
 367 0 l 1,1,-1
 164 270 l 1,2,-1
 164 0 l 1,3,-1
 81 0 l 1,4,-1
 81 703 l 2,5,6
 81 704 81 704 78 717.5 c 128,-1,7
 75 731 75 731 71.5 745.5 c 128,-1,8
 68 760 68 760 68 762 c 2,9,-1
 164 762 l 1,10,-1
 164 292 l 1,11,-1
 350 497 l 1,12,-1
 439 497 l 1,13,-1
 248 288 l 1,14,-1
 466 0 l 1,0,-1
EndSplineSet
EndChar
StartChar: l
Encoding: 108 108 76
Width: 251
GlyphClass: 2
Flags: W
LayerCount: 2
Back
Fore
SplineSet
167 0 m 1,0,-1
 84 0 l 1,1,-1
 84 704 l 2,2,3
 84 705 84 705 81 718 c 128,-1,4
 78 731 78 731 74.5 745.5 c 128,-1,5
 71 760 71 760 71 762 c 2,6,-1
 167 762 l 1,7,-1
 167 0 l 1,0,-1
EndSplineSet
EndChar
StartChar: m
Encoding: 109 109 77
Width: 829
GlyphClass: 2
Flags: W
LayerCount: 2
Back
Fore
SplineSet
747 0 m 1,0,-1
 664 0 l 1,1,-1
 664 305 l 2,2,3
 664 332 664 332 661.5 351 c 128,-1,4
 659 370 659 370 651.5 391.5 c 128,-1,5
 644 413 644 413 626 424 c 128,-1,6
 608 435 608 435 581 435 c 0,7,8
 525 435 525 435 453 367 c 1,9,10
 455 347 455 347 455 332 c 2,11,-1
 455 0 l 1,12,-1
 372 0 l 1,13,-1
 372 305 l 2,14,15
 372 333 372 333 370 352 c 128,-1,16
 368 371 368 371 360 392 c 128,-1,17
 352 413 352 413 334.5 424 c 128,-1,18
 317 435 317 435 289 435 c 0,19,20
 236 435 236 435 163 369 c 1,21,-1
 163 0 l 1,22,-1
 80 0 l 1,23,-1
 80 361 l 2,24,25
 80 442 80 442 48 494 c 1,26,-1
 139 504 l 1,27,28
 153 470 153 470 158 435 c 1,29,30
 234 509 234 509 303 509 c 0,31,32
 400 509 400 509 440 426 c 1,33,34
 523 509 523 509 595 509 c 0,35,36
 674 509 674 509 710.5 461.5 c 128,-1,37
 747 414 747 414 747 332 c 2,38,-1
 747 0 l 1,0,-1
EndSplineSet
EndChar
StartChar: n
Encoding: 110 110 78
Width: 547
GlyphClass: 2
Flags: W
LayerCount: 2
Back
Fore
SplineSet
464 0 m 1,0,-1
 382 0 l 1,1,-1
 382 305 l 2,2,3
 382 328 382 328 381 343 c 128,-1,4
 380 358 380 358 375.5 377 c 128,-1,5
 371 396 371 396 362.5 407.5 c 128,-1,6
 354 419 354 419 337.5 427 c 128,-1,7
 321 435 321 435 298 435 c 0,8,9
 232 435 232 435 162 369 c 1,10,-1
 162 0 l 1,11,-1
 80 0 l 1,12,-1
 80 352 l 2,13,14
 80 448 80 448 47 493 c 1,15,-1
 138 505 l 1,16,17
 153 467 153 467 157 434 c 1,18,19
 232 509 232 509 312 509 c 0,20,21
 391 509 391 509 427.5 461.5 c 128,-1,22
 464 414 464 414 464 332 c 2,23,-1
 464 0 l 1,0,-1
EndSplineSet
EndChar
StartChar: o
Encoding: 111 111 79
Width: 536
GlyphClass: 2
Flags: W
LayerCount: 2
Back
Fore
SplineSet
268 -13 m 0,0,1
 163 -13 163 -13 103.5 63.5 c 128,-1,2
 44 140 44 140 44 248 c 0,3,4
 44 355 44 355 104 432 c 128,-1,5
 164 509 164 509 268 509 c 0,6,7
 374 509 374 509 433.5 433 c 128,-1,8
 493 357 493 357 493 248 c 128,-1,9
 493 139 493 139 433.5 63 c 128,-1,10
 374 -13 374 -13 268 -13 c 0,0,1
268 50 m 0,11,12
 317 50 317 50 349.5 83 c 128,-1,13
 382 116 382 116 393.5 158.5 c 128,-1,14
 405 201 405 201 405 248 c 128,-1,15
 405 295 405 295 393 337.5 c 128,-1,16
 381 380 381 380 348.5 413 c 128,-1,17
 316 446 316 446 268 446 c 256,18,19
 220 446 220 446 187.5 413 c 128,-1,20
 155 380 155 380 143.5 337.5 c 128,-1,21
 132 295 132 295 132 248 c 0,22,23
 132 204 132 204 145 161 c 128,-1,24
 158 118 158 118 190.5 84 c 128,-1,25
 223 50 223 50 268 50 c 0,11,12
EndSplineSet
EndChar
StartChar: p
Encoding: 112 112 80
Width: 556
GlyphClass: 2
Flags: W
LayerCount: 2
Back
Fore
SplineSet
177 -216 m 1,0,-1
 81 -216 l 1,1,-1
 81 352 l 2,2,3
 81 444 81 444 50 493 c 1,4,-1
 138 504 l 1,5,6
 152 473 152 473 157 436 c 1,7,8
 214 508 214 508 303 508 c 0,9,10
 402 508 402 508 456 431 c 128,-1,11
 510 354 510 354 510 251 c 0,12,13
 510 141 510 141 452 64 c 128,-1,14
 394 -13 394 -13 287 -13 c 0,15,16
 210 -13 210 -13 163 31 c 1,17,-1
 163 -157 l 1,18,-1
 177 -216 l 1,0,-1
163 369 m 1,19,-1
 163 201 l 2,20,21
 163 137 163 137 193 96 c 128,-1,22
 223 55 223 55 285 55 c 0,23,24
 323 55 323 55 350.5 72 c 128,-1,25
 378 89 378 89 393 117.5 c 128,-1,26
 408 146 408 146 415 178 c 128,-1,27
 422 210 422 210 422 245 c 0,28,29
 422 323 422 323 387 379 c 128,-1,30
 352 435 352 435 278 435 c 0,31,32
 219 435 219 435 163 369 c 1,19,-1
EndSplineSet
EndChar
StartChar: q
Encoding: 113 113 81
Width: 556
GlyphClass: 2
Flags: W
LayerCount: 2
Back
Fore
SplineSet
487 -216 m 2,0,-1
 391 -216 l 1,1,-1
 391 43 l 1,2,3
 332 -12 332 -12 251 -12 c 0,4,5
 185 -12 185 -12 136.5 27.5 c 128,-1,6
 88 67 88 67 66 124 c 128,-1,7
 44 181 44 181 44 245 c 0,8,9
 44 355 44 355 100.5 432 c 128,-1,10
 157 509 157 509 262 509 c 0,11,12
 356 509 356 509 409 444 c 1,13,-1
 427 497 l 1,14,-1
 477 497 l 1,15,-1
 474 428 l 1,16,-1
 474 -157 l 2,17,18
 474 -158 474 -158 477 -171.5 c 128,-1,19
 480 -185 480 -185 483.5 -199.5 c 128,-1,20
 487 -214 487 -214 487 -216 c 2,0,-1
391 115 m 1,21,-1
 391 296 l 2,22,23
 391 364 391 364 361 405 c 128,-1,24
 331 446 331 446 266 446 c 0,25,26
 219 446 219 446 187.5 412 c 128,-1,27
 156 378 156 378 144.5 335.5 c 128,-1,28
 133 293 133 293 133 248 c 0,29,30
 133 173 133 173 167.5 116.5 c 128,-1,31
 202 60 202 60 272 60 c 0,32,33
 304 60 304 60 337 75 c 128,-1,34
 370 90 370 90 391 115 c 1,21,-1
EndSplineSet
EndChar
StartChar: r
Encoding: 114 114 82
Width: 349
GlyphClass: 2
Flags: W
LayerCount: 2
Back
Fore
SplineSet
164 0 m 1,0,-1
 81 0 l 1,1,-1
 81 360 l 2,2,3
 81 448 81 448 49 495 c 1,4,-1
 139 506 l 1,5,6
 157 462 157 462 162 413 c 1,7,8
 189 455 189 455 233 480.5 c 128,-1,9
 277 506 277 506 325 506 c 1,10,-1
 305 418 l 1,11,12
 224 418 224 418 164 330 c 1,13,-1
 164 0 l 1,0,-1
EndSplineSet
EndChar
StartChar: s
Encoding: 115 115 83
Width: 430
GlyphClass: 2
Flags: W
LayerCount: 2
Back
Fore
SplineSet
51 29 m 1,0,-1
 86 90 l 1,1,2
 144 50 144 50 192 50 c 0,3,4
 233 50 233 50 263 66 c 128,-1,5
 293 82 293 82 293 120 c 0,6,7
 293 150 293 150 269 172.5 c 128,-1,8
 245 195 245 195 210.5 211 c 128,-1,9
 176 227 176 227 142 244.5 c 128,-1,10
 108 262 108 262 84 292 c 128,-1,11
 60 322 60 322 60 364 c 0,12,13
 60 434 60 434 111 471.5 c 128,-1,14
 162 509 162 509 235 509 c 0,15,16
 311 509 311 509 368 474 c 1,17,-1
 339 410 l 1,18,19
 292 446 292 446 244 446 c 0,20,21
 205 446 205 446 175 430 c 128,-1,22
 145 414 145 414 145 378 c 0,23,24
 145 348 145 348 169 325.5 c 128,-1,25
 193 303 193 303 227.5 287.5 c 128,-1,26
 262 272 262 272 296.5 254.5 c 128,-1,27
 331 237 331 237 355 206 c 128,-1,28
 379 175 379 175 379 132 c 0,29,30
 379 58 379 58 328.5 22.5 c 128,-1,31
 278 -13 278 -13 200 -13 c 0,32,33
 133 -13 133 -13 51 29 c 1,0,-1
EndSplineSet
EndChar
StartChar: t
Encoding: 116 116 84
Width: 327
GlyphClass: 2
Flags: W
LayerCount: 2
Back
Fore
SplineSet
293 63 m 1,0,-1
 307 7 l 1,1,2
 248 -11 248 -11 208 -11 c 0,3,4
 147 -11 147 -11 120.5 21.5 c 128,-1,5
 94 54 94 54 94 118 c 2,6,-1
 94 434 l 1,7,-1
 20 434 l 1,8,-1
 20 484 l 1,9,10
 107 486 107 486 136 639 c 1,11,-1
 199 639 l 1,12,13
 177 549 177 549 177 497 c 1,14,-1
 307 497 l 1,15,-1
 289 434 l 1,16,-1
 177 434 l 1,17,-1
 177 116 l 2,18,19
 177 84 177 84 188.5 68.5 c 128,-1,20
 200 53 200 53 230 53 c 0,21,22
 253 53 253 53 293 63 c 1,0,-1
EndSplineSet
EndChar
StartChar: u
Encoding: 117 117 85
Width: 553
GlyphClass: 2
Flags: W
LayerCount: 2
Back
Fore
SplineSet
534 73 m 1,0,-1
 551 21 l 1,1,2
 544 18 544 18 528.5 11.5 c 128,-1,3
 513 5 513 5 503.5 1.5 c 128,-1,4
 494 -2 494 -2 480 -5.5 c 128,-1,5
 466 -9 466 -9 455 -9 c 0,6,7
 426 -9 426 -9 408 10 c 128,-1,8
 390 29 390 29 385 59 c 1,9,10
 315 -13 315 -13 232 -13 c 0,11,12
 153 -13 153 -13 116.5 34.5 c 128,-1,13
 80 82 80 82 80 164 c 2,14,-1
 80 438 l 2,15,16
 80 439 80 439 77 452.5 c 128,-1,17
 74 466 74 466 70.5 480.5 c 128,-1,18
 67 495 67 495 67 497 c 2,19,-1
 163 497 l 1,20,-1
 163 191 l 2,21,22
 163 164 163 164 165.5 145 c 128,-1,23
 168 126 168 126 175.5 105 c 128,-1,24
 183 84 183 84 201 72.5 c 128,-1,25
 219 61 219 61 246 61 c 0,26,27
 302 61 302 61 342 96.5 c 128,-1,28
 382 132 382 132 382 188 c 2,29,-1
 382 438 l 2,30,31
 382 439 382 439 379 452.5 c 128,-1,32
 376 466 376 466 372.5 480.5 c 128,-1,33
 369 495 369 495 369 497 c 2,34,-1
 465 497 l 1,35,-1
 465 97 l 2,36,37
 465 77 465 77 469.5 68 c 128,-1,38
 474 59 474 59 487 59 c 0,39,40
 499 59 499 59 534 73 c 1,0,-1
EndSplineSet
EndChar
StartChar: v
Encoding: 118 118 86
Width: 455
GlyphClass: 2
Flags: W
LayerCount: 2
Back
Fore
SplineSet
265 -6 m 1,0,-1
 189 -6 l 1,1,-1
 12 497 l 1,2,-1
 100 497 l 1,3,-1
 233 119 l 1,4,-1
 365 497 l 1,5,-1
 443 497 l 1,6,-1
 265 -6 l 1,0,-1
EndSplineSet
EndChar
StartChar: w
Encoding: 119 119 87
Width: 658
GlyphClass: 2
Flags: W
LayerCount: 2
Back
Fore
SplineSet
489 -6 m 1,0,-1
 429 -6 l 1,1,-1
 328 338 l 1,2,-1
 221 -6 l 1,3,-1
 160 -6 l 1,4,-1
 13 497 l 1,5,-1
 99 497 l 1,6,-1
 200 157 l 1,7,-1
 306 497 l 1,8,-1
 365 497 l 1,9,-1
 467 157 l 1,10,-1
 572 497 l 1,11,-1
 646 497 l 1,12,-1
 489 -6 l 1,0,-1
EndSplineSet
EndChar
StartChar: x
Encoding: 120 120 88
Width: 446
GlyphClass: 2
Flags: W
LayerCount: 2
Back
Fore
SplineSet
436 -1 m 1,0,-1
 341 -1 l 1,1,-1
 218 192 l 1,2,-1
 92 -1 l 1,3,-1
 10 -1 l 1,4,-1
 176 254 l 1,5,-1
 21 497 l 1,6,-1
 116 497 l 1,7,-1
 225 325 l 1,8,-1
 340 497 l 1,9,-1
 421 497 l 1,10,-1
 267 263 l 1,11,-1
 436 -1 l 1,0,-1
EndSplineSet
EndChar
StartChar: y
Encoding: 121 121 89
Width: 456
GlyphClass: 2
Flags: W
LayerCount: 2
Back
Fore
SplineSet
76 -217 m 2,0,-1
 38 -217 l 1,1,-1
 38 -150 l 1,2,-1
 49 -150 l 2,3,4
 79 -150 79 -150 103 -136.5 c 128,-1,5
 127 -123 127 -123 144.5 -97 c 128,-1,6
 162 -71 162 -71 172.5 -49 c 128,-1,7
 183 -27 183 -27 194 4 c 1,8,-1
 12 497 l 1,9,-1
 102 497 l 1,10,-1
 234 119 l 1,11,-1
 366 497 l 1,12,-1
 444 497 l 1,13,-1
 268 -2 l 2,14,15
 191 -217 191 -217 76 -217 c 2,0,-1
EndSplineSet
EndChar
StartChar: z
Encoding: 122 122 90
Width: 445
GlyphClass: 2
Flags: W
LayerCount: 2
Back
Fore
SplineSet
402 0 m 1,0,-1
 32 0 l 1,1,-1
 32 47 l 1,2,-1
 289 433 l 1,3,-1
 55 433 l 1,4,-1
 55 497 l 1,5,-1
 401 497 l 1,6,-1
 401 449 l 1,7,-1
 143 63 l 1,8,-1
 413 63 l 1,9,-1
 402 0 l 1,0,-1
EndSplineSet
EndChar
StartChar: braceleft
Encoding: 123 123 91
Width: 349
GlyphClass: 2
Flags: W
LayerCount: 2
Back
Fore
SplineSet
292 -135 m 1,0,-1
 267 -135 l 2,1,2
 122 -135 122 -135 122 28 c 2,3,-1
 122 192 l 2,4,5
 122 228 122 228 107 253 c 128,-1,6
 92 278 92 278 58 278 c 1,7,-1
 58 323 l 1,8,9
 122 323 122 323 122 420 c 2,10,-1
 122 573 l 2,11,12
 122 736 122 736 270 736 c 2,13,-1
 292 736 l 1,14,-1
 292 689 l 1,15,16
 237 689 237 689 220 672 c 128,-1,17
 203 655 203 655 203 601 c 2,18,-1
 203 431 l 2,19,20
 203 323 203 323 137 300 c 1,21,22
 203 277 203 277 203 170 c 2,23,-1
 203 -8 l 2,24,25
 203 -57 203 -57 222 -72.5 c 128,-1,26
 241 -88 241 -88 292 -88 c 1,27,-1
 292 -135 l 1,0,-1
EndSplineSet
EndChar
StartChar: bar
Encoding: 124 124 92
Width: 235
GlyphClass: 2
Flags: W
LayerCount: 2
Back
Fore
SplineSet
153 -107 m 1,0,-1
 82 -107 l 1,1,-1
 82 748 l 1,2,-1
 153 748 l 1,3,-1
 153 -107 l 1,0,-1
EndSplineSet
EndChar
StartChar: braceright
Encoding: 125 125 93
Width: 349
GlyphClass: 2
Flags: W
LayerCount: 2
Back
Fore
SplineSet
80 -135 m 2,0,-1
 58 -135 l 1,1,-1
 58 -88 l 1,2,3
 112 -88 112 -88 129 -70.5 c 128,-1,4
 146 -53 146 -53 146 0 c 2,5,-1
 146 170 l 2,6,7
 146 277 146 277 212 300 c 1,8,9
 146 323 146 323 146 431 c 2,10,-1
 146 609 l 2,11,12
 146 657 146 657 127 673 c 128,-1,13
 108 689 108 689 58 689 c 1,14,-1
 58 736 l 1,15,-1
 65 736 l 2,16,17
 150 736 150 736 188.5 698 c 128,-1,18
 227 660 227 660 227 573 c 2,19,-1
 227 409 l 2,20,21
 227 373 227 373 242.5 348 c 128,-1,22
 258 323 258 323 292 323 c 1,23,-1
 292 278 l 1,24,25
 227 278 227 278 227 181 c 2,26,-1
 227 28 l 2,27,28
 227 -135 227 -135 80 -135 c 2,0,-1
EndSplineSet
EndChar
StartChar: asciitilde
Encoding: 126 126 94
Width: 663
GlyphClass: 2
Flags: W
LayerCount: 2
Back
Fore
SplineSet
527 345 m 1,0,-1
 579 298 l 1,1,2
 555 260 555 260 515 231 c 128,-1,3
 475 202 475 202 436 202 c 0,4,5
 396 202 396 202 327.5 236.5 c 128,-1,6
 259 271 259 271 221 271 c 0,7,8
 195 271 195 271 172.5 250 c 128,-1,9
 150 229 150 229 137 201 c 1,10,-1
 84 245 l 1,11,12
 103 287 103 287 140.5 316.5 c 128,-1,13
 178 346 178 346 221 346 c 0,14,15
 269 346 269 346 341 311.5 c 128,-1,16
 413 277 413 277 436 277 c 0,17,18
 463 277 463 277 488 297 c 128,-1,19
 513 317 513 317 527 345 c 1,0,-1
EndSplineSet
EndChar
StartChar: exclamdown
Encoding: 161 161 95
Width: 329
GlyphClass: 2
Flags: W
LayerCount: 2
Back
Fore
SplineSet
206 -126 m 2,0,-1
 125 -126 l 2,1,2
 107 -126 107 -126 107 -110 c 2,3,-1
 136 383 l 1,4,-1
 194 383 l 1,5,-1
 224 -112 l 2,6,7
 224 -126 224 -126 206 -126 c 2,0,-1
99 548 m 0,8,9
 99 576 99 576 118 595 c 128,-1,10
 137 614 137 614 165 614 c 0,11,12
 192 614 192 614 211.5 594.5 c 128,-1,13
 231 575 231 575 231 548 c 128,-1,14
 231 521 231 521 211.5 501.5 c 128,-1,15
 192 482 192 482 165 482 c 256,16,17
 138 482 138 482 118.5 501.5 c 128,-1,18
 99 521 99 521 99 548 c 0,8,9
EndSplineSet
EndChar
StartChar: cent
Encoding: 162 162 96
Width: 450
GlyphClass: 2
Flags: W
LayerCount: 2
Back
Fore
SplineSet
248 -118 m 1,0,-1
 176 -118 l 1,1,-1
 207 -6 l 1,2,3
 125 17 125 17 83 86.5 c 128,-1,4
 41 156 41 156 41 247 c 0,5,6
 41 353 41 353 97 425.5 c 128,-1,7
 153 498 153 498 256 507 c 1,8,-1
 266 612 l 1,9,-1
 340 612 l 1,10,-1
 310 505 l 1,11,12
 374 495 374 495 423 457 c 1,13,-1
 379 399 l 1,14,15
 348 424 348 424 325.5 433.5 c 128,-1,16
 303 443 303 443 266 443 c 0,17,18
 201 443 201 443 165.5 384 c 128,-1,19
 130 325 130 325 130 256 c 0,20,21
 130 210 130 210 143.5 166.5 c 128,-1,22
 157 123 157 123 190.5 89 c 128,-1,23
 224 55 224 55 271 55 c 0,24,25
 308 55 308 55 333 65 c 128,-1,26
 358 75 358 75 392 99 c 1,27,-1
 430 35 l 1,28,29
 358 -14 358 -14 273 -14 c 2,30,-1
 258 -14 l 1,31,-1
 248 -118 l 1,0,-1
EndSplineSet
EndChar
StartChar: sterling
Encoding: 163 163 97
Width: 581
GlyphClass: 2
Flags: W
LayerCount: 2
Back
Fore
SplineSet
535 0 m 1,0,-1
 56 0 l 1,1,-1
 56 69 l 1,2,-1
 149 69 l 1,3,-1
 149 359 l 1,4,-1
 73 359 l 1,5,-1
 73 427 l 1,6,-1
 149 427 l 1,7,-1
 149 545 l 2,8,9
 149 636 149 636 203.5 687 c 128,-1,10
 258 738 258 738 349 738 c 0,11,12
 403 738 403 738 449 712 c 128,-1,13
 495 686 495 686 524 640 c 1,14,-1
 449 598 l 1,15,16
 413 669 413 669 348 669 c 0,17,18
 297 669 297 669 270 634.5 c 128,-1,19
 243 600 243 600 243 547 c 2,20,-1
 243 427 l 1,21,-1
 372 427 l 1,22,-1
 372 359 l 1,23,-1
 243 359 l 1,24,-1
 243 69 l 1,25,-1
 535 69 l 1,26,-1
 535 0 l 1,0,-1
EndSplineSet
EndChar
StartChar: currency
Encoding: 164 164 98
Width: 536
GlyphClass: 2
Flags: W
LayerCount: 2
Back
Fore
SplineSet
427 218 m 1,0,-1
 485 162 l 1,1,2
 468 146 468 146 436 114 c 1,3,4
 399 148 399 148 382 167 c 1,5,6
 332 125 332 125 266 125 c 0,7,8
 202 125 202 125 149 167 c 1,9,10
 143 161 143 161 132.5 150.5 c 128,-1,11
 122 140 122 140 113 131 c 128,-1,12
 104 122 104 122 96 114 c 1,13,-1
 47 163 l 1,14,-1
 103 219 l 1,15,16
 72 271 72 271 72 332 c 0,17,18
 72 392 72 392 104 445 c 1,19,-1
 47 502 l 1,20,21
 72 526 72 526 96 551 c 1,22,-1
 150 496 l 1,23,24
 202 538 202 538 266 538 c 0,25,26
 331 538 331 538 381 497 c 1,27,-1
 436 551 l 1,28,-1
 485 502 l 1,29,-1
 427 445 l 1,30,31
 460 391 460 391 460 332 c 0,32,33
 460 272 460 272 427 218 c 1,0,-1
266 186 m 0,34,35
 316 186 316 186 352 227 c 128,-1,36
 388 268 388 268 388 332 c 0,37,38
 388 393 388 393 353 435 c 128,-1,39
 318 477 318 477 266 477 c 256,40,41
 214 477 214 477 179.5 435 c 128,-1,42
 145 393 145 393 145 332 c 0,43,44
 145 269 145 269 181 227.5 c 128,-1,45
 217 186 217 186 266 186 c 0,34,35
EndSplineSet
EndChar
StartChar: yen
Encoding: 165 165 99
Width: 502
GlyphClass: 2
Flags: W
LayerCount: 2
Back
Fore
SplineSet
289 0 m 1,0,-1
 208 0 l 1,1,-1
 208 163 l 1,2,-1
 62 163 l 1,3,-1
 62 211 l 1,4,-1
 208 211 l 1,5,-1
 208 246 l 1,6,-1
 190 271 l 1,7,-1
 62 271 l 1,8,-1
 62 318 l 1,9,-1
 157 318 l 1,10,-1
 32 496 l 1,11,-1
 123 496 l 1,12,-1
 258 307 l 1,13,-1
 384 496 l 1,14,-1
 460 496 l 1,15,-1
 339 318 l 1,16,-1
 437 318 l 1,17,-1
 437 271 l 1,18,-1
 307 271 l 1,19,-1
 289 246 l 1,20,-1
 289 211 l 1,21,-1
 437 211 l 1,22,-1
 437 163 l 1,23,-1
 289 163 l 1,24,-1
 289 0 l 1,0,-1
EndSplineSet
EndChar
StartChar: brokenbar
Encoding: 166 166 100
Width: 238
GlyphClass: 2
Flags: W
LayerCount: 2
Back
Fore
SplineSet
152 393 m 1,0,-1
 84 393 l 1,1,-1
 84 742 l 1,2,-1
 152 742 l 1,3,-1
 152 393 l 1,0,-1
152 -115 m 1,4,-1
 84 -115 l 1,5,-1
 84 233 l 1,6,-1
 152 233 l 1,7,-1
 152 -115 l 1,4,-1
EndSplineSet
EndChar
StartChar: section
Encoding: 167 167 101
Width: 497
GlyphClass: 2
Flags: W
LayerCount: 2
Back
Fore
SplineSet
71 -43 m 1,0,-1
 131 4 l 1,1,2
 150 -21 150 -21 163 -34.5 c 128,-1,3
 176 -48 176 -48 199.5 -62 c 128,-1,4
 223 -76 223 -76 247 -76 c 0,5,6
 281 -76 281 -76 303.5 -54.5 c 128,-1,7
 326 -33 326 -33 326 1 c 0,8,9
 326 29 326 29 298 64 c 128,-1,10
 270 99 270 99 230 133 c 128,-1,11
 190 167 190 167 149.5 202.5 c 128,-1,12
 109 238 109 238 81 279 c 128,-1,13
 53 320 53 320 53 356 c 0,14,15
 53 406 53 406 83 438 c 128,-1,16
 113 470 113 470 163 483 c 1,17,18
 135 515 135 515 122.5 538 c 128,-1,19
 110 561 110 561 110 596 c 0,20,21
 110 657 110 657 155.5 694.5 c 128,-1,22
 201 732 201 732 264 732 c 0,23,24
 366 732 366 732 418 646 c 1,25,-1
 364 606 l 1,26,27
 319 673 319 673 261 673 c 0,28,29
 232 673 232 673 211 654 c 128,-1,30
 190 635 190 635 190 607 c 0,31,32
 190 580 190 580 217.5 548.5 c 128,-1,33
 245 517 245 517 284.5 485.5 c 128,-1,34
 324 454 324 454 363 420.5 c 128,-1,35
 402 387 402 387 429.5 345 c 128,-1,36
 457 303 457 303 457 261 c 0,37,38
 457 214 457 214 429.5 180 c 128,-1,39
 402 146 402 146 356 132 c 1,40,41
 409 72 409 72 409 11 c 0,42,43
 409 -56 409 -56 361 -95.5 c 128,-1,44
 313 -135 313 -135 244 -135 c 0,45,46
 194 -135 194 -135 148.5 -110 c 128,-1,47
 103 -85 103 -85 71 -43 c 1,0,-1
328 339 m 2,48,-1
 208 441 l 1,49,50
 181 441 181 441 155 421 c 128,-1,51
 129 401 129 401 129 372 c 0,52,53
 129 358 129 358 140 338.5 c 128,-1,54
 151 319 151 319 165 302.5 c 128,-1,55
 179 286 179 286 203.5 263 c 128,-1,56
 228 240 228 240 242.5 228 c 128,-1,57
 257 216 257 216 282 195 c 128,-1,58
 307 174 307 174 310 172 c 0,59,60
 336 176 336 176 358 196.5 c 128,-1,61
 380 217 380 217 380 242 c 0,62,63
 380 295 380 295 328 339 c 2,48,-1
EndSplineSet
EndChar
StartChar: dieresis
Encoding: 168 168 102
Width: 276
GlyphClass: 2
Flags: W
LayerCount: 2
Back
Fore
SplineSet
276 624 m 0,0,1
 276 601 276 601 259 584 c 128,-1,2
 242 567 242 567 219 567 c 256,3,4
 196 567 196 567 179.5 584 c 128,-1,5
 163 601 163 601 163 624 c 128,-1,6
 163 647 163 647 179.5 664 c 128,-1,7
 196 681 196 681 219 681 c 0,8,9
 243 681 243 681 259.5 664.5 c 128,-1,10
 276 648 276 648 276 624 c 0,0,1
113 624 m 0,11,12
 113 601 113 601 96 584 c 128,-1,13
 79 567 79 567 56 567 c 256,14,15
 33 567 33 567 16.5 584 c 128,-1,16
 0 601 0 601 0 624 c 128,-1,17
 0 647 0 647 16.5 664 c 128,-1,18
 33 681 33 681 56 681 c 0,19,20
 80 681 80 681 96.5 664.5 c 128,-1,21
 113 648 113 648 113 624 c 0,11,12
EndSplineSet
EndChar
StartChar: copyright
Encoding: 169 169 103
Width: 635
GlyphClass: 2
Flags: W
LayerCount: 2
Back
Fore
SplineSet
508 442 m 256,0,1
 588 362 588 362 588 250 c 128,-1,2
 588 138 588 138 508 58 c 128,-1,3
 428 -22 428 -22 316 -22 c 256,4,5
 204 -22 204 -22 124 58 c 128,-1,6
 44 138 44 138 44 250 c 128,-1,7
 44 362 44 362 124 442 c 128,-1,8
 204 522 204 522 316 522 c 256,9,10
 428 522 428 522 508 442 c 256,0,1
480 85 m 0,11,12
 549 154 549 154 549 250 c 128,-1,13
 549 346 549 346 480.5 414.5 c 128,-1,14
 412 483 412 483 316 483 c 256,15,16
 220 483 220 483 151.5 414.5 c 128,-1,17
 83 346 83 346 83 250 c 128,-1,18
 83 154 83 154 151.5 85.5 c 128,-1,19
 220 17 220 17 316 17 c 256,20,21
 412 17 412 17 480 85 c 0,11,12
400 162 m 1,22,-1
 426 119 l 1,23,24
 371 88 371 88 318 88 c 0,25,26
 250 88 250 88 210.5 134.5 c 128,-1,27
 171 181 171 181 171 251 c 0,28,29
 171 323 171 323 213 368.5 c 128,-1,30
 255 414 255 414 326 414 c 0,31,32
 370 414 370 414 421 381 c 1,33,-1
 391 343 l 1,34,35
 359 370 359 370 318 370 c 256,36,37
 277 370 277 370 254.5 334.5 c 128,-1,38
 232 299 232 299 232 256 c 0,39,40
 232 211 232 211 255 172.5 c 128,-1,41
 278 134 278 134 321 134 c 0,42,43
 358 134 358 134 400 162 c 1,22,-1
EndSplineSet
EndChar
StartChar: ordfeminine
Encoding: 170 170 104
Width: 315
GlyphClass: 2
Flags: W
LayerCount: 2
Back
Fore
SplineSet
290 454 m 1,0,-1
 305 410 l 1,1,2
 300 408 300 408 289 403.5 c 128,-1,3
 278 399 278 399 271 396 c 128,-1,4
 264 393 264 393 254 390.5 c 128,-1,5
 244 388 244 388 236 388 c 0,6,7
 202 388 202 388 190 425 c 1,8,9
 150 387 150 387 101 387 c 0,10,11
 61 387 61 387 35.5 411.5 c 128,-1,12
 10 436 10 436 10 476 c 0,13,14
 10 590 10 590 186 592 c 1,15,-1
 186 619 l 2,16,17
 186 676 186 676 141 676 c 0,18,19
 119 676 119 676 93.5 663.5 c 128,-1,20
 68 651 68 651 52 634 c 1,21,-1
 19 684 l 1,22,23
 74 730 74 730 145 730 c 0,24,25
 196 730 196 730 222.5 701 c 128,-1,26
 249 672 249 672 249 620 c 2,27,-1
 249 467 l 2,28,29
 249 444 249 444 256 444 c 2,30,-1
 290 454 l 1,0,-1
259 279 m 1,31,-1
 40 279 l 1,32,-1
 40 329 l 1,33,-1
 259 329 l 1,34,-1
 259 279 l 1,31,-1
186 523 m 2,35,-1
 186 537 l 1,36,37
 165 537 165 537 150.5 535.5 c 128,-1,38
 136 534 136 534 116.5 529 c 128,-1,39
 97 524 97 524 86.5 511 c 128,-1,40
 76 498 76 498 76 478 c 0,41,42
 76 462 76 462 89 453 c 128,-1,43
 102 444 102 444 118 444 c 0,44,45
 147 444 147 444 166.5 469 c 128,-1,46
 186 494 186 494 186 523 c 2,35,-1
EndSplineSet
EndChar
StartChar: logicalnot
Encoding: 172 172 106
Width: 638
GlyphClass: 2
Flags: W
LayerCount: 2
Back
Fore
SplineSet
565 89 m 1,0,-1
 504 89 l 1,1,-1
 504 279 l 1,2,-1
 72 279 l 1,3,-1
 72 339 l 1,4,-1
 565 339 l 1,5,-1
 565 89 l 1,0,-1
EndSplineSet
EndChar
StartChar: registered
Encoding: 174 174 108
Width: 459
GlyphClass: 2
Flags: W
LayerCount: 2
Back
Fore
SplineSet
231 405 m 0,0,1
 148 405 148 405 90.5 462.5 c 128,-1,2
 33 520 33 520 33 603 c 128,-1,3
 33 686 33 686 90.5 743.5 c 128,-1,4
 148 801 148 801 231 801 c 0,5,6
 313 801 313 801 371.5 743 c 128,-1,7
 430 685 430 685 430 603 c 128,-1,8
 430 521 430 521 371.5 463 c 128,-1,9
 313 405 313 405 231 405 c 0,0,1
348 486 m 0,10,11
 397 535 397 535 397 603 c 128,-1,12
 397 671 397 671 348 719.5 c 128,-1,13
 299 768 299 768 231 768 c 256,14,15
 163 768 163 768 114.5 719.5 c 128,-1,16
 66 671 66 671 66 603 c 128,-1,17
 66 535 66 535 114.5 486.5 c 128,-1,18
 163 438 163 438 231 438 c 256,19,20
 299 438 299 438 348 486 c 0,10,11
343 492 m 1,21,-1
 283 492 l 1,22,-1
 218 588 l 1,23,-1
 200 588 l 1,24,-1
 200 492 l 1,25,-1
 150 492 l 1,26,-1
 150 717 l 1,27,-1
 238 717 l 2,28,29
 316 717 316 717 316 653 c 0,30,31
 316 613 316 613 270 596 c 1,32,-1
 343 492 l 1,21,-1
200 625 m 1,33,-1
 224 625 l 2,34,35
 266 625 266 625 266 655 c 0,36,37
 266 680 266 680 231 680 c 2,38,-1
 200 680 l 1,39,-1
 200 625 l 1,33,-1
EndSplineSet
EndChar
StartChar: macron
Encoding: 175 175 109
Width: 274
GlyphClass: 2
Flags: W
LayerCount: 2
Back
Fore
SplineSet
289 596 m 1,0,-1
 -15 596 l 1,1,-1
 -15 660 l 1,2,-1
 289 660 l 1,3,-1
 289 596 l 1,0,-1
EndSplineSet
EndChar
StartChar: degree
Encoding: 176 176 110
Width: 388
GlyphClass: 2
Flags: W
LayerCount: 2
Back
Fore
SplineSet
300 699 m 256,0,1
 344 655 344 655 344 593 c 128,-1,2
 344 531 344 531 300 487 c 128,-1,3
 256 443 256 443 194 443 c 256,4,5
 132 443 132 443 88 487 c 128,-1,6
 44 531 44 531 44 593 c 128,-1,7
 44 655 44 655 88 699 c 128,-1,8
 132 743 132 743 194 743 c 256,9,10
 256 743 256 743 300 699 c 256,0,1
131 529 m 0,11,12
 157 503 157 503 194 503 c 256,13,14
 231 503 231 503 256 529.5 c 128,-1,15
 281 556 281 556 281 593 c 128,-1,16
 281 630 281 630 256 656.5 c 128,-1,17
 231 683 231 683 194 683 c 256,18,19
 157 683 157 683 131.5 656.5 c 128,-1,20
 106 630 106 630 106 593 c 128,-1,21
 106 556 106 556 131 529 c 0,11,12
EndSplineSet
EndChar
StartChar: plusminus
Encoding: 177 177 111
Width: 632
GlyphClass: 2
Flags: W
LayerCount: 2
Back
Fore
SplineSet
567 262 m 1,0,-1
 352 262 l 1,1,-1
 352 97 l 1,2,-1
 282 97 l 1,3,-1
 282 262 l 1,4,-1
 68 262 l 1,5,-1
 68 332 l 1,6,-1
 282 332 l 1,7,-1
 282 496 l 1,8,-1
 352 496 l 1,9,-1
 352 332 l 1,10,-1
 567 332 l 1,11,-1
 567 262 l 1,0,-1
567 -1 m 1,12,-1
 68 -1 l 1,13,-1
 68 69 l 1,14,-1
 567 69 l 1,15,-1
 567 -1 l 1,12,-1
EndSplineSet
EndChar
StartChar: twosuperior
Encoding: 178 178 112
Width: 457
GlyphClass: 2
Flags: W
LayerCount: 2
Back
Fore
SplineSet
386 434 m 1,0,-1
 58 434 l 1,1,-1
 58 472 l 1,2,3
 68 480 68 480 85 494 c 128,-1,4
 102 508 102 508 145.5 548.5 c 128,-1,5
 189 589 189 589 222.5 626.5 c 128,-1,6
 256 664 256 664 283 711.5 c 128,-1,7
 310 759 310 759 310 795 c 0,8,9
 310 828 310 828 289 849 c 128,-1,10
 268 870 268 870 231 870 c 0,11,12
 201 870 201 870 169.5 857 c 128,-1,13
 138 844 138 844 122 830 c 2,14,-1
 105 817 l 1,15,-1
 73 864 l 1,16,17
 76 867 76 867 81 871 c 128,-1,18
 86 875 86 875 103 886 c 128,-1,19
 120 897 120 897 139 905.5 c 128,-1,20
 158 914 158 914 187 921 c 128,-1,21
 216 928 216 928 247 928 c 0,22,23
 323 928 323 928 358.5 890.5 c 128,-1,24
 394 853 394 853 394 801 c 0,25,26
 394 759 394 759 371 713 c 128,-1,27
 348 667 348 667 315 630.5 c 128,-1,28
 282 594 282 594 249.5 564 c 128,-1,29
 217 534 217 534 194 518 c 2,30,-1
 171 502 l 1,31,-1
 405 502 l 1,32,-1
 386 434 l 1,0,-1
EndSplineSet
EndChar
StartChar: threesuperior
Encoding: 179 179 113
Width: 457
GlyphClass: 2
Flags: W
LayerCount: 2
Back
Fore
SplineSet
73 423 m 1,0,-1
 63 474 l 1,1,2
 183 480 183 480 248.5 515.5 c 128,-1,3
 314 551 314 551 314 606 c 0,4,5
 314 679 314 679 200 679 c 1,6,-1
 165 677 l 1,7,-1
 157 724 l 1,8,9
 295 752 295 752 295 823 c 0,10,11
 295 870 295 870 225 870 c 0,12,13
 195 870 195 870 159.5 855 c 128,-1,14
 124 840 124 840 99 820 c 1,15,-1
 67 866 l 1,16,17
 101 893 101 893 150.5 910.5 c 128,-1,18
 200 928 200 928 244 928 c 0,19,20
 297 928 297 928 334.5 907 c 128,-1,21
 372 886 372 886 372 838 c 0,22,23
 372 765 372 765 277 728 c 1,24,25
 327 722 327 722 360.5 692 c 128,-1,26
 394 662 394 662 394 614 c 0,27,28
 394 590 394 590 386 567 c 128,-1,29
 378 544 378 544 356 518 c 128,-1,30
 334 492 334 492 299.5 472.5 c 128,-1,31
 265 453 265 453 206.5 439.5 c 128,-1,32
 148 426 148 426 73 423 c 1,0,-1
EndSplineSet
EndChar
StartChar: acute
Encoding: 180 180 114
Width: 281
GlyphClass: 2
Flags: W
LayerCount: 2
Back
Fore
SplineSet
109 571 m 1,0,-1
 31 571 l 1,1,-1
 127 723 l 1,2,-1
 249 723 l 1,3,-1
 109 571 l 1,0,-1
EndSplineSet
EndChar
StartChar: mu
Encoding: 181 181 115
AltUni2: 0003bc.ffffffff.0
Width: 555
GlyphClass: 2
Flags: W
LayerCount: 2
Back
Fore
SplineSet
534 73 m 1,0,-1
 551 21 l 1,1,2
 544 18 544 18 528.5 11.5 c 128,-1,3
 513 5 513 5 503.5 1.5 c 128,-1,4
 494 -2 494 -2 480 -5.5 c 128,-1,5
 466 -9 466 -9 455 -9 c 0,6,7
 426 -9 426 -9 408 10 c 128,-1,8
 390 29 390 29 385 59 c 1,9,10
 354 29 354 29 311.5 8 c 128,-1,11
 269 -13 269 -13 232 -13 c 0,12,13
 199 -13 199 -13 166 1 c 1,14,-1
 166 -187 l 1,15,-1
 81 -187 l 1,16,-1
 81 438 l 2,17,18
 81 439 81 439 78 452.5 c 128,-1,19
 75 466 75 466 71.5 480.5 c 128,-1,20
 68 495 68 495 68 497 c 2,21,-1
 163 497 l 1,22,-1
 163 191 l 2,23,24
 163 165 163 165 165.5 145.5 c 128,-1,25
 168 126 168 126 176 105 c 128,-1,26
 184 84 184 84 201.5 72.5 c 128,-1,27
 219 61 219 61 246 61 c 0,28,29
 280 61 280 61 318 80.5 c 128,-1,30
 356 100 356 100 383 127 c 1,31,-1
 383 438 l 2,32,33
 383 439 383 439 380 452.5 c 128,-1,34
 377 466 377 466 373.5 480.5 c 128,-1,35
 370 495 370 495 370 497 c 2,36,-1
 465 497 l 1,37,-1
 465 97 l 2,38,39
 465 77 465 77 469.5 68 c 128,-1,40
 474 59 474 59 487 59 c 0,41,42
 499 59 499 59 534 73 c 1,0,-1
EndSplineSet
EndChar
StartChar: paragraph
Encoding: 182 182 116
Width: 500
GlyphClass: 2
Flags: W
LayerCount: 2
Back
Fore
SplineSet
229 -47 m 2,0,-1
 229 332 l 1,1,2
 150 332 150 332 95 386 c 128,-1,3
 40 440 40 440 40 520 c 0,4,5
 40 618 40 618 101.5 668 c 128,-1,6
 163 718 163 718 263 718 c 2,7,-1
 455 718 l 1,8,-1
 455 664 l 1,9,-1
 399 664 l 1,10,-1
 399 10 l 2,11,12
 399 -36 399 -36 366.5 -68.5 c 128,-1,13
 334 -101 334 -101 288 -101 c 0,14,15
 283 -101 283 -101 271 -99 c 1,16,17
 256 -126 256 -126 230 -142 c 128,-1,18
 204 -158 204 -158 173 -158 c 0,19,20
 127 -158 127 -158 94.5 -125.5 c 128,-1,21
 62 -93 62 -93 62 -47 c 128,-1,22
 62 -1 62 -1 94.5 31.5 c 128,-1,23
 127 64 127 64 173 64 c 1,24,-1
 173 10 l 1,25,26
 150 10 150 10 133 -7 c 128,-1,27
 116 -24 116 -24 116 -47 c 128,-1,28
 116 -70 116 -70 133 -87 c 128,-1,29
 150 -104 150 -104 173 -104 c 256,30,31
 196 -104 196 -104 212.5 -87 c 128,-1,32
 229 -70 229 -70 229 -47 c 2,0,-1
345 10 m 2,33,-1
 345 664 l 1,34,-1
 284 664 l 1,35,-1
 284 -47 l 1,36,-1
 288 -47 l 2,37,38
 311 -47 311 -47 328 -30 c 128,-1,39
 345 -13 345 -13 345 10 c 2,33,-1
EndSplineSet
EndChar
StartChar: periodcentered
Encoding: 183 183 117
Width: 293
GlyphClass: 2
Flags: W
LayerCount: 2
Back
Fore
SplineSet
81 260 m 0,0,1
 81 288 81 288 100 307 c 128,-1,2
 119 326 119 326 147 326 c 0,3,4
 174 326 174 326 193.5 306.5 c 128,-1,5
 213 287 213 287 213 260 c 128,-1,6
 213 233 213 233 193.5 213.5 c 128,-1,7
 174 194 174 194 147 194 c 256,8,9
 120 194 120 194 100.5 213.5 c 128,-1,10
 81 233 81 233 81 260 c 0,0,1
EndSplineSet
EndChar
StartChar: cedilla
Encoding: 184 184 118
Width: 280
GlyphClass: 2
Flags: W
LayerCount: 2
Back
Fore
SplineSet
32 -192 m 1,0,-1
 56 -146 l 1,1,2
 98 -169 98 -169 120 -169 c 0,3,4
 138 -169 138 -169 151 -158 c 128,-1,5
 164 -147 164 -147 164 -130 c 0,6,7
 164 -114 164 -114 153.5 -104.5 c 128,-1,8
 143 -95 143 -95 126 -95 c 2,9,-1
 79 -95 l 2,10,11
 72 -95 72 -95 69 -90.5 c 128,-1,12
 66 -86 66 -86 66 -82 c 2,13,-1
 66 -77 l 1,14,-1
 114 9 l 1,15,-1
 161 9 l 1,16,-1
 132 -46 l 1,17,-1
 143 -46 l 2,18,19
 184 -46 184 -46 215.5 -66 c 128,-1,20
 247 -86 247 -86 247 -127 c 0,21,22
 247 -220 247 -220 117 -220 c 0,23,24
 76 -220 76 -220 32 -192 c 1,0,-1
EndSplineSet
EndChar
StartChar: onesuperior
Encoding: 185 185 119
Width: 457
GlyphClass: 2
Flags: W
LayerCount: 2
Back
Fore
SplineSet
395 434 m 1,0,-1
 91 434 l 1,1,-1
 91 493 l 1,2,-1
 215 493 l 1,3,-1
 215 838 l 1,4,5
 195 832 195 832 154.5 820.5 c 128,-1,6
 114 809 114 809 94 803 c 1,7,8
 92 809 92 809 76 852 c 1,9,10
 162 881 162 881 245 918 c 1,11,-1
 295 918 l 1,12,-1
 295 493 l 1,13,-1
 395 493 l 1,14,-1
 395 434 l 1,0,-1
EndSplineSet
EndChar
StartChar: ordmasculine
Encoding: 186 186 120
Width: 332
GlyphClass: 2
Flags: W
LayerCount: 2
Back
Fore
SplineSet
13 566 m 0,0,1
 13 637 13 637 54.5 687 c 128,-1,2
 96 737 96 737 166 737 c 0,3,4
 237 737 237 737 278 687.5 c 128,-1,5
 319 638 319 638 319 566 c 128,-1,6
 319 494 319 494 278 444.5 c 128,-1,7
 237 395 237 395 166 395 c 256,8,9
 95 395 95 395 54 444.5 c 128,-1,10
 13 494 13 494 13 566 c 0,0,1
276 279 m 1,11,-1
 57 279 l 1,12,-1
 57 329 l 1,13,-1
 276 329 l 1,14,-1
 276 279 l 1,11,-1
166 447 m 0,15,16
 208 447 208 447 228.5 483.5 c 128,-1,17
 249 520 249 520 249 566 c 0,18,19
 249 611 249 611 228.5 648 c 128,-1,20
 208 685 208 685 166 685 c 0,21,22
 123 685 123 685 102.5 648.5 c 128,-1,23
 82 612 82 612 82 566 c 0,24,25
 82 523 82 523 104 485 c 128,-1,26
 126 447 126 447 166 447 c 0,15,16
EndSplineSet
EndChar
StartChar: onequarter
Encoding: 188 188 122
Width: 1094
GlyphClass: 2
Flags: W
LayerCount: 2
Back
Fore
SplineSet
421 -22 m 1,0,-1
 359 -22 l 1,1,2
 565 494 565 494 667 753 c 1,3,-1
 730 753 l 1,4,5
 627 494 627 494 421 -22 c 1,0,-1
395 248 m 1,6,-1
 91 248 l 1,7,-1
 91 307 l 1,8,-1
 215 307 l 1,9,-1
 215 652 l 1,10,-1
 94 617 l 1,11,12
 92 623 92 623 76 666 c 1,13,14
 162 695 162 695 245 732 c 1,15,-1
 295 732 l 1,16,-1
 295 307 l 1,17,-1
 395 307 l 1,18,-1
 395 248 l 1,6,-1
908 0 m 1,19,-1
 828 0 l 1,20,-1
 828 110 l 1,21,-1
 599 110 l 1,22,-1
 599 150 l 1,23,24
 676 261 676 261 828 483 c 1,25,-1
 908 483 l 1,26,-1
 908 169 l 1,27,-1
 983 169 l 1,28,29
 979 155 979 155 966 110 c 1,30,-1
 908 110 l 1,31,-1
 908 0 l 1,19,-1
828 169 m 1,32,-1
 828 289 l 2,33,34
 828 306 828 306 829.5 346 c 128,-1,35
 831 386 831 386 831 398 c 1,36,37
 819 374 819 374 800 342.5 c 128,-1,38
 781 311 781 311 765 287.5 c 128,-1,39
 749 264 749 264 722.5 225.5 c 128,-1,40
 696 187 696 187 684 169 c 1,41,-1
 828 169 l 1,32,-1
EndSplineSet
EndChar
StartChar: onehalf
Encoding: 189 189 123
Width: 1113
GlyphClass: 2
Flags: W
LayerCount: 2
Back
Fore
SplineSet
395 248 m 1,0,-1
 91 248 l 1,1,-1
 91 307 l 1,2,-1
 215 307 l 1,3,-1
 215 652 l 1,4,-1
 94 617 l 1,5,6
 92 623 92 623 76 666 c 1,7,8
 162 695 162 695 245 732 c 1,9,-1
 295 732 l 1,10,-1
 295 307 l 1,11,-1
 395 307 l 1,12,-1
 395 248 l 1,0,-1
421 -22 m 1,13,-1
 359 -22 l 1,14,15
 565 494 565 494 667 753 c 1,16,-1
 730 753 l 1,17,18
 627 494 627 494 421 -22 c 1,13,-1
1003 0 m 1,19,-1
 675 0 l 1,20,-1
 675 38 l 2,21,22
 676 39 676 39 695 54 c 0,23,24
 927 252 927 252 927 358 c 0,25,26
 927 391 927 391 905.5 411 c 128,-1,27
 884 431 884 431 848 431 c 0,28,29
 783 431 783 431 723 381 c 1,30,-1
 691 429 l 1,31,32
 775 494 775 494 866 494 c 0,33,34
 940 494 940 494 977 457 c 128,-1,35
 1014 420 1014 420 1014 365 c 0,36,37
 1014 319 1014 319 986 268.5 c 128,-1,38
 958 218 958 218 915.5 175.5 c 128,-1,39
 873 133 873 133 846 110 c 128,-1,40
 819 87 819 87 797 72 c 1,41,-1
 1022 72 l 1,42,-1
 1003 0 l 1,19,-1
EndSplineSet
EndChar
StartChar: threequarters
Encoding: 190 190 124
Width: 1076
GlyphClass: 2
Flags: W
LayerCount: 2
Back
Fore
SplineSet
73 236 m 1,0,-1
 63 287 l 1,1,2
 182 293 182 293 247.5 328.5 c 128,-1,3
 313 364 313 364 313 419 c 0,4,5
 313 492 313 492 199 492 c 1,6,-1
 165 490 l 1,7,-1
 157 537 l 1,8,9
 292 564 292 564 292 637 c 0,10,11
 292 683 292 683 225 683 c 0,12,13
 194 683 194 683 158.5 668 c 128,-1,14
 123 653 123 653 99 633 c 1,15,16
 95 639 95 639 84 655 c 128,-1,17
 73 671 73 671 67 679 c 1,18,19
 101 706 101 706 150 723.5 c 128,-1,20
 199 741 199 741 244 741 c 0,21,22
 297 741 297 741 334.5 720 c 128,-1,23
 372 699 372 699 372 651 c 0,24,25
 372 578 372 578 276 541 c 1,26,27
 327 535 327 535 360.5 505 c 128,-1,28
 394 475 394 475 394 427 c 0,29,30
 394 403 394 403 386 380 c 128,-1,31
 378 357 378 357 356 331 c 128,-1,32
 334 305 334 305 299.5 285.5 c 128,-1,33
 265 266 265 266 206.5 252.5 c 128,-1,34
 148 239 148 239 73 236 c 1,0,-1
394 -22 m 1,35,-1
 332 -22 l 1,36,37
 392 128 392 128 503 407.5 c 128,-1,38
 614 687 614 687 640 753 c 1,39,-1
 702 753 l 1,40,41
 676 687 676 687 565 407.5 c 128,-1,42
 454 128 454 128 394 -22 c 1,35,-1
882 0 m 1,43,-1
 802 0 l 1,44,-1
 802 110 l 1,45,-1
 573 110 l 1,46,-1
 573 150 l 1,47,-1
 801 483 l 1,48,-1
 882 483 l 1,49,-1
 882 169 l 1,50,-1
 957 169 l 1,51,52
 943 124 943 124 940 110 c 1,53,-1
 882 110 l 1,54,-1
 882 0 l 1,43,-1
802 169 m 1,55,-1
 802 289 l 2,56,57
 802 306 802 306 803.5 346 c 128,-1,58
 805 386 805 386 805 398 c 1,59,60
 774 337 774 337 657 169 c 1,61,-1
 802 169 l 1,55,-1
EndSplineSet
EndChar
StartChar: questiondown
Encoding: 191 191 125
Width: 431
GlyphClass: 2
Flags: W
LayerCount: 2
Back
Fore
SplineSet
357 -37 m 1,0,-1
 384 -94 l 1,1,2
 339 -126 339 -126 252 -126 c 0,3,4
 170 -126 170 -126 109 -81.5 c 128,-1,5
 48 -37 48 -37 48 43 c 0,6,7
 48 104 48 104 89 155.5 c 128,-1,8
 130 207 130 207 189 226 c 0,9,10
 206 232 206 232 209.5 236.5 c 128,-1,11
 213 241 213 241 213 257 c 2,12,-1
 213 380 l 1,13,-1
 278 380 l 1,14,-1
 278 185 l 1,15,16
 219 175 219 175 177.5 140 c 128,-1,17
 136 105 136 105 136 49 c 0,18,19
 136 -3 136 -3 172.5 -34 c 128,-1,20
 209 -65 209 -65 261 -65 c 0,21,22
 323 -65 323 -65 357 -37 c 1,0,-1
183 544 m 0,23,24
 183 572 183 572 202 591 c 128,-1,25
 221 610 221 610 249 610 c 0,26,27
 276 610 276 610 295.5 590.5 c 128,-1,28
 315 571 315 571 315 544 c 128,-1,29
 315 517 315 517 295.5 497.5 c 128,-1,30
 276 478 276 478 249 478 c 256,31,32
 222 478 222 478 202.5 497.5 c 128,-1,33
 183 517 183 517 183 544 c 0,23,24
EndSplineSet
EndChar
StartChar: Aacute
Encoding: 193 193 127
Width: 631
GlyphClass: 2
Flags: W
LayerCount: 2
Back
Fore
SplineSet
619 0 m 1,0,-1
 516 0 l 1,1,-1
 434 227 l 1,2,-1
 191 227 l 1,3,-1
 107 0 l 1,4,-1
 23 0 l 1,5,-1
 276 670 l 1,6,-1
 367 670 l 1,7,-1
 619 0 l 1,0,-1
409 295 m 1,8,-1
 313 555 l 1,9,-1
 217 295 l 1,10,-1
 409 295 l 1,8,-1
354 716 m 1,11,-1
 276 716 l 1,12,-1
 372 868 l 1,13,-1
 494 868 l 1,14,-1
 354 716 l 1,11,-1
EndSplineSet
EndChar
StartChar: Acircumflex
Encoding: 194 194 128
Width: 631
GlyphClass: 2
Flags: W
LayerCount: 2
Back
Fore
SplineSet
614 0 m 1,0,-1
 511 0 l 1,1,-1
 429 227 l 1,2,-1
 186 227 l 1,3,-1
 102 0 l 1,4,-1
 18 0 l 1,5,-1
 271 670 l 1,6,-1
 362 670 l 1,7,-1
 614 0 l 1,0,-1
404 295 m 1,8,-1
 308 555 l 1,9,-1
 212 295 l 1,10,-1
 404 295 l 1,8,-1
462 696 m 1,11,-1
 393 696 l 1,12,-1
 314 778 l 1,13,-1
 238 697 l 1,14,-1
 171 697 l 1,15,-1
 273 851 l 1,16,-1
 356 851 l 1,17,-1
 462 696 l 1,11,-1
EndSplineSet
EndChar
StartChar: Atilde
Encoding: 195 195 129
Width: 631
GlyphClass: 2
Flags: W
LayerCount: 2
Back
Fore
SplineSet
435 800 m 1,0,-1
 483 800 l 1,1,2
 479 762 479 762 456.5 731.5 c 128,-1,3
 434 701 434 701 398 701 c 0,4,5
 370 701 370 701 322 720.5 c 128,-1,6
 274 740 274 740 248 740 c 0,7,8
 237 740 237 740 227.5 732 c 128,-1,9
 218 724 218 724 215 713 c 1,10,-1
 165 713 l 1,11,12
 171 753 171 753 196 783 c 128,-1,13
 221 813 221 813 259 813 c 0,14,15
 288 813 288 813 335 793.5 c 128,-1,16
 382 774 382 774 400 774 c 0,17,18
 426 774 426 774 435 800 c 1,0,-1
614 0 m 1,19,-1
 511 0 l 1,20,-1
 429 227 l 1,21,-1
 186 227 l 1,22,-1
 102 0 l 1,23,-1
 18 0 l 1,24,-1
 271 670 l 1,25,-1
 362 670 l 1,26,-1
 614 0 l 1,19,-1
404 295 m 1,27,-1
 308 555 l 1,28,-1
 212 295 l 1,29,-1
 404 295 l 1,27,-1
EndSplineSet
EndChar
StartChar: Adieresis
Encoding: 196 196 130
Width: 631
GlyphClass: 2
Flags: W
LayerCount: 2
Back
Fore
SplineSet
614 0 m 1,0,-1
 511 0 l 1,1,-1
 429 227 l 1,2,-1
 186 227 l 1,3,-1
 102 0 l 1,4,-1
 18 0 l 1,5,-1
 271 670 l 1,6,-1
 362 670 l 1,7,-1
 614 0 l 1,0,-1
404 295 m 1,8,-1
 308 555 l 1,9,-1
 212 295 l 1,10,-1
 404 295 l 1,8,-1
457 774 m 0,11,12
 457 751 457 751 440 734 c 128,-1,13
 423 717 423 717 400 717 c 256,14,15
 377 717 377 717 360.5 734 c 128,-1,16
 344 751 344 751 344 774 c 128,-1,17
 344 797 344 797 360.5 814 c 128,-1,18
 377 831 377 831 400 831 c 0,19,20
 424 831 424 831 440.5 814.5 c 128,-1,21
 457 798 457 798 457 774 c 0,11,12
294 774 m 0,22,23
 294 751 294 751 277 734 c 128,-1,24
 260 717 260 717 237 717 c 256,25,26
 214 717 214 717 197.5 734 c 128,-1,27
 181 751 181 751 181 774 c 128,-1,28
 181 797 181 797 197.5 814 c 128,-1,29
 214 831 214 831 237 831 c 0,30,31
 261 831 261 831 277.5 814.5 c 128,-1,32
 294 798 294 798 294 774 c 0,22,23
EndSplineSet
EndChar
StartChar: Aring
Encoding: 197 197 131
Width: 631
GlyphClass: 2
Flags: W
LayerCount: 2
Back
Fore
SplineSet
614 0 m 1,0,-1
 511 0 l 1,1,-1
 429 226 l 1,2,-1
 186 226 l 1,3,-1
 102 0 l 1,4,-1
 18 0 l 1,5,-1
 263 650 l 1,6,7
 241 663 241 663 228 686 c 128,-1,8
 215 709 215 709 215 735 c 0,9,10
 215 776 215 776 244 805 c 128,-1,11
 273 834 273 834 314 834 c 256,12,13
 355 834 355 834 383 805 c 128,-1,14
 411 776 411 776 411 735 c 0,15,16
 411 679 411 679 368 653 c 1,17,-1
 614 0 l 1,0,-1
361 735 m 0,18,19
 361 754 361 754 346.5 768.5 c 128,-1,20
 332 783 332 783 313 783 c 256,21,22
 294 783 294 783 279.5 768.5 c 128,-1,23
 265 754 265 754 265 735 c 128,-1,24
 265 716 265 716 279.5 701.5 c 128,-1,25
 294 687 294 687 313 687 c 0,26,27
 333 687 333 687 347 701 c 128,-1,28
 361 715 361 715 361 735 c 0,18,19
404 294 m 1,29,-1
 308 554 l 1,30,-1
 212 294 l 1,31,-1
 404 294 l 1,29,-1
EndSplineSet
EndChar
StartChar: AE
Encoding: 198 198 132
Width: 794
GlyphClass: 2
Flags: W
LayerCount: 2
Back
Fore
SplineSet
747 0 m 1,0,-1
 390 0 l 1,1,-1
 390 248 l 1,2,-1
 211 248 l 1,3,-1
 97 0 l 1,4,-1
 12 0 l 1,5,-1
 313 663 l 1,6,-1
 299 728 l 1,7,-1
 747 728 l 1,8,-1
 747 660 l 1,9,-1
 482 660 l 1,10,-1
 482 410 l 1,11,-1
 716 410 l 1,12,-1
 716 338 l 1,13,-1
 482 338 l 1,14,-1
 482 71 l 1,15,-1
 747 71 l 1,16,-1
 747 0 l 1,0,-1
390 320 m 1,17,-1
 390 641 l 1,18,-1
 243 320 l 1,19,-1
 390 320 l 1,17,-1
EndSplineSet
EndChar
StartChar: Ccedilla
Encoding: 199 199 133
Width: 624
GlyphClass: 2
Flags: W
LayerCount: 2
Back
Fore
SplineSet
265 -192 m 1,0,-1
 290 -146 l 1,1,2
 330 -169 330 -169 354 -169 c 0,3,4
 371 -169 371 -169 384.5 -158 c 128,-1,5
 398 -147 398 -147 398 -130 c 0,6,7
 398 -114 398 -114 387.5 -104.5 c 128,-1,8
 377 -95 377 -95 360 -95 c 2,9,-1
 312 -95 l 2,10,11
 297 -95 297 -95 297 -83 c 0,12,13
 297 -81 297 -81 299 -77 c 2,14,-1
 337 -9 l 1,15,16
 200 8 200 8 123 113.5 c 128,-1,17
 46 219 46 219 46 366 c 0,18,19
 46 528 46 528 137 633 c 128,-1,20
 228 738 228 738 387 738 c 0,21,22
 446 738 446 738 508.5 717.5 c 128,-1,23
 571 697 571 697 605 659 c 1,24,-1
 553 601 l 1,25,26
 525 632 525 632 477 650 c 128,-1,27
 429 668 429 668 385 668 c 0,28,29
 323 668 323 668 276 641.5 c 128,-1,30
 229 615 229 615 202 569.5 c 128,-1,31
 175 524 175 524 161.5 471.5 c 128,-1,32
 148 419 148 419 148 360 c 0,33,34
 148 300 148 300 161.5 248 c 128,-1,35
 175 196 175 196 202.5 154 c 128,-1,36
 230 112 230 112 277.5 87.5 c 128,-1,37
 325 63 325 63 387 63 c 0,38,39
 432 63 432 63 481.5 80 c 128,-1,40
 531 97 531 97 564 125 c 1,41,-1
 607 58 l 1,42,43
 567 25 567 25 504 6.5 c 128,-1,44
 441 -12 441 -12 383 -12 c 1,45,-1
 365 -46 l 1,46,-1
 377 -46 l 2,47,48
 418 -46 418 -46 449.5 -66 c 128,-1,49
 481 -86 481 -86 481 -127 c 0,50,51
 481 -220 481 -220 351 -220 c 0,52,53
 309 -220 309 -220 265 -192 c 1,0,-1
EndSplineSet
EndChar
StartChar: Eacute
Encoding: 201 201 135
Width: 549
GlyphClass: 2
Flags: W
LayerCount: 2
Back
Fore
SplineSet
509 0 m 1,0,-1
 86 0 l 1,1,-1
 86 603 l 2,2,3
 86 604 86 604 82.5 619 c 128,-1,4
 79 634 79 634 75.5 650 c 128,-1,5
 72 666 72 666 72 668 c 2,6,-1
 509 668 l 1,7,-1
 509 600 l 1,8,-1
 180 600 l 1,9,-1
 180 376 l 1,10,-1
 435 376 l 1,11,-1
 435 306 l 1,12,-1
 180 306 l 1,13,-1
 180 69 l 1,14,-1
 509 69 l 1,15,-1
 509 0 l 1,0,-1
337 717 m 1,16,-1
 259 717 l 1,17,-1
 355 869 l 1,18,-1
 477 869 l 1,19,-1
 337 717 l 1,16,-1
EndSplineSet
EndChar
StartChar: Ecircumflex
Encoding: 202 202 136
Width: 549
GlyphClass: 2
Flags: W
LayerCount: 2
Back
Fore
SplineSet
509 0 m 1,0,-1
 86 0 l 1,1,-1
 86 604 l 2,2,3
 86 605 86 605 82.5 620 c 128,-1,4
 79 635 79 635 75.5 651 c 128,-1,5
 72 667 72 667 72 669 c 2,6,-1
 509 669 l 1,7,-1
 509 601 l 1,8,-1
 180 601 l 1,9,-1
 180 377 l 1,10,-1
 435 377 l 1,11,-1
 435 307 l 1,12,-1
 180 307 l 1,13,-1
 180 69 l 1,14,-1
 509 69 l 1,15,-1
 509 0 l 1,0,-1
446 696 m 1,16,-1
 377 696 l 1,17,-1
 298 778 l 1,18,-1
 222 697 l 1,19,-1
 155 697 l 1,20,-1
 257 851 l 1,21,-1
 340 851 l 1,22,-1
 446 696 l 1,16,-1
EndSplineSet
EndChar
StartChar: Edieresis
Encoding: 203 203 137
Width: 549
GlyphClass: 2
Flags: W
LayerCount: 2
Back
Fore
SplineSet
507 0 m 1,0,-1
 84 0 l 1,1,-1
 84 604 l 2,2,3
 84 605 84 605 80.5 620 c 128,-1,4
 77 635 77 635 73.5 651 c 128,-1,5
 70 667 70 667 70 669 c 2,6,-1
 507 669 l 1,7,-1
 507 601 l 1,8,-1
 178 601 l 1,9,-1
 178 377 l 1,10,-1
 433 377 l 1,11,-1
 433 307 l 1,12,-1
 178 307 l 1,13,-1
 178 69 l 1,14,-1
 507 69 l 1,15,-1
 507 0 l 1,0,-1
442 778 m 0,16,17
 442 755 442 755 425 738 c 128,-1,18
 408 721 408 721 385 721 c 256,19,20
 362 721 362 721 345.5 738 c 128,-1,21
 329 755 329 755 329 778 c 128,-1,22
 329 801 329 801 345.5 818 c 128,-1,23
 362 835 362 835 385 835 c 0,24,25
 409 835 409 835 425.5 818.5 c 128,-1,26
 442 802 442 802 442 778 c 0,16,17
279 778 m 0,27,28
 279 755 279 755 262 738 c 128,-1,29
 245 721 245 721 222 721 c 256,30,31
 199 721 199 721 182.5 738 c 128,-1,32
 166 755 166 755 166 778 c 128,-1,33
 166 801 166 801 182.5 818 c 128,-1,34
 199 835 199 835 222 835 c 0,35,36
 246 835 246 835 262.5 818.5 c 128,-1,37
 279 802 279 802 279 778 c 0,27,28
EndSplineSet
EndChar
StartChar: Igrave
Encoding: 204 204 138
Width: 268
GlyphClass: 2
Flags: W
LayerCount: 2
Back
Fore
SplineSet
181 0 m 1,0,-1
 86 0 l 1,1,-1
 86 602 l 2,2,3
 86 603 86 603 82.5 618 c 128,-1,4
 79 633 79 633 75.5 649.5 c 128,-1,5
 72 666 72 666 72 668 c 2,6,-1
 181 668 l 1,7,-1
 181 0 l 1,0,-1
181 719 m 1,8,-1
 103 719 l 1,9,-1
 -37 871 l 1,10,-1
 86 871 l 1,11,-1
 181 719 l 1,8,-1
EndSplineSet
EndChar
StartChar: Iacute
Encoding: 205 205 139
Width: 270
GlyphClass: 2
Flags: W
LayerCount: 2
Back
Fore
SplineSet
180 0 m 1,0,-1
 86 0 l 1,1,-1
 86 603 l 1,2,-1
 71 669 l 1,3,-1
 180 669 l 1,4,-1
 180 0 l 1,0,-1
148 716 m 1,5,-1
 70 716 l 1,6,-1
 166 868 l 1,7,-1
 288 868 l 1,8,-1
 148 716 l 1,5,-1
EndSplineSet
EndChar
StartChar: Icircumflex
Encoding: 206 206 140
Width: 270
GlyphClass: 2
Flags: W
LayerCount: 2
Back
Fore
SplineSet
181 0 m 1,0,-1
 86 0 l 1,1,-1
 86 602 l 1,2,-1
 71 668 l 1,3,-1
 181 668 l 1,4,-1
 181 0 l 1,0,-1
277 696 m 1,5,-1
 208 696 l 1,6,-1
 129 778 l 1,7,-1
 53 697 l 1,8,-1
 -14 697 l 1,9,-1
 88 851 l 1,10,-1
 171 851 l 1,11,-1
 277 696 l 1,5,-1
EndSplineSet
EndChar
StartChar: Idieresis
Encoding: 207 207 141
Width: 270
GlyphClass: 2
Flags: W
LayerCount: 2
Back
Fore
SplineSet
180 0 m 1,0,-1
 85 0 l 1,1,-1
 85 602 l 2,2,3
 85 603 85 603 81.5 618 c 128,-1,4
 78 633 78 633 74.5 649.5 c 128,-1,5
 71 666 71 666 71 668 c 2,6,-1
 180 668 l 1,7,-1
 180 0 l 1,0,-1
270 778 m 0,8,9
 270 755 270 755 253 738 c 128,-1,10
 236 721 236 721 213 721 c 256,11,12
 190 721 190 721 173.5 738 c 128,-1,13
 157 755 157 755 157 778 c 128,-1,14
 157 801 157 801 173.5 818 c 128,-1,15
 190 835 190 835 213 835 c 0,16,17
 237 835 237 835 253.5 818.5 c 128,-1,18
 270 802 270 802 270 778 c 0,8,9
107 778 m 0,19,20
 107 755 107 755 90 738 c 128,-1,21
 73 721 73 721 50 721 c 256,22,23
 27 721 27 721 10.5 738 c 128,-1,24
 -6 755 -6 755 -6 778 c 128,-1,25
 -6 801 -6 801 10.5 818 c 128,-1,26
 27 835 27 835 50 835 c 0,27,28
 74 835 74 835 90.5 818.5 c 128,-1,29
 107 802 107 802 107 778 c 0,19,20
EndSplineSet
EndChar
StartChar: Eth
Encoding: 208 208 142
Width: 714
GlyphClass: 2
Flags: W
LayerCount: 2
Back
Fore
SplineSet
326 0 m 2,0,-1
 89 0 l 1,1,-1
 89 331 l 1,2,-1
 8 331 l 1,3,-1
 8 395 l 1,4,-1
 89 395 l 1,5,-1
 89 662 l 2,6,7
 89 663 89 663 85.5 678 c 128,-1,8
 82 693 82 693 78.5 709.5 c 128,-1,9
 75 726 75 726 75 728 c 2,10,-1
 262 728 l 2,11,12
 656 728 656 728 656 362 c 0,13,14
 656 198 656 198 572.5 99 c 128,-1,15
 489 0 489 0 326 0 c 2,0,-1
182 69 m 1,16,-1
 314 69 l 2,17,18
 442 69 442 69 500.5 150 c 128,-1,19
 559 231 559 231 559 364 c 0,20,21
 559 519 559 519 483.5 589 c 128,-1,22
 408 659 408 659 255 659 c 2,23,-1
 182 659 l 1,24,-1
 182 395 l 1,25,-1
 337 395 l 1,26,-1
 337 331 l 1,27,-1
 182 331 l 1,28,-1
 182 69 l 1,16,-1
EndSplineSet
EndChar
StartChar: Ntilde
Encoding: 209 209 143
Width: 714
GlyphClass: 2
Flags: W
LayerCount: 2
Back
Fore
SplineSet
627 -6 m 1,0,-1
 568 -6 l 1,1,-1
 164 557 l 1,2,-1
 164 0 l 1,3,-1
 87 0 l 1,4,-1
 87 602 l 2,5,6
 87 603 87 603 83.5 618 c 128,-1,7
 80 633 80 633 76.5 649.5 c 128,-1,8
 73 666 73 666 73 668 c 2,9,-1
 197 668 l 1,10,-1
 551 180 l 1,11,-1
 551 668 l 1,12,-1
 627 668 l 1,13,-1
 627 -6 l 1,0,-1
481 799 m 1,14,-1
 528 799 l 1,15,16
 524 761 524 761 501.5 730.5 c 128,-1,17
 479 700 479 700 443 700 c 0,18,19
 414 700 414 700 366.5 719.5 c 128,-1,20
 319 739 319 739 294 739 c 0,21,22
 272 739 272 739 260 712 c 1,23,-1
 211 712 l 1,24,25
 216 752 216 752 241 782 c 128,-1,26
 266 812 266 812 305 812 c 0,27,28
 333 812 333 812 380 792.5 c 128,-1,29
 427 773 427 773 445 773 c 0,30,31
 472 773 472 773 481 799 c 1,14,-1
EndSplineSet
EndChar
StartChar: Oacute
Encoding: 211 211 145
Width: 737
GlyphClass: 2
Flags: W
LayerCount: 2
Back
Fore
SplineSet
47 333 m 0,0,1
 47 476 47 476 137.5 577.5 c 128,-1,2
 228 679 228 679 369 679 c 256,3,4
 510 679 510 679 600.5 577.5 c 128,-1,5
 691 476 691 476 691 333 c 0,6,7
 691 191 691 191 600.5 89.5 c 128,-1,8
 510 -12 510 -12 369 -12 c 256,9,10
 228 -12 228 -12 137.5 89.5 c 128,-1,11
 47 191 47 191 47 333 c 0,0,1
369 56 m 0,12,13
 474 56 474 56 533.5 140 c 128,-1,14
 593 224 593 224 593 333 c 0,15,16
 593 443 593 443 533.5 527 c 128,-1,17
 474 611 474 611 369 611 c 0,18,19
 298 611 298 611 245.5 568.5 c 128,-1,20
 193 526 193 526 169 464 c 128,-1,21
 145 402 145 402 145 333 c 0,22,23
 145 224 145 224 205 140 c 128,-1,24
 265 56 265 56 369 56 c 0,12,13
387 718 m 1,25,-1
 309 718 l 1,26,-1
 405 870 l 1,27,-1
 527 870 l 1,28,-1
 387 718 l 1,25,-1
EndSplineSet
EndChar
StartChar: Ocircumflex
Encoding: 212 212 146
Width: 737
GlyphClass: 2
Flags: W
LayerCount: 2
Back
Fore
SplineSet
369 -13 m 0,0,1
 229 -13 229 -13 138 88.5 c 128,-1,2
 47 190 47 190 47 332 c 0,3,4
 47 475 47 475 137.5 576.5 c 128,-1,5
 228 678 228 678 369 678 c 256,6,7
 510 678 510 678 600.5 576.5 c 128,-1,8
 691 475 691 475 691 332 c 0,9,10
 691 190 691 190 600.5 88.5 c 128,-1,11
 510 -13 510 -13 369 -13 c 0,0,1
369 55 m 0,12,13
 474 55 474 55 533.5 139 c 128,-1,14
 593 223 593 223 593 333 c 0,15,16
 593 442 593 442 533.5 526 c 128,-1,17
 474 610 474 610 369 610 c 0,18,19
 265 610 265 610 205 526 c 128,-1,20
 145 442 145 442 145 333 c 0,21,22
 145 264 145 264 169 202 c 128,-1,23
 193 140 193 140 245.5 97.5 c 128,-1,24
 298 55 298 55 369 55 c 0,12,13
512 694 m 1,25,-1
 443 694 l 1,26,-1
 364 776 l 1,27,-1
 288 695 l 1,28,-1
 221 695 l 1,29,-1
 323 849 l 1,30,-1
 406 849 l 1,31,-1
 512 694 l 1,25,-1
EndSplineSet
EndChar
StartChar: Otilde
Encoding: 213 213 147
Width: 736
GlyphClass: 2
Flags: W
LayerCount: 2
Back
Fore
SplineSet
46 333 m 0,0,1
 46 476 46 476 136.5 577.5 c 128,-1,2
 227 679 227 679 368 679 c 256,3,4
 509 679 509 679 599.5 577.5 c 128,-1,5
 690 476 690 476 690 333 c 0,6,7
 690 191 690 191 599.5 89.5 c 128,-1,8
 509 -12 509 -12 368 -12 c 256,9,10
 227 -12 227 -12 136.5 89.5 c 128,-1,11
 46 191 46 191 46 333 c 0,0,1
368 56 m 0,12,13
 473 56 473 56 532.5 140 c 128,-1,14
 592 224 592 224 592 333 c 0,15,16
 592 443 592 443 532.5 527 c 128,-1,17
 473 611 473 611 368 611 c 0,18,19
 297 611 297 611 244.5 568.5 c 128,-1,20
 192 526 192 526 168 464 c 128,-1,21
 144 402 144 402 144 333 c 0,22,23
 144 224 144 224 204 140 c 128,-1,24
 264 56 264 56 368 56 c 0,12,13
486 801 m 1,25,-1
 533 801 l 1,26,27
 529 763 529 763 506.5 732.5 c 128,-1,28
 484 702 484 702 448 702 c 0,29,30
 419 702 419 702 371.5 721.5 c 128,-1,31
 324 741 324 741 299 741 c 0,32,33
 277 741 277 741 265 714 c 1,34,-1
 216 714 l 1,35,36
 221 754 221 754 246 784 c 128,-1,37
 271 814 271 814 310 814 c 0,38,39
 338 814 338 814 385 794.5 c 128,-1,40
 432 775 432 775 450 775 c 0,41,42
 477 775 477 775 486 801 c 1,25,-1
EndSplineSet
EndChar
StartChar: Odieresis
Encoding: 214 214 148
Width: 737
GlyphClass: 2
Flags: W
LayerCount: 2
Back
Fore
SplineSet
47 333 m 0,0,1
 47 476 47 476 137.5 577.5 c 128,-1,2
 228 679 228 679 369 679 c 256,3,4
 510 679 510 679 600.5 577.5 c 128,-1,5
 691 476 691 476 691 333 c 0,6,7
 691 191 691 191 600.5 89.5 c 128,-1,8
 510 -12 510 -12 369 -12 c 256,9,10
 228 -12 228 -12 137.5 89.5 c 128,-1,11
 47 191 47 191 47 333 c 0,0,1
369 56 m 0,12,13
 474 56 474 56 533.5 140 c 128,-1,14
 593 224 593 224 593 333 c 0,15,16
 593 443 593 443 533.5 527 c 128,-1,17
 474 611 474 611 369 611 c 0,18,19
 298 611 298 611 245.5 568.5 c 128,-1,20
 193 526 193 526 169 464 c 128,-1,21
 145 402 145 402 145 333 c 0,22,23
 145 224 145 224 205 140 c 128,-1,24
 265 56 265 56 369 56 c 0,12,13
505 774 m 0,25,26
 505 751 505 751 488 734 c 128,-1,27
 471 717 471 717 448 717 c 256,28,29
 425 717 425 717 408.5 734 c 128,-1,30
 392 751 392 751 392 774 c 128,-1,31
 392 797 392 797 408.5 814 c 128,-1,32
 425 831 425 831 448 831 c 0,33,34
 472 831 472 831 488.5 814.5 c 128,-1,35
 505 798 505 798 505 774 c 0,25,26
342 774 m 0,36,37
 342 751 342 751 325 734 c 128,-1,38
 308 717 308 717 285 717 c 256,39,40
 262 717 262 717 245.5 734 c 128,-1,41
 229 751 229 751 229 774 c 128,-1,42
 229 797 229 797 245.5 814 c 128,-1,43
 262 831 262 831 285 831 c 0,44,45
 309 831 309 831 325.5 814.5 c 128,-1,46
 342 798 342 798 342 774 c 0,36,37
EndSplineSet
EndChar
StartChar: multiply
Encoding: 215 215 149
Width: 534
GlyphClass: 2
Flags: W
LayerCount: 2
Back
Fore
SplineSet
463 94 m 1,0,-1
 419 50 l 1,1,-1
 267 202 l 1,2,-1
 115 50 l 1,3,-1
 71 94 l 1,4,-1
 224 246 l 1,5,-1
 71 398 l 1,6,-1
 115 442 l 1,7,-1
 267 290 l 1,8,-1
 419 442 l 1,9,-1
 463 398 l 1,10,-1
 310 246 l 1,11,-1
 463 94 l 1,0,-1
EndSplineSet
EndChar
StartChar: Oslash
Encoding: 216 216 150
Width: 736
GlyphClass: 2
Flags: W
LayerCount: 2
Back
Fore
SplineSet
126 -57 m 1,0,-1
 74 -24 l 1,1,-1
 142 78 l 1,2,3
 46 181 46 181 46 363 c 0,4,5
 46 524 46 524 130 630 c 128,-1,6
 214 736 214 736 371 736 c 0,7,8
 467 736 467 736 539 690 c 1,9,-1
 589 767 l 1,10,-1
 643 736 l 1,11,-1
 588 652 l 1,12,13
 690 549 690 549 690 361 c 0,14,15
 690 258 690 258 654.5 175 c 128,-1,16
 619 92 619 92 544 39.5 c 128,-1,17
 469 -13 469 -13 365 -13 c 0,18,19
 264 -13 264 -13 189 39 c 1,20,-1
 126 -57 l 1,0,-1
495 624 m 1,21,22
 444 668 444 668 368 668 c 0,23,24
 308 668 308 668 262.5 641.5 c 128,-1,25
 217 615 217 615 192.5 570 c 128,-1,26
 168 525 168 525 156 474 c 128,-1,27
 144 423 144 423 144 366 c 0,28,29
 144 238 144 238 192 158 c 1,30,31
 357 409 357 409 495 624 c 1,21,22
539 575 m 1,32,33
 436 419 436 419 232 107 c 1,34,35
 287 55 287 55 370 55 c 0,36,37
 430 55 430 55 474.5 81.5 c 128,-1,38
 519 108 519 108 544 152.5 c 128,-1,39
 569 197 569 197 580.5 247.5 c 128,-1,40
 592 298 592 298 592 355 c 0,41,42
 592 492 592 492 539 575 c 1,32,33
EndSplineSet
EndChar
StartChar: Ugrave
Encoding: 217 217 151
Width: 707
GlyphClass: 2
Flags: W
LayerCount: 2
Back
Fore
SplineSet
543 257 m 2,0,-1
 543 668 l 1,1,-1
 620 668 l 1,2,-1
 620 257 l 2,3,4
 620 130 620 130 549.5 58.5 c 128,-1,5
 479 -13 479 -13 351 -13 c 0,6,7
 224 -13 224 -13 155 52.5 c 128,-1,8
 86 118 86 118 86 243 c 2,9,-1
 86 603 l 2,10,11
 86 604 86 604 82.5 619 c 128,-1,12
 79 634 79 634 75 650 c 128,-1,13
 71 666 71 666 71 668 c 2,14,-1
 181 668 l 1,15,-1
 181 243 l 2,16,17
 181 155 181 155 224.5 105.5 c 128,-1,18
 268 56 268 56 355 56 c 0,19,20
 445 56 445 56 494 111 c 128,-1,21
 543 166 543 166 543 257 c 2,0,-1
404 721 m 1,22,-1
 326 721 l 1,23,-1
 186 873 l 1,24,-1
 309 873 l 1,25,-1
 404 721 l 1,22,-1
EndSplineSet
EndChar
StartChar: Uacute
Encoding: 218 218 152
Width: 707
GlyphClass: 2
Flags: W
LayerCount: 2
Back
Fore
SplineSet
543 258 m 2,0,-1
 543 669 l 1,1,-1
 620 669 l 1,2,-1
 620 258 l 2,3,4
 620 131 620 131 549.5 59.5 c 128,-1,5
 479 -12 479 -12 351 -12 c 0,6,7
 224 -12 224 -12 155 53.5 c 128,-1,8
 86 119 86 119 86 244 c 2,9,-1
 86 604 l 2,10,11
 86 605 86 605 82.5 620 c 128,-1,12
 79 635 79 635 75 651 c 128,-1,13
 71 667 71 667 71 669 c 2,14,-1
 181 669 l 1,15,-1
 181 244 l 2,16,17
 181 156 181 156 224.5 106.5 c 128,-1,18
 268 57 268 57 355 57 c 0,19,20
 445 57 445 57 494 112 c 128,-1,21
 543 167 543 167 543 258 c 2,0,-1
392 717 m 1,22,-1
 314 717 l 1,23,-1
 410 869 l 1,24,-1
 532 869 l 1,25,-1
 392 717 l 1,22,-1
EndSplineSet
EndChar
StartChar: Udieresis
Encoding: 220 220 154
Width: 707
GlyphClass: 2
Flags: W
LayerCount: 2
Back
Fore
SplineSet
543 258 m 2,0,-1
 543 669 l 1,1,-1
 620 669 l 1,2,-1
 620 258 l 2,3,4
 620 131 620 131 549.5 59.5 c 128,-1,5
 479 -12 479 -12 351 -12 c 0,6,7
 224 -12 224 -12 155 53 c 128,-1,8
 86 118 86 118 86 244 c 2,9,-1
 86 604 l 2,10,11
 86 605 86 605 82.5 620 c 128,-1,12
 79 635 79 635 75 651 c 128,-1,13
 71 667 71 667 71 669 c 2,14,-1
 181 669 l 1,15,-1
 181 244 l 2,16,17
 181 156 181 156 224.5 106.5 c 128,-1,18
 268 57 268 57 355 57 c 0,19,20
 445 57 445 57 494 112 c 128,-1,21
 543 167 543 167 543 258 c 2,0,-1
502 774 m 0,22,23
 502 751 502 751 485 734 c 128,-1,24
 468 717 468 717 445 717 c 256,25,26
 422 717 422 717 405.5 734 c 128,-1,27
 389 751 389 751 389 774 c 128,-1,28
 389 797 389 797 405.5 814 c 128,-1,29
 422 831 422 831 445 831 c 0,30,31
 469 831 469 831 485.5 814.5 c 128,-1,32
 502 798 502 798 502 774 c 0,22,23
339 774 m 0,33,34
 339 751 339 751 322 734 c 128,-1,35
 305 717 305 717 282 717 c 256,36,37
 259 717 259 717 242.5 734 c 128,-1,38
 226 751 226 751 226 774 c 128,-1,39
 226 797 226 797 242.5 814 c 128,-1,40
 259 831 259 831 282 831 c 0,41,42
 306 831 306 831 322.5 814.5 c 128,-1,43
 339 798 339 798 339 774 c 0,33,34
EndSplineSet
EndChar
StartChar: Yacute
Encoding: 221 221 155
Width: 584
GlyphClass: 2
Flags: W
LayerCount: 2
Back
Fore
SplineSet
343 0 m 1,0,-1
 248 0 l 1,1,-1
 248 300 l 1,2,-1
 32 669 l 1,3,-1
 139 669 l 1,4,-1
 308 385 l 1,5,-1
 465 669 l 1,6,-1
 553 669 l 1,7,-1
 343 300 l 1,8,-1
 343 0 l 1,0,-1
344 717 m 1,9,-1
 266 717 l 1,10,-1
 362 869 l 1,11,-1
 484 869 l 1,12,-1
 344 717 l 1,9,-1
EndSplineSet
EndChar
StartChar: Thorn
Encoding: 222 222 156
Width: 575
GlyphClass: 2
Flags: W
LayerCount: 2
Back
Fore
SplineSet
182 251 m 1,0,-1
 289 251 l 2,1,2
 356 251 356 251 395.5 292 c 128,-1,3
 435 333 435 333 435 400 c 128,-1,4
 435 467 435 467 397.5 504.5 c 128,-1,5
 360 542 360 542 290 542 c 2,6,-1
 182 542 l 1,7,-1
 182 251 l 1,0,-1
182 1 m 1,8,-1
 89 1 l 1,9,-1
 89 662 l 1,10,-1
 74 728 l 1,11,-1
 183 728 l 1,12,-1
 183 611 l 1,13,-1
 282 611 l 2,14,15
 397 611 397 611 465 560.5 c 128,-1,16
 533 510 533 510 533 400 c 0,17,18
 533 293 533 293 462 238 c 128,-1,19
 391 183 391 183 283 183 c 2,20,-1
 182 183 l 1,21,-1
 182 1 l 1,8,-1
EndSplineSet
EndChar
StartChar: germandbls
Encoding: 223 223 157
Width: 552
GlyphClass: 2
Flags: W
LayerCount: 2
Back
Fore
SplineSet
236 8 m 1,0,-1
 264 66 l 1,1,2
 312 53 312 53 333 53 c 0,3,4
 378 53 378 53 412.5 85 c 128,-1,5
 447 117 447 117 447 169 c 0,6,7
 447 207 447 207 426.5 235.5 c 128,-1,8
 406 264 406 264 377 282 c 128,-1,9
 348 300 348 300 319 316 c 128,-1,10
 290 332 290 332 269.5 353 c 128,-1,11
 249 374 249 374 249 400 c 0,12,13
 249 422 249 422 270.5 442.5 c 128,-1,14
 292 463 292 463 317.5 478 c 128,-1,15
 343 493 343 493 364.5 520.5 c 128,-1,16
 386 548 386 548 386 582 c 0,17,18
 386 671 386 671 306 671 c 0,19,20
 270 671 270 671 244.5 652 c 128,-1,21
 219 633 219 633 207 601.5 c 128,-1,22
 195 570 195 570 190 539 c 128,-1,23
 185 508 185 508 185 474 c 2,24,-1
 185 0 l 1,25,-1
 102 0 l 1,26,-1
 102 434 l 1,27,-1
 28 434 l 1,28,-1
 28 489 l 1,29,30
 73 489 73 489 89 505 c 128,-1,31
 105 521 105 521 115 568 c 0,32,33
 154 741 154 741 306 741 c 0,34,35
 385 741 385 741 429.5 700.5 c 128,-1,36
 474 660 474 660 474 583 c 0,37,38
 474 563 474 563 471 546 c 128,-1,39
 468 529 468 529 460 515.5 c 128,-1,40
 452 502 452 502 446.5 493 c 128,-1,41
 441 484 441 484 426 473 c 128,-1,42
 411 462 411 462 404 457.5 c 128,-1,43
 397 453 397 453 377.5 441.5 c 128,-1,44
 358 430 358 430 351 426 c 0,45,46
 322 409 322 409 322 404 c 0,47,48
 322 395 322 395 367 373 c 0,49,50
 399 358 399 358 417 348.5 c 128,-1,51
 435 339 435 339 461 321 c 128,-1,52
 487 303 487 303 500.5 285.5 c 128,-1,53
 514 268 514 268 524.5 241.5 c 128,-1,54
 535 215 535 215 535 184 c 0,55,56
 535 95 535 95 482 41.5 c 128,-1,57
 429 -12 429 -12 341 -12 c 0,58,59
 288 -12 288 -12 236 8 c 1,0,-1
EndSplineSet
EndChar
StartChar: ae
Encoding: 230 230 164
Width: 750
GlyphClass: 2
Flags: W
LayerCount: 2
Back
Fore
SplineSet
677 102 m 1,0,-1
 717 41 l 1,1,2
 646 -13 646 -13 551 -13 c 0,3,4
 432 -13 432 -13 359 85 c 1,5,6
 324 34 324 34 282.5 11 c 128,-1,7
 241 -12 241 -12 179 -12 c 0,8,9
 116 -12 116 -12 78.5 24 c 128,-1,10
 41 60 41 60 41 122 c 0,11,12
 41 166 41 166 59.5 199 c 128,-1,13
 78 232 78 232 106.5 251.5 c 128,-1,14
 135 271 135 271 174.5 283 c 128,-1,15
 214 295 214 295 250.5 299 c 128,-1,16
 287 303 287 303 327 303 c 1,17,18
 328 311 328 311 328 327 c 0,19,20
 328 376 328 376 309 410 c 128,-1,21
 290 444 290 444 244 444 c 0,22,23
 205 444 205 444 165 428 c 128,-1,24
 125 412 125 412 100 385 c 1,25,-1
 59 443 l 1,26,27
 85 473 85 473 143.5 491 c 128,-1,28
 202 509 202 509 248 509 c 0,29,30
 346 509 346 509 386 444 c 1,31,32
 413 474 413 474 453 491.5 c 128,-1,33
 493 509 493 509 533 509 c 0,34,35
 624 509 624 509 672 459 c 128,-1,36
 720 409 720 409 720 317 c 0,37,38
 720 280 720 280 707 260.5 c 128,-1,39
 694 241 694 241 659 241 c 2,40,-1
 405 241 l 1,41,-1
 405 224 l 2,42,43
 405 161 405 161 445 109 c 128,-1,44
 485 57 485 57 547 57 c 0,45,46
 580 57 580 57 617 69 c 128,-1,47
 654 81 654 81 677 102 c 1,0,-1
411 303 m 1,48,-1
 615 303 l 2,49,50
 628 303 628 303 633.5 307.5 c 128,-1,51
 639 312 639 312 639 325 c 0,52,53
 639 377 639 377 616 411.5 c 128,-1,54
 593 446 593 446 543 446 c 0,55,56
 488 446 488 446 453.5 404 c 128,-1,57
 419 362 419 362 411 303 c 1,48,-1
326 204 m 2,58,-1
 326 239 l 1,59,-1
 312 239 l 2,60,61
 270 239 270 239 231.5 231 c 128,-1,62
 193 223 193 223 160 196.5 c 128,-1,63
 127 170 127 170 127 128 c 0,64,65
 127 95 127 95 149 77 c 128,-1,66
 171 59 171 59 205 59 c 0,67,68
 261 59 261 59 293.5 102.5 c 128,-1,69
 326 146 326 146 326 204 c 2,58,-1
EndSplineSet
EndChar
StartChar: ccedilla
Encoding: 231 231 165
Width: 450
GlyphClass: 2
Flags: W
LayerCount: 2
Back
Fore
SplineSet
151 -192 m 1,0,-1
 175 -146 l 1,1,2
 217 -169 217 -169 239 -169 c 0,3,4
 257 -169 257 -169 270 -158 c 128,-1,5
 283 -147 283 -147 283 -130 c 0,6,7
 283 -114 283 -114 272.5 -104.5 c 128,-1,8
 262 -95 262 -95 245 -95 c 2,9,-1
 198 -95 l 2,10,11
 182 -95 182 -95 182 -83 c 0,12,13
 182 -81 182 -81 184 -77 c 2,14,-1
 223 -8 l 1,15,16
 142 10 142 10 93 84.5 c 128,-1,17
 44 159 44 159 44 248 c 0,18,19
 44 361 44 361 107.5 435 c 128,-1,20
 171 509 171 509 282 509 c 0,21,22
 359 509 359 509 426 458 c 1,23,-1
 381 400 l 1,24,25
 352 425 352 425 328.5 434.5 c 128,-1,26
 305 444 305 444 269 444 c 0,27,28
 204 444 204 444 168.5 385 c 128,-1,29
 133 326 133 326 133 257 c 0,30,31
 133 211 133 211 146.5 167.5 c 128,-1,32
 160 124 160 124 193.5 90 c 128,-1,33
 227 56 227 56 274 56 c 0,34,35
 310 56 310 56 335 66 c 128,-1,36
 360 76 360 76 395 100 c 1,37,-1
 433 37 l 1,38,39
 386 9 386 9 352.5 -2 c 128,-1,40
 319 -13 319 -13 268 -13 c 1,41,-1
 250 -46 l 1,42,-1
 262 -46 l 2,43,44
 303 -46 303 -46 334.5 -66 c 128,-1,45
 366 -86 366 -86 366 -127 c 0,46,47
 366 -220 366 -220 239 -220 c 0,48,49
 195 -220 195 -220 151 -192 c 1,0,-1
EndSplineSet
EndChar
StartChar: eth
Encoding: 240 240 174
Width: 536
GlyphClass: 2
Flags: W
LayerCount: 2
Back
Fore
SplineSet
400 729 m 1,0,-1
 299 673 l 1,1,2
 491 443 491 443 491 247 c 0,3,4
 491 139 491 139 431 64.5 c 128,-1,5
 371 -10 371 -10 268 -10 c 256,6,7
 165 -10 165 -10 105 64.5 c 128,-1,8
 45 139 45 139 45 247 c 128,-1,9
 45 355 45 355 105.5 430 c 128,-1,10
 166 505 166 505 268 505 c 0,11,12
 302 505 302 505 335 492 c 1,13,14
 295 569 295 569 239 640 c 1,15,-1
 134 582 l 1,16,-1
 103 622 l 1,17,-1
 207 680 l 1,18,19
 181 709 181 709 150 739 c 1,20,-1
 205 772 l 1,21,22
 246 733 246 733 265 712 c 1,23,-1
 372 771 l 1,24,-1
 400 729 l 1,0,-1
403 247 m 0,25,26
 403 293 403 293 392 335 c 128,-1,27
 381 377 381 377 349 411 c 128,-1,28
 317 445 317 445 268 445 c 0,29,30
 220 445 220 445 187.5 410.5 c 128,-1,31
 155 376 155 376 144 334 c 128,-1,32
 133 292 133 292 133 247 c 0,33,34
 133 201 133 201 144 159.5 c 128,-1,35
 155 118 155 118 187.5 84 c 128,-1,36
 220 50 220 50 268 50 c 0,37,38
 305 50 305 50 333 69 c 128,-1,39
 361 88 361 88 375.5 118.5 c 128,-1,40
 390 149 390 149 396.5 181.5 c 128,-1,41
 403 214 403 214 403 247 c 0,25,26
EndSplineSet
EndChar
StartChar: ntilde
Encoding: 241 241 175
Width: 547
GlyphClass: 2
Flags: W
LayerCount: 2
Back
Fore
SplineSet
388 672 m 1,0,-1
 435 672 l 1,1,2
 431 634 431 634 408.5 603.5 c 128,-1,3
 386 573 386 573 350 573 c 0,4,5
 321 573 321 573 273.5 592.5 c 128,-1,6
 226 612 226 612 201 612 c 0,7,8
 190 612 190 612 180 604 c 128,-1,9
 170 596 170 596 167 585 c 1,10,-1
 117 585 l 1,11,12
 123 625 123 625 148 655 c 128,-1,13
 173 685 173 685 211 685 c 0,14,15
 240 685 240 685 287 665.5 c 128,-1,16
 334 646 334 646 352 646 c 0,17,18
 374 646 374 646 388 672 c 1,0,-1
464 0 m 1,19,-1
 382 0 l 1,20,-1
 382 305 l 2,21,22
 382 328 382 328 381 343 c 128,-1,23
 380 358 380 358 375.5 377 c 128,-1,24
 371 396 371 396 362.5 407.5 c 128,-1,25
 354 419 354 419 337.5 427 c 128,-1,26
 321 435 321 435 298 435 c 0,27,28
 232 435 232 435 162 369 c 1,29,-1
 162 0 l 1,30,-1
 80 0 l 1,31,-1
 80 352 l 2,32,33
 80 448 80 448 47 493 c 1,34,-1
 138 505 l 1,35,36
 153 467 153 467 157 434 c 1,37,38
 232 509 232 509 312 509 c 0,39,40
 391 509 391 509 427.5 461.5 c 128,-1,41
 464 414 464 414 464 332 c 2,42,-1
 464 0 l 1,19,-1
EndSplineSet
EndChar
StartChar: divide
Encoding: 247 247 181
Width: 630
GlyphClass: 2
Flags: W
LayerCount: 2
Back
Fore
SplineSet
358 456 m 0,0,1
 376 438 376 438 376 413 c 128,-1,2
 376 388 376 388 358.5 370.5 c 128,-1,3
 341 353 341 353 316 353 c 256,4,5
 291 353 291 353 273 370.5 c 128,-1,6
 255 388 255 388 255 413 c 128,-1,7
 255 438 255 438 273 456 c 128,-1,8
 291 474 291 474 316 474 c 256,9,10
 341 474 341 474 358 456 c 0,0,1
567 211 m 1,11,-1
 68 211 l 1,12,-1
 68 281 l 1,13,-1
 567 281 l 1,14,-1
 567 211 l 1,11,-1
358 122 m 0,15,16
 376 105 376 105 376 80 c 128,-1,17
 376 55 376 55 358.5 37.5 c 128,-1,18
 341 20 341 20 316 20 c 256,19,20
 291 20 291 20 273 37.5 c 128,-1,21
 255 55 255 55 255 80 c 128,-1,22
 255 105 255 105 273 122.5 c 128,-1,23
 291 140 291 140 316 140 c 256,24,25
 341 140 341 140 358 122 c 0,15,16
EndSplineSet
EndChar
StartChar: oslash
Encoding: 248 248 182
Width: 537
GlyphClass: 2
Flags: W
LayerCount: 2
Back
Fore
SplineSet
101 -69 m 1,0,-1
 54 -38 l 1,1,-1
 113 53 l 1,2,3
 44 126 44 126 44 248 c 0,4,5
 44 355 44 355 104 432 c 128,-1,6
 164 509 164 509 268 509 c 0,7,8
 325 509 325 509 376 482 c 1,9,-1
 420 553 l 1,10,-1
 470 526 l 1,11,-1
 421 446 l 1,12,13
 493 373 493 373 493 248 c 0,14,15
 493 139 493 139 433.5 63 c 128,-1,16
 374 -13 374 -13 268 -13 c 0,17,18
 206 -13 206 -13 157 17 c 1,19,-1
 101 -69 l 1,0,-1
158 127 m 1,20,-1
 339 422 l 1,21,22
 307 446 307 446 268 446 c 0,23,24
 198 446 198 446 163.5 385.5 c 128,-1,25
 129 325 129 325 129 248 c 0,26,27
 129 176 129 176 158 127 c 1,20,-1
378 375 m 1,28,-1
 194 79 l 1,29,30
 226 50 226 50 268 50 c 0,31,32
 317 50 317 50 349.5 82.5 c 128,-1,33
 382 115 382 115 394.5 157.5 c 128,-1,34
 407 200 407 200 407 248 c 0,35,36
 407 323 407 323 378 375 c 1,28,-1
EndSplineSet
EndChar
StartChar: thorn
Encoding: 254 254 188
Width: 557
GlyphClass: 2
Flags: W
LayerCount: 2
Back
Fore
SplineSet
166 -212 m 1,0,-1
 84 -212 l 1,1,-1
 84 704 l 2,2,3
 84 705 84 705 80.5 718.5 c 128,-1,4
 77 732 77 732 73.5 746 c 128,-1,5
 70 760 70 760 70 762 c 2,6,-1
 166 762 l 1,7,-1
 166 438 l 1,8,9
 232 504 232 504 317 504 c 0,10,11
 380 504 380 504 425.5 465.5 c 128,-1,12
 471 427 471 427 491 371.5 c 128,-1,13
 511 316 511 316 511 253 c 0,14,15
 511 143 511 143 452.5 66 c 128,-1,16
 394 -11 394 -11 294 -11 c 0,17,18
 217 -11 217 -11 166 43 c 1,19,-1
 166 -212 l 1,0,-1
166 372 m 1,20,-1
 166 204 l 2,21,22
 166 137 166 137 199 93 c 128,-1,23
 232 49 232 49 291 49 c 0,24,25
 327 49 327 49 354 68.5 c 128,-1,26
 381 88 381 88 395.5 119 c 128,-1,27
 410 150 410 150 416.5 183 c 128,-1,28
 423 216 423 216 423 249 c 0,29,30
 423 323 423 323 391 380.5 c 128,-1,31
 359 438 359 438 291 438 c 0,32,33
 221 438 221 438 166 372 c 1,20,-1
EndSplineSet
EndChar
StartChar: dotlessi
Encoding: 305 305 190
Width: 252
GlyphClass: 2
Flags: W
LayerCount: 2
Back
Fore
SplineSet
167 0 m 1,0,-1
 84 0 l 1,1,-1
 84 438 l 2,2,3
 84 439 84 439 81 452.5 c 128,-1,4
 78 466 78 466 75 480.5 c 128,-1,5
 72 495 72 495 72 497 c 2,6,-1
 167 497 l 1,7,-1
 167 0 l 1,0,-1
EndSplineSet
EndChar
StartChar: Lslash
Encoding: 321 321 191
Width: 493
GlyphClass: 2
Flags: W
LayerCount: 2
Back
Fore
SplineSet
485 0 m 1,0,-1
 86 0 l 1,1,-1
 86 277 l 1,2,-1
 8 241 l 1,3,-1
 8 310 l 1,4,-1
 86 346 l 1,5,-1
 86 662 l 2,6,7
 86 663 86 663 82.5 678 c 128,-1,8
 79 693 79 693 75.5 709.5 c 128,-1,9
 72 726 72 726 72 728 c 2,10,-1
 179 728 l 1,11,-1
 179 389 l 1,12,-1
 385 485 l 1,13,-1
 385 416 l 1,14,-1
 179 320 l 1,15,-1
 179 69 l 1,16,-1
 485 69 l 1,17,-1
 485 0 l 1,0,-1
EndSplineSet
EndChar
StartChar: lslash
Encoding: 322 322 192
Width: 247
GlyphClass: 2
Flags: W
LayerCount: 2
Back
Fore
SplineSet
165 0 m 1,0,-1
 82 0 l 1,1,-1
 82 298 l 1,2,-1
 11 265 l 1,3,-1
 11 334 l 1,4,-1
 82 367 l 1,5,-1
 82 703 l 2,6,7
 82 704 82 704 79 717 c 128,-1,8
 76 730 76 730 72.5 744.5 c 128,-1,9
 69 759 69 759 69 761 c 2,10,-1
 165 761 l 1,11,-1
 165 406 l 1,12,-1
 236 439 l 1,13,-1
 236 370 l 1,14,-1
 165 337 l 1,15,-1
 165 0 l 1,0,-1
EndSplineSet
EndChar
StartChar: OE
Encoding: 338 338 193
Width: 1048
GlyphClass: 2
Flags: W
LayerCount: 2
Back
Fore
SplineSet
1021 0 m 1,0,-1
 598 0 l 1,1,-1
 598 94 l 1,2,3
 511 -12 511 -12 370 -12 c 0,4,5
 291 -12 291 -12 228.5 18.5 c 128,-1,6
 166 49 166 49 128 102 c 128,-1,7
 90 155 90 155 70.5 221.5 c 128,-1,8
 51 288 51 288 51 364 c 0,9,10
 51 525 51 525 135 631 c 128,-1,11
 219 737 219 737 376 737 c 0,12,13
 519 737 519 737 599 633 c 1,14,-1
 599 728 l 1,15,-1
 1021 728 l 1,16,-1
 1021 658 l 1,17,-1
 692 658 l 1,18,-1
 692 410 l 1,19,-1
 947 410 l 1,20,-1
 947 338 l 1,21,-1
 692 338 l 1,22,-1
 692 71 l 1,23,-1
 1021 71 l 1,24,-1
 1021 0 l 1,0,-1
598 364 m 0,25,26
 598 421 598 421 586 473 c 128,-1,27
 574 525 574 525 549 570 c 128,-1,28
 524 615 524 615 479 642 c 128,-1,29
 434 669 434 669 373 669 c 256,30,31
 312 669 312 669 267 642 c 128,-1,32
 222 615 222 615 197 569 c 128,-1,33
 172 523 172 523 160.5 471.5 c 128,-1,34
 149 420 149 420 149 363 c 128,-1,35
 149 306 149 306 160.5 254.5 c 128,-1,36
 172 203 172 203 197 157.5 c 128,-1,37
 222 112 222 112 267 85 c 128,-1,38
 312 58 312 58 373 58 c 256,39,40
 434 58 434 58 479.5 85 c 128,-1,41
 525 112 525 112 550 157.5 c 128,-1,42
 575 203 575 203 586.5 254.5 c 128,-1,43
 598 306 598 306 598 364 c 0,25,26
EndSplineSet
EndChar
StartChar: oe
Encoding: 339 339 194
Width: 842
GlyphClass: 2
Flags: W
LayerCount: 2
Back
Fore
SplineSet
769 104 m 1,0,-1
 804 43 l 1,1,2
 740 -13 740 -13 637 -13 c 0,3,4
 580 -13 580 -13 529.5 12.5 c 128,-1,5
 479 38 479 38 449 84 c 1,6,7
 387 -13 387 -13 269 -13 c 0,8,9
 164 -13 164 -13 104 63.5 c 128,-1,10
 44 140 44 140 44 248 c 0,11,12
 44 355 44 355 104.5 432 c 128,-1,13
 165 509 165 509 269 509 c 0,14,15
 388 509 388 509 450 410 c 1,16,17
 478 455 478 455 523.5 482 c 128,-1,18
 569 509 569 509 621 509 c 0,19,20
 705 509 705 509 756.5 456.5 c 128,-1,21
 808 404 808 404 808 320 c 0,22,23
 808 256 808 256 761 256 c 2,24,-1
 494 256 l 1,25,26
 495 204 495 204 509 161 c 128,-1,27
 523 118 523 118 558.5 87.5 c 128,-1,28
 594 57 594 57 647 57 c 0,29,30
 677 57 677 57 711 70.5 c 128,-1,31
 745 84 745 84 769 104 c 1,0,-1
501 318 m 1,32,-1
 703 318 l 2,33,34
 712 318 712 318 716 318.5 c 128,-1,35
 720 319 720 319 723.5 323 c 128,-1,36
 727 327 727 327 727 336 c 0,37,38
 727 383 727 383 701 414.5 c 128,-1,39
 675 446 675 446 629 446 c 0,40,41
 581 446 581 446 545 407 c 128,-1,42
 509 368 509 368 501 318 c 1,32,-1
269 50 m 0,43,44
 318 50 318 50 350.5 83 c 128,-1,45
 383 116 383 116 395 158 c 128,-1,46
 407 200 407 200 407 248 c 0,47,48
 407 294 407 294 394.5 337 c 128,-1,49
 382 380 382 380 349.5 413 c 128,-1,50
 317 446 317 446 269 446 c 0,51,52
 199 446 199 446 164.5 385 c 128,-1,53
 130 324 130 324 130 248 c 0,54,55
 130 204 130 204 143.5 160.5 c 128,-1,56
 157 117 157 117 190 83.5 c 128,-1,57
 223 50 223 50 269 50 c 0,43,44
EndSplineSet
EndChar
StartChar: Scaron
Encoding: 352 352 195
Width: 516
GlyphClass: 2
Flags: W
LayerCount: 2
Back
Fore
SplineSet
32 42 m 1,0,-1
 68 124 l 1,1,2
 101 95 101 95 148 77.5 c 128,-1,3
 195 60 195 60 238 60 c 0,4,5
 295 60 295 60 340 90 c 128,-1,6
 385 120 385 120 385 177 c 0,7,8
 385 212 385 212 366.5 237.5 c 128,-1,9
 348 263 348 263 319 279.5 c 128,-1,10
 290 296 290 296 254 310 c 128,-1,11
 218 324 218 324 182.5 339.5 c 128,-1,12
 147 355 147 355 118 374.5 c 128,-1,13
 89 394 89 394 70.5 426 c 128,-1,14
 52 458 52 458 52 500 c 0,15,16
 52 582 52 582 120.5 630.5 c 128,-1,17
 189 679 189 679 280 679 c 0,18,19
 377 679 377 679 468 625 c 1,20,-1
 422 558 l 1,21,22
 352 608 352 608 279 608 c 0,23,24
 223 608 223 608 187.5 582.5 c 128,-1,25
 152 557 152 557 152 508 c 0,26,27
 152 470 152 470 186.5 442.5 c 128,-1,28
 221 415 221 415 269.5 396 c 128,-1,29
 318 377 318 377 367 354.5 c 128,-1,30
 416 332 416 332 450.5 290.5 c 128,-1,31
 485 249 485 249 485 190 c 0,32,33
 485 92 485 92 413 40 c 128,-1,34
 341 -12 341 -12 235 -12 c 0,35,36
 137 -12 137 -12 32 42 c 1,0,-1
306 697 m 1,37,-1
 222 697 l 1,38,-1
 118 873 l 1,39,-1
 187 873 l 1,40,-1
 264 770 l 1,41,-1
 341 873 l 1,42,-1
 409 873 l 1,43,-1
 306 697 l 1,37,-1
EndSplineSet
EndChar
StartChar: Ydieresis
Encoding: 376 376 197
Width: 584
GlyphClass: 2
Flags: W
LayerCount: 2
Back
Fore
SplineSet
343 0 m 1,0,-1
 248 0 l 1,1,-1
 248 300 l 1,2,-1
 32 669 l 1,3,-1
 139 669 l 1,4,-1
 308 385 l 1,5,-1
 465 669 l 1,6,-1
 553 669 l 1,7,-1
 343 300 l 1,8,-1
 343 0 l 1,0,-1
440 774 m 0,9,10
 440 751 440 751 423 734 c 128,-1,11
 406 717 406 717 383 717 c 256,12,13
 360 717 360 717 343.5 734 c 128,-1,14
 327 751 327 751 327 774 c 128,-1,15
 327 797 327 797 343.5 814 c 128,-1,16
 360 831 360 831 383 831 c 0,17,18
 407 831 407 831 423.5 814.5 c 128,-1,19
 440 798 440 798 440 774 c 0,9,10
277 774 m 0,20,21
 277 751 277 751 260 734 c 128,-1,22
 243 717 243 717 220 717 c 256,23,24
 197 717 197 717 180.5 734 c 128,-1,25
 164 751 164 751 164 774 c 128,-1,26
 164 797 164 797 180.5 814 c 128,-1,27
 197 831 197 831 220 831 c 0,28,29
 244 831 244 831 260.5 814.5 c 128,-1,30
 277 798 277 798 277 774 c 0,20,21
EndSplineSet
EndChar
StartChar: Zcaron
Encoding: 381 381 198
Width: 571
GlyphClass: 2
Flags: W
LayerCount: 2
Back
Fore
SplineSet
529 0 m 1,0,-1
 35 0 l 1,1,-1
 35 67 l 1,2,-1
 413 599 l 1,3,-1
 57 599 l 1,4,-1
 57 668 l 1,5,-1
 524 668 l 1,6,-1
 524 601 l 1,7,-1
 146 69 l 1,8,-1
 537 69 l 1,9,-1
 529 0 l 1,0,-1
341 697 m 1,10,-1
 257 697 l 1,11,-1
 153 873 l 1,12,-1
 222 873 l 1,13,-1
 299 770 l 1,14,-1
 376 873 l 1,15,-1
 444 873 l 1,16,-1
 341 697 l 1,10,-1
EndSplineSet
EndChar
StartChar: florin
Encoding: 402 402 200
Width: 297
GlyphClass: 2
Flags: W
LayerCount: 2
Back
Fore
SplineSet
-98 -217 m 1,0,-1
 -81 -157 l 1,1,-1
 -75 -157 l 2,2,3
 -40 -157 -40 -157 -17.5 -129 c 128,-1,4
 5 -101 5 -101 12 -63 c 2,5,-1
 98 434 l 1,6,-1
 20 434 l 1,7,-1
 20 487 l 1,8,9
 75 490 75 490 81 491 c 0,10,11
 98 495 98 495 110 522 c 128,-1,12
 122 549 122 549 132.5 584.5 c 128,-1,13
 143 620 143 620 160.5 655 c 128,-1,14
 178 690 178 690 217 714 c 128,-1,15
 256 738 256 738 313 738 c 0,16,17
 355 738 355 738 394 711 c 1,18,-1
 374 641 l 1,19,20
 346 674 346 674 292 674 c 0,21,22
 225 674 225 674 193 497 c 1,23,-1
 335 497 l 1,24,-1
 317 434 l 1,25,-1
 184 434 l 1,26,27
 143 157 143 157 106 -31 c 0,28,29
 90 -113 90 -113 47 -166 c 128,-1,30
 4 -219 4 -219 -72 -219 c 0,31,32
 -90 -219 -90 -219 -98 -217 c 1,0,-1
EndSplineSet
EndChar
StartChar: circumflex
Encoding: 710 710 201
Width: 275
GlyphClass: 2
Flags: W
LayerCount: 2
Back
Fore
SplineSet
283 565 m 1,0,-1
 214 565 l 1,1,-1
 135 647 l 1,2,-1
 59 566 l 1,3,-1
 -8 566 l 1,4,-1
 94 720 l 1,5,-1
 177 720 l 1,6,-1
 283 565 l 1,0,-1
EndSplineSet
EndChar
StartChar: caron
Encoding: 711 711 202
Width: 275
GlyphClass: 2
Flags: W
LayerCount: 2
Back
Fore
SplineSet
180 547 m 1,0,-1
 96 547 l 1,1,-1
 -8 723 l 1,2,-1
 61 723 l 1,3,-1
 138 620 l 1,4,-1
 215 723 l 1,5,-1
 283 723 l 1,6,-1
 180 547 l 1,0,-1
EndSplineSet
EndChar
StartChar: breve
Encoding: 728 728 203
Width: 276
GlyphClass: 2
Flags: W
LayerCount: 2
Back
Fore
SplineSet
228 701 m 1,0,-1
 277 701 l 1,1,2
 262 562 262 562 138 562 c 0,3,4
 75 562 75 562 40 599.5 c 128,-1,5
 5 637 5 637 -2 701 c 1,6,-1
 48 701 l 1,7,8
 63 631 63 631 138 631 c 0,9,10
 212 631 212 631 228 701 c 1,0,-1
EndSplineSet
EndChar
StartChar: dotaccent
Encoding: 729 729 204
Width: 285
GlyphClass: 2
Flags: W
LayerCount: 2
Back
Fore
SplineSet
77 625 m 0,0,1
 77 653 77 653 96 672 c 128,-1,2
 115 691 115 691 143 691 c 0,3,4
 170 691 170 691 189.5 671.5 c 128,-1,5
 209 652 209 652 209 625 c 128,-1,6
 209 598 209 598 189.5 578.5 c 128,-1,7
 170 559 170 559 143 559 c 256,8,9
 116 559 116 559 96.5 578.5 c 128,-1,10
 77 598 77 598 77 625 c 0,0,1
EndSplineSet
EndChar
StartChar: ring
Encoding: 730 730 205
Width: 281
GlyphClass: 2
Flags: W
LayerCount: 2
Back
Fore
SplineSet
239 650 m 0,0,1
 239 610 239 610 209.5 580.5 c 128,-1,2
 180 551 180 551 140 551 c 256,3,4
 100 551 100 551 70.5 580.5 c 128,-1,5
 41 610 41 610 41 650 c 0,6,7
 41 691 41 691 70.5 720.5 c 128,-1,8
 100 750 100 750 140 750 c 0,9,10
 181 750 181 750 210 720.5 c 128,-1,11
 239 691 239 691 239 650 c 0,0,1
174 616 m 256,12,13
 188 630 188 630 188 650 c 128,-1,14
 188 670 188 670 174 684 c 128,-1,15
 160 698 160 698 140 698 c 256,16,17
 120 698 120 698 106 684 c 128,-1,18
 92 670 92 670 92 650 c 128,-1,19
 92 630 92 630 106 616 c 128,-1,20
 120 602 120 602 140 602 c 256,21,22
 160 602 160 602 174 616 c 256,12,13
EndSplineSet
EndChar
StartChar: ogonek
Encoding: 731 731 206
Width: 279
GlyphClass: 2
Flags: W
LayerCount: 2
Back
Fore
SplineSet
237 -115 m 1,0,-1
 254 -152 l 1,1,2
 188 -202 188 -202 121 -202 c 0,3,4
 79 -202 79 -202 52 -180.5 c 128,-1,5
 25 -159 25 -159 25 -118 c 0,6,7
 25 -67 25 -67 88 -26 c 128,-1,8
 151 15 151 15 211 25 c 1,9,-1
 231 14 l 2,10,11
 228 12 228 12 211.5 3.5 c 128,-1,12
 195 -5 195 -5 188 -9.5 c 128,-1,13
 181 -14 181 -14 166 -23.5 c 128,-1,14
 151 -33 151 -33 143 -40.5 c 128,-1,15
 135 -48 135 -48 125.5 -58.5 c 128,-1,16
 116 -69 116 -69 112 -80 c 128,-1,17
 108 -91 108 -91 108 -102 c 0,18,19
 108 -147 108 -147 157 -147 c 0,20,21
 185 -147 185 -147 237 -115 c 1,0,-1
EndSplineSet
EndChar
StartChar: tilde
Encoding: 732 732 207
Width: 353
GlyphClass: 2
Flags: W
LayerCount: 2
Back
Fore
SplineSet
286 672 m 1,0,-1
 333 672 l 1,1,2
 329 634 329 634 306.5 603.5 c 128,-1,3
 284 573 284 573 248 573 c 0,4,5
 219 573 219 573 171.5 592.5 c 128,-1,6
 124 612 124 612 99 612 c 0,7,8
 77 612 77 612 65 585 c 1,9,-1
 16 585 l 1,10,11
 21 625 21 625 46 655 c 128,-1,12
 71 685 71 685 110 685 c 0,13,14
 138 685 138 685 185 665.5 c 128,-1,15
 232 646 232 646 250 646 c 0,16,17
 277 646 277 646 286 672 c 1,0,-1
EndSplineSet
EndChar
StartChar: hungarumlaut
Encoding: 733 733 208
Width: 405
GlyphClass: 2
Flags: W
LayerCount: 2
Back
Fore
SplineSet
237 557 m 1,0,-1
 176 557 l 1,1,-1
 257 727 l 1,2,-1
 374 727 l 1,3,-1
 237 557 l 1,0,-1
96 557 m 1,4,-1
 34 557 l 1,5,-1
 115 727 l 1,6,-1
 233 727 l 1,7,-1
 96 557 l 1,4,-1
EndSplineSet
EndChar
StartChar: pi
Encoding: 960 960 209
Width: 669
GlyphClass: 2
Flags: W
LayerCount: 2
Back
Fore
SplineSet
602 519 m 1,0,-1
 627 478 l 1,1,2
 591 433 591 433 513 429 c 1,3,4
 467 289 467 289 467 171 c 0,5,6
 467 130 467 130 480.5 97.5 c 128,-1,7
 494 65 494 65 527 65 c 0,8,9
 548 65 548 65 570 75 c 1,10,11
 573 70 573 70 580.5 53.5 c 128,-1,12
 588 37 588 37 593 28 c 1,13,14
 555 -5 555 -5 502 -5 c 0,15,16
 459 -5 459 -5 431 24 c 128,-1,17
 403 53 403 53 393 90 c 128,-1,18
 383 127 383 127 383 171 c 0,19,20
 383 320 383 320 439 429 c 1,21,-1
 269 429 l 1,22,-1
 269 338 l 2,23,24
 269 287 269 287 267 251 c 128,-1,25
 265 215 265 215 256.5 166.5 c 128,-1,26
 248 118 248 118 232 84.5 c 128,-1,27
 216 51 216 51 186 21 c 128,-1,28
 156 -9 156 -9 114 -24 c 1,29,30
 92 9 92 9 89 13 c 1,31,32
 132 37 132 37 156 81.5 c 128,-1,33
 180 126 180 126 180 179 c 2,34,-1
 180 393 l 2,35,36
 180 400 180 400 183 413 c 128,-1,37
 186 426 186 426 186 429 c 1,38,39
 150 426 150 426 123.5 404.5 c 128,-1,40
 97 383 97 383 89 349 c 1,41,42
 57 357 57 357 42 362 c 1,43,44
 46 423 46 423 89 460 c 128,-1,45
 132 497 132 497 204 497 c 2,46,-1
 504 497 l 2,47,48
 565 497 565 497 602 519 c 1,0,-1
EndSplineSet
EndChar
StartChar: endash
Encoding: 8211 8211 210
Width: 502
GlyphClass: 2
Flags: W
LayerCount: 2
Back
Fore
SplineSet
493 230 m 1,0,-1
 8 230 l 1,1,-1
 8 292 l 1,2,-1
 493 292 l 1,3,-1
 493 230 l 1,0,-1
EndSplineSet
EndChar
StartChar: emdash
Encoding: 8212 8212 211
Width: 852
GlyphClass: 2
Flags: W
LayerCount: 2
Back
Fore
SplineSet
843 230 m 1,0,-1
 8 230 l 1,1,-1
 8 291 l 1,2,-1
 843 291 l 1,3,-1
 843 230 l 1,0,-1
EndSplineSet
EndChar
StartChar: quoteleft
Encoding: 8216 8216 212
Width: 286
GlyphClass: 2
Flags: W
LayerCount: 2
Back
Fore
SplineSet
173 733 m 1,0,1
 191 717 191 717 207 699 c 0,2,3
 205 696 205 696 196 687.5 c 128,-1,4
 187 679 187 679 182 673.5 c 128,-1,5
 177 668 177 668 170.5 659.5 c 128,-1,6
 164 651 164 651 161 643 c 128,-1,7
 158 635 158 635 158 628 c 0,8,9
 158 617 158 617 183 593.5 c 128,-1,10
 208 570 208 570 208 542 c 0,11,12
 208 517 208 517 190.5 499.5 c 128,-1,13
 173 482 173 482 147 482 c 0,14,15
 112 482 112 482 91.5 507 c 128,-1,16
 71 532 71 532 71 567 c 0,17,18
 71 659 71 659 173 733 c 1,0,1
EndSplineSet
EndChar
StartChar: quoteright
Encoding: 8217 8217 213
Width: 286
GlyphClass: 2
Flags: W
LayerCount: 2
Back
Fore
SplineSet
76 516 m 0,0,1
 78 519 78 519 87 527.5 c 128,-1,2
 96 536 96 536 101 541.5 c 128,-1,3
 106 547 106 547 112.5 555.5 c 128,-1,4
 119 564 119 564 122 572 c 128,-1,5
 125 580 125 580 125 587 c 0,6,7
 125 598 125 598 100 621.5 c 128,-1,8
 75 645 75 645 75 673 c 0,9,10
 75 698 75 698 93 715.5 c 128,-1,11
 111 733 111 733 137 733 c 0,12,13
 172 733 172 733 192 708 c 128,-1,14
 212 683 212 683 212 648 c 0,15,16
 212 556 212 556 110 482 c 1,17,18
 92 498 92 498 76 516 c 0,0,1
EndSplineSet
EndChar
StartChar: quotedblright
Encoding: 8221 8221 216
Width: 487
GlyphClass: 2
Flags: W
LayerCount: 2
Back
Fore
SplineSet
80 516 m 0,0,1
 82 519 82 519 91 527.5 c 128,-1,2
 100 536 100 536 105 541.5 c 128,-1,3
 110 547 110 547 116.5 555.5 c 128,-1,4
 123 564 123 564 126 572 c 128,-1,5
 129 580 129 580 129 587 c 0,6,7
 129 598 129 598 104 621.5 c 128,-1,8
 79 645 79 645 79 673 c 0,9,10
 79 698 79 698 97 715.5 c 128,-1,11
 115 733 115 733 141 733 c 0,12,13
 176 733 176 733 196 708 c 128,-1,14
 216 683 216 683 216 648 c 0,15,16
 216 556 216 556 114 482 c 1,17,18
 96 498 96 498 80 516 c 0,0,1
275 516 m 0,19,20
 277 519 277 519 286 527.5 c 128,-1,21
 295 536 295 536 300 541.5 c 128,-1,22
 305 547 305 547 311.5 555.5 c 128,-1,23
 318 564 318 564 321 572 c 128,-1,24
 324 580 324 580 324 587 c 0,25,26
 324 598 324 598 299 621.5 c 128,-1,27
 274 645 274 645 274 673 c 0,28,29
 274 698 274 698 292 715.5 c 128,-1,30
 310 733 310 733 336 733 c 0,31,32
 371 733 371 733 391 708 c 128,-1,33
 411 683 411 683 411 648 c 0,34,35
 411 556 411 556 309 482 c 1,36,37
 291 498 291 498 275 516 c 0,19,20
EndSplineSet
EndChar
StartChar: dagger
Encoding: 8224 8224 218
Width: 523
GlyphClass: 2
Flags: W
LayerCount: 2
Back
Fore
SplineSet
291 -138 m 1,0,-1
 245 -138 l 1,1,-1
 227 160 l 2,2,3
 226 177 226 177 222 226 c 128,-1,4
 218 275 218 275 218 309 c 0,5,6
 218 320 218 320 223 350 c 128,-1,7
 228 380 228 380 235 417.5 c 128,-1,8
 242 455 242 455 243 462 c 1,9,-1
 117 440 l 1,10,-1
 51 485 l 1,11,-1
 117 529 l 1,12,-1
 243 504 l 1,13,-1
 217 658 l 1,14,-1
 264 740 l 1,15,-1
 316 658 l 1,16,-1
 289 504 l 1,17,-1
 418 529 l 1,18,-1
 482 481 l 1,19,-1
 418 440 l 1,20,-1
 289 462 l 1,21,22
 290 456 290 456 297.5 418 c 128,-1,23
 305 380 305 380 310 349.5 c 128,-1,24
 315 319 315 319 315 309 c 0,25,26
 315 283 315 283 313.5 260 c 128,-1,27
 312 237 312 237 310 209 c 128,-1,28
 308 181 308 181 307 160 c 2,29,-1
 291 -138 l 1,0,-1
EndSplineSet
EndChar
StartChar: daggerdbl
Encoding: 8225 8225 219
Width: 523
GlyphClass: 2
Flags: W
LayerCount: 2
Back
Fore
SplineSet
270 -139 m 1,0,-1
 217 -61 l 1,1,-1
 243 93 l 1,2,-1
 117 68 l 1,3,-1
 51 117 l 1,4,-1
 117 155 l 1,5,-1
 244 135 l 1,6,7
 242 146 242 146 235 186.5 c 128,-1,8
 228 227 228 227 223 261.5 c 128,-1,9
 218 296 218 296 218 309 c 0,10,11
 218 320 218 320 223 350 c 128,-1,12
 228 380 228 380 235 417.5 c 128,-1,13
 242 455 242 455 243 462 c 1,14,-1
 117 440 l 1,15,-1
 51 485 l 1,16,-1
 117 529 l 1,17,-1
 243 504 l 1,18,-1
 217 658 l 1,19,-1
 264 740 l 1,20,-1
 316 658 l 1,21,-1
 289 504 l 1,22,-1
 418 529 l 1,23,-1
 482 481 l 1,24,-1
 418 440 l 1,25,-1
 289 462 l 1,26,27
 290 457 290 457 297 419 c 128,-1,28
 304 381 304 381 310 347 c 128,-1,29
 316 313 316 313 316 309 c 0,30,31
 316 295 316 295 311.5 261 c 128,-1,32
 307 227 307 227 300 186.5 c 128,-1,33
 293 146 293 146 292 135 c 1,34,-1
 415 155 l 1,35,-1
 482 112 l 1,36,-1
 415 68 l 1,37,-1
 293 93 l 1,38,-1
 316 -61 l 1,39,-1
 270 -139 l 1,0,-1
EndSplineSet
EndChar
StartChar: bullet
Encoding: 8226 8226 220
Width: 441
GlyphClass: 2
Flags: W
LayerCount: 2
Back
Fore
SplineSet
334 243 m 0,0,1
 288 196 288 196 221 196 c 256,2,3
 154 196 154 196 107 243 c 128,-1,4
 60 290 60 290 60 357 c 128,-1,5
 60 424 60 424 107 471 c 128,-1,6
 154 518 154 518 221 518 c 256,7,8
 288 518 288 518 334.5 471 c 128,-1,9
 381 424 381 424 381 357 c 128,-1,10
 381 290 381 290 334 243 c 0,0,1
EndSplineSet
EndChar
StartChar: ellipsis
Encoding: 8230 8230 221
Width: 714
GlyphClass: 2
Flags: W
LayerCount: 2
Back
Fore
SplineSet
82 53 m 0,0,1
 82 81 82 81 101 100 c 128,-1,2
 120 119 120 119 148 119 c 0,3,4
 175 119 175 119 194.5 99.5 c 128,-1,5
 214 80 214 80 214 53 c 128,-1,6
 214 26 214 26 194.5 6.5 c 128,-1,7
 175 -13 175 -13 148 -13 c 256,8,9
 121 -13 121 -13 101.5 6.5 c 128,-1,10
 82 26 82 26 82 53 c 0,0,1
293 53 m 0,11,12
 293 81 293 81 312 100 c 128,-1,13
 331 119 331 119 359 119 c 0,14,15
 386 119 386 119 405.5 99.5 c 128,-1,16
 425 80 425 80 425 53 c 128,-1,17
 425 26 425 26 405.5 6.5 c 128,-1,18
 386 -13 386 -13 359 -13 c 256,19,20
 332 -13 332 -13 312.5 6.5 c 128,-1,21
 293 26 293 26 293 53 c 0,11,12
504 53 m 0,22,23
 504 81 504 81 523 100 c 128,-1,24
 542 119 542 119 570 119 c 0,25,26
 597 119 597 119 616.5 99.5 c 128,-1,27
 636 80 636 80 636 53 c 128,-1,28
 636 26 636 26 616.5 6.5 c 128,-1,29
 597 -13 597 -13 570 -13 c 256,30,31
 543 -13 543 -13 523.5 6.5 c 128,-1,32
 504 26 504 26 504 53 c 0,22,23
EndSplineSet
EndChar
StartChar: perthousand
Encoding: 8240 8240 222
Width: 1148
GlyphClass: 2
Flags: W
LayerCount: 2
Back
Fore
SplineSet
943 -5 m 0,0,1
 866 -5 866 -5 820 54 c 128,-1,2
 774 113 774 113 774 192 c 0,3,4
 774 274 774 274 816.5 329.5 c 128,-1,5
 859 385 859 385 939 385 c 0,6,7
 1014 385 1014 385 1058 327 c 128,-1,8
 1102 269 1102 269 1102 192 c 0,9,10
 1102 116 1102 116 1059 55.5 c 128,-1,11
 1016 -5 1016 -5 943 -5 c 0,0,1
593 -5 m 0,12,13
 516 -5 516 -5 470 53.5 c 128,-1,14
 424 112 424 112 424 192 c 0,15,16
 424 274 424 274 466.5 329.5 c 128,-1,17
 509 385 509 385 588 385 c 0,18,19
 663 385 663 385 707 327 c 128,-1,20
 751 269 751 269 751 192 c 0,21,22
 751 117 751 117 708 56 c 128,-1,23
 665 -5 665 -5 593 -5 c 0,12,13
247 -13 m 1,24,-1
 183 -13 l 1,25,-1
 511 657 l 1,26,-1
 328 657 l 1,27,28
 374 601 374 601 374 521 c 0,29,30
 374 446 374 446 330.5 385 c 128,-1,31
 287 324 287 324 215 324 c 0,32,33
 138 324 138 324 92 383 c 128,-1,34
 46 442 46 442 46 521 c 0,35,36
 46 602 46 602 88.5 657.5 c 128,-1,37
 131 713 131 713 210 713 c 2,38,-1
 602 713 l 1,39,-1
 247 -13 l 1,24,-1
941 54 m 0,40,41
 984 54 984 54 1004.5 98 c 128,-1,42
 1025 142 1025 142 1025 190 c 0,43,44
 1025 218 1025 218 1017.5 247.5 c 128,-1,45
 1010 277 1010 277 990 302.5 c 128,-1,46
 970 328 970 328 940 328 c 0,47,48
 897 328 897 328 873 281.5 c 128,-1,49
 849 235 849 235 849 188 c 128,-1,50
 849 141 849 141 873 97.5 c 128,-1,51
 897 54 897 54 941 54 c 0,40,41
591 54 m 0,52,53
 621 54 621 54 640.5 79 c 128,-1,54
 660 104 660 104 667 132.5 c 128,-1,55
 674 161 674 161 674 190 c 0,56,57
 674 218 674 218 666.5 247.5 c 128,-1,58
 659 277 659 277 639 302.5 c 128,-1,59
 619 328 619 328 589 328 c 0,60,61
 560 328 560 328 538.5 302.5 c 128,-1,62
 517 277 517 277 508 246.5 c 128,-1,63
 499 216 499 216 499 188 c 0,64,65
 499 141 499 141 523 97.5 c 128,-1,66
 547 54 547 54 591 54 c 0,52,53
213 383 m 0,67,68
 243 383 243 383 263 408 c 128,-1,69
 283 433 283 433 290 462 c 128,-1,70
 297 491 297 491 297 519 c 0,71,72
 297 548 297 548 289.5 577.5 c 128,-1,73
 282 607 282 607 261.5 632 c 128,-1,74
 241 657 241 657 211 657 c 0,75,76
 182 657 182 657 160.5 631.5 c 128,-1,77
 139 606 139 606 130 575.5 c 128,-1,78
 121 545 121 545 121 517 c 0,79,80
 121 470 121 470 145 426.5 c 128,-1,81
 169 383 169 383 213 383 c 0,67,68
EndSplineSet
EndChar
StartChar: guilsinglleft
Encoding: 8249 8249 223
Width: 298
GlyphClass: 2
Flags: W
LayerCount: 2
Back
Fore
SplineSet
253 179 m 1,0,-1
 194 171 l 1,1,-1
 45 333 l 1,2,-1
 190 497 l 1,3,-1
 251 485 l 1,4,-1
 135 333 l 1,5,-1
 253 179 l 1,0,-1
EndSplineSet
EndChar
StartChar: guilsinglright
Encoding: 8250 8250 224
Width: 329
GlyphClass: 2
Flags: W
LayerCount: 2
Back
Fore
SplineSet
120 169 m 1,0,-1
 60 177 l 1,1,-1
 179 331 l 1,2,-1
 63 483 l 1,3,-1
 124 495 l 1,4,-1
 268 331 l 1,5,-1
 120 169 l 1,0,-1
EndSplineSet
EndChar
StartChar: fraction
Encoding: 8260 8260 225
Width: 132
GlyphClass: 2
Flags: W
LayerCount: 2
Back
Fore
SplineSet
-89 -7 m 1,0,-1
 -153 -7 l 1,1,-1
 220 730 l 1,2,-1
 286 730 l 1,3,-1
 -89 -7 l 1,0,-1
EndSplineSet
EndChar
StartChar: Euro
Encoding: 8364 8364 226
Width: 524
GlyphClass: 2
Flags: W
LayerCount: 2
Back
Fore
SplineSet
448 73 m 1,0,-1
 470 10 l 1,1,2
 416 -10 416 -10 358 -10 c 0,3,4
 258 -10 258 -10 193 41 c 128,-1,5
 128 92 128 92 108 177 c 1,6,-1
 13 177 l 1,7,-1
 22 219 l 1,8,-1
 101 219 l 1,9,10
 99 231 99 231 99 255 c 0,11,12
 99 276 99 276 100 286 c 1,13,-1
 37 286 l 1,14,-1
 46 328 l 1,15,-1
 106 328 l 1,16,17
 126 414 126 414 191 466 c 128,-1,18
 256 518 256 518 356 518 c 0,19,20
 408 518 408 518 462 501 c 1,21,-1
 447 436 l 1,22,23
 408 456 408 456 356 456 c 0,24,25
 289 456 289 456 249.5 421 c 128,-1,26
 210 386 210 386 195 328 c 1,27,-1
 423 328 l 1,28,-1
 414 286 l 1,29,-1
 187 286 l 1,30,31
 186 265 186 265 186 254 c 0,32,33
 186 241 186 241 188 219 c 1,34,-1
 399 219 l 1,35,-1
 390 177 l 1,36,-1
 197 177 l 1,37,38
 213 121 213 121 254 87.5 c 128,-1,39
 295 54 295 54 360 54 c 0,40,41
 409 54 409 54 448 73 c 1,0,-1
EndSplineSet
EndChar
StartChar: trademark
Encoding: 8482 8482 227
Width: 568
GlyphClass: 2
Flags: W
LayerCount: 2
Back
Fore
SplineSet
504 493 m 1,0,-1
 455 493 l 1,1,-1
 455 644 l 1,2,3
 436 592 436 592 401 506 c 2,4,-1
 396 493 l 1,5,-1
 366 493 l 1,6,7
 358 514 358 514 337.5 567 c 128,-1,8
 317 620 317 620 306 648 c 1,9,-1
 306 493 l 1,10,-1
 264 493 l 1,11,-1
 264 718 l 1,12,-1
 330 718 l 1,13,-1
 385 573 l 1,14,-1
 440 718 l 1,15,-1
 504 718 l 1,16,-1
 504 493 l 1,0,-1
170 494 m 1,17,-1
 120 494 l 1,18,-1
 120 681 l 1,19,-1
 49 681 l 1,20,-1
 49 718 l 1,21,-1
 242 718 l 1,22,-1
 242 681 l 1,23,-1
 170 681 l 1,24,-1
 170 494 l 1,17,-1
EndSplineSet
EndChar
StartChar: Omega
Encoding: 8486 8486 228
Width: 782
GlyphClass: 2
Flags: W
LayerCount: 2
Back
Fore
SplineSet
725 0 m 1,0,-1
 467 0 l 1,1,-1
 467 53 l 1,2,3
 519 73 519 73 554 122 c 128,-1,4
 589 171 589 171 602.5 227.5 c 128,-1,5
 616 284 616 284 616 348 c 0,6,7
 616 406 616 406 604 459.5 c 128,-1,8
 592 513 592 513 567 560.5 c 128,-1,9
 542 608 542 608 496.5 636.5 c 128,-1,10
 451 665 451 665 391 665 c 256,11,12
 331 665 331 665 285.5 636.5 c 128,-1,13
 240 608 240 608 215 560.5 c 128,-1,14
 190 513 190 513 178 459.5 c 128,-1,15
 166 406 166 406 166 348 c 0,16,17
 166 247 166 247 202 164.5 c 128,-1,18
 238 82 238 82 314 53 c 1,19,-1
 314 0 l 1,20,-1
 56 0 l 1,21,-1
 56 69 l 1,22,-1
 129 69 l 1,23,-1
 196 64 l 1,24,25
 137 107 137 107 102.5 188.5 c 128,-1,26
 68 270 68 270 68 361 c 0,27,28
 68 522 68 522 152.5 628 c 128,-1,29
 237 734 237 734 391 734 c 256,30,31
 545 734 545 734 629.5 628 c 128,-1,32
 714 522 714 522 714 361 c 0,33,34
 714 270 714 270 679.5 188.5 c 128,-1,35
 645 107 645 107 586 64 c 1,36,-1
 653 69 l 1,37,-1
 725 69 l 1,38,-1
 725 0 l 1,0,-1
EndSplineSet
EndChar
StartChar: partialdiff
Encoding: 8706 8706 229
Width: 555
GlyphClass: 2
Flags: W
LayerCount: 2
Back
Fore
SplineSet
388 355 m 1,0,1
 385 386 385 386 384 396 c 0,2,3
 380 525 380 525 327.5 593 c 128,-1,4
 275 661 275 661 206 661 c 0,5,6
 176 661 176 661 151 653.5 c 128,-1,7
 126 646 126 646 116 639 c 2,8,-1
 105 632 l 1,9,10
 91 656 91 656 72 683 c 1,11,12
 77 689 77 689 88 697.5 c 128,-1,13
 99 706 99 706 137 720 c 128,-1,14
 175 734 175 734 219 734 c 0,15,16
 337 734 337 734 412 628 c 128,-1,17
 487 522 487 522 487 333 c 0,18,19
 487 235 487 235 463 164 c 128,-1,20
 439 93 439 93 400 57 c 128,-1,21
 361 21 361 21 322.5 5.5 c 128,-1,22
 284 -10 284 -10 245 -10 c 0,23,24
 213 -10 213 -10 181.5 0 c 128,-1,25
 150 10 150 10 118 31.5 c 128,-1,26
 86 53 86 53 66.5 95.5 c 128,-1,27
 47 138 47 138 47 195 c 0,28,29
 47 250 47 250 68 293 c 128,-1,30
 89 336 89 336 121 360.5 c 128,-1,31
 153 385 153 385 187 397.5 c 128,-1,32
 221 410 221 410 252 410 c 0,33,34
 337 410 337 410 388 355 c 1,0,1
386 290 m 1,35,36
 336 340 336 340 266 340 c 0,37,38
 210 340 210 340 174.5 293 c 128,-1,39
 139 246 139 246 139 186 c 0,40,41
 139 136 139 136 165.5 96.5 c 128,-1,42
 192 57 192 57 246 57 c 0,43,44
 307 57 307 57 343.5 124 c 128,-1,45
 380 191 380 191 386 290 c 1,35,36
EndSplineSet
EndChar
StartChar: Delta
Encoding: 8710 8710 230
Width: 631
GlyphClass: 2
Flags: W
LayerCount: 2
Back
Fore
SplineSet
614 0 m 1,0,-1
 15 0 l 1,1,-1
 15 53 l 1,2,3
 102 277 102 277 276 723 c 1,4,-1
 354 723 l 1,5,6
 528 277 528 277 614 53 c 1,7,-1
 614 0 l 1,0,-1
97 66 m 1,8,-1
 499 66 l 1,9,10
 485 103 485 103 424 261 c 128,-1,11
 363 419 363 419 334 496 c 0,12,13
 327 516 327 516 315 554.5 c 128,-1,14
 303 593 303 593 299 605 c 1,15,-1
 97 66 l 1,8,-1
EndSplineSet
EndChar
StartChar: product
Encoding: 8719 8719 231
Width: 833
GlyphClass: 2
Flags: W
LayerCount: 2
Back
Fore
SplineSet
686 -228 m 1,0,-1
 590 -228 l 1,1,-1
 590 655 l 1,2,-1
 243 655 l 1,3,-1
 243 -228 l 1,4,-1
 147 -228 l 1,5,-1
 147 655 l 1,6,-1
 31 655 l 1,7,-1
 31 724 l 1,8,-1
 803 724 l 1,9,-1
 803 655 l 1,10,-1
 686 655 l 1,11,-1
 686 -228 l 1,0,-1
EndSplineSet
EndChar
StartChar: summation
Encoding: 8721 8721 232
Width: 726
GlyphClass: 2
Flags: W
LayerCount: 2
Back
Fore
SplineSet
671 -228 m 1,0,-1
 55 -228 l 1,1,-1
 55 -130 l 1,2,3
 151 2 151 2 345 266 c 1,4,5
 321 298 321 298 216 438 c 128,-1,6
 111 578 111 578 55 654 c 1,7,-1
 55 723 l 1,8,-1
 661 723 l 1,9,-1
 661 654 l 1,10,-1
 176 654 l 1,11,12
 253 554 253 554 451 294 c 1,13,14
 201 -48 201 -48 139 -127 c 1,15,-1
 671 -127 l 1,16,-1
 671 -228 l 1,0,-1
EndSplineSet
EndChar
StartChar: radical
Encoding: 8730 8730 234
Width: 605
GlyphClass: 2
Flags: W
LayerCount: 2
Back
Fore
SplineSet
291 -230 m 1,0,-1
 208 -230 l 1,1,-1
 60 213 l 1,2,-1
 -26 183 l 1,3,-1
 -46 245 l 1,4,-1
 117 303 l 1,5,-1
 255 -112 l 1,6,-1
 575 948 l 1,7,-1
 647 948 l 1,8,-1
 291 -230 l 1,0,-1
EndSplineSet
EndChar
StartChar: integral
Encoding: 8747 8747 236
Width: 256
GlyphClass: 2
Flags: W
LayerCount: 2
Back
Fore
SplineSet
-7 -226 m 1,0,-1
 -7 -169 l 1,1,2
 41 -169 41 -169 66.5 -135 c 128,-1,3
 92 -101 92 -101 92 -56 c 2,4,-1
 92 544 l 2,5,6
 92 734 92 734 268 734 c 1,7,-1
 268 676 l 1,8,9
 221 676 221 676 198 642.5 c 128,-1,10
 175 609 175 609 175 563 c 2,11,-1
 175 -36 l 2,12,13
 175 -128 175 -128 129.5 -177 c 128,-1,14
 84 -226 84 -226 -7 -226 c 1,0,-1
EndSplineSet
EndChar
StartChar: approxequal
Encoding: 8776 8776 237
Width: 657
GlyphClass: 2
Flags: W
LayerCount: 2
Back
Fore
SplineSet
133 290 m 1,0,-1
 83 322 l 1,1,2
 96 350 96 350 132.5 383 c 128,-1,3
 169 416 169 416 217 416 c 0,4,5
 266 416 266 416 333 381.5 c 128,-1,6
 400 347 400 347 433 347 c 0,7,8
 463 347 463 347 488 369 c 128,-1,9
 513 391 513 391 520 408 c 1,10,11
 554 387 554 387 571 376 c 1,12,13
 563 360 563 360 548 341.5 c 128,-1,14
 533 323 533 323 501.5 302.5 c 128,-1,15
 470 282 470 282 436 282 c 0,16,17
 388 282 388 282 321 316.5 c 128,-1,18
 254 351 254 351 220 351 c 0,19,20
 174 351 174 351 133 290 c 1,0,-1
133 99 m 1,21,-1
 83 131 l 1,22,23
 96 159 96 159 132.5 192 c 128,-1,24
 169 225 169 225 217 225 c 0,25,26
 266 225 266 225 333 190.5 c 128,-1,27
 400 156 400 156 433 156 c 0,28,29
 463 156 463 156 488 178 c 128,-1,30
 513 200 513 200 520 217 c 1,31,32
 554 196 554 196 571 185 c 1,33,34
 563 169 563 169 548 150.5 c 128,-1,35
 533 132 533 132 501.5 111.5 c 128,-1,36
 470 91 470 91 436 91 c 0,37,38
 388 91 388 91 321 125.5 c 128,-1,39
 254 160 254 160 220 160 c 0,40,41
 174 160 174 160 133 99 c 1,21,-1
EndSplineSet
EndChar
StartChar: notequal
Encoding: 8800 8800 238
Width: 638
GlyphClass: 2
Flags: W
LayerCount: 2
Back
Fore
SplineSet
565 119 m 1,0,-1
 304 119 l 1,1,-1
 258 -10 l 1,2,-1
 193 -10 l 1,3,-1
 239 119 l 1,4,-1
 72 119 l 1,5,-1
 72 181 l 1,6,-1
 262 181 l 1,7,-1
 310 312 l 1,8,-1
 72 312 l 1,9,-1
 72 374 l 1,10,-1
 332 374 l 1,11,-1
 380 506 l 1,12,-1
 444 506 l 1,13,-1
 396 374 l 1,14,-1
 565 374 l 1,15,-1
 565 312 l 1,16,-1
 374 312 l 1,17,-1
 326 181 l 1,18,-1
 565 181 l 1,19,-1
 565 119 l 1,0,-1
EndSplineSet
EndChar
StartChar: lessequal
Encoding: 8804 8804 239
Width: 630
GlyphClass: 2
Flags: W
LayerCount: 2
Back
Fore
SplineSet
564 87 m 1,0,-1
 66 258 l 1,1,-1
 66 333 l 1,2,-1
 564 502 l 1,3,-1
 564 425 l 1,4,-1
 162 294 l 1,5,-1
 564 163 l 1,6,-1
 564 87 l 1,0,-1
564 0 m 1,7,-1
 66 0 l 1,8,-1
 66 70 l 1,9,-1
 564 70 l 1,10,-1
 564 0 l 1,7,-1
EndSplineSet
EndChar
StartChar: greaterequal
Encoding: 8805 8805 240
Width: 630
GlyphClass: 2
Flags: W
LayerCount: 2
Back
Fore
SplineSet
564 258 m 1,0,-1
 66 87 l 1,1,-1
 66 163 l 1,2,-1
 468 294 l 1,3,-1
 66 425 l 1,4,-1
 66 502 l 1,5,-1
 564 333 l 1,6,-1
 564 258 l 1,0,-1
564 0 m 1,7,-1
 66 0 l 1,8,-1
 66 70 l 1,9,-1
 564 70 l 1,10,-1
 564 0 l 1,7,-1
EndSplineSet
EndChar
StartChar: fi
Encoding: 64257 64257 242
Width: 568
GlyphClass: 3
Flags: W
LayerCount: 2
Back
Fore
SplineSet
487 -1 m 1,0,-1
 405 -1 l 1,1,-1
 405 434 l 1,2,-1
 178 434 l 1,3,-1
 178 -1 l 1,4,-1
 95 -1 l 1,5,-1
 95 434 l 1,6,-1
 20 434 l 1,7,-1
 20 486 l 2,8,9
 21 486 21 486 32.5 487 c 128,-1,10
 44 488 44 488 47 488.5 c 128,-1,11
 50 489 50 489 59.5 491 c 128,-1,12
 69 493 69 493 73 495.5 c 128,-1,13
 77 498 77 498 83 502 c 128,-1,14
 89 506 89 506 92 512 c 128,-1,15
 95 518 95 518 97 526 c 0,16,17
 100 540 100 540 104.5 568 c 128,-1,18
 109 596 109 596 109 599 c 0,19,20
 124 680 124 680 174 724.5 c 128,-1,21
 224 769 224 769 307 769 c 0,22,23
 368 769 368 769 416 740 c 128,-1,24
 464 711 464 711 483 656 c 1,25,-1
 400 631 l 1,26,27
 393 666 393 666 368.5 686.5 c 128,-1,28
 344 707 344 707 309 707 c 0,29,30
 177 707 177 707 177 497 c 1,31,-1
 487 497 l 1,32,-1
 487 -1 l 1,0,-1
EndSplineSet
Ligature2: "'liga' Standard Ligatures lookup 0 subtable" f i
EndChar
StartChar: fl
Encoding: 64258 64258 243
Width: 568
GlyphClass: 3
Flags: W
LayerCount: 2
Back
Fore
SplineSet
483 -1 m 1,0,-1
 401 -1 l 1,1,-1
 401 635 l 2,2,3
 401 668 401 668 371.5 687.5 c 128,-1,4
 342 707 342 707 308 707 c 0,5,6
 272 707 272 707 246 693 c 128,-1,7
 220 679 220 679 207 660 c 128,-1,8
 194 641 194 641 187 608.5 c 128,-1,9
 180 576 180 576 178.5 553.5 c 128,-1,10
 177 531 177 531 177 497 c 1,11,-1
 320 497 l 1,12,-1
 302 434 l 1,13,-1
 177 434 l 1,14,-1
 177 -1 l 1,15,-1
 95 -1 l 1,16,-1
 95 434 l 1,17,-1
 20 434 l 1,18,-1
 20 486 l 1,19,20
 24 486 24 486 34 487 c 128,-1,21
 44 488 44 488 48.5 488.5 c 128,-1,22
 53 489 53 489 61 490.5 c 128,-1,23
 69 492 69 492 73.5 494.5 c 128,-1,24
 78 497 78 497 83.5 501 c 128,-1,25
 89 505 89 505 92 511.5 c 128,-1,26
 95 518 95 518 97 526 c 0,27,28
 100 540 100 540 103.5 565.5 c 128,-1,29
 107 591 107 591 108 599 c 0,30,31
 123 679 123 679 173.5 724 c 128,-1,32
 224 769 224 769 306 769 c 0,33,34
 377 769 377 769 418 738 c 1,35,-1
 483 764 l 1,36,-1
 483 -1 l 1,0,-1
EndSplineSet
Ligature2: "'liga' Standard Ligatures lookup 0 subtable" f l
EndChar
